<svg xmlns="http://www.w3.org/2000/svg"><defs><style>.stack{display:none;}.stack:target{display:inline;}</style></defs>

<g class="stack" id="1f1e6-1f1f9"><svg viewBox="0 0 36 36"><path fill="#EEE" d="M0 13h36v10H0z"/><path fill="#ED2939" d="M32 5H4C1.791 5 0 6.791 0 9v4h36V9c0-2.209-1.791-4-4-4zM4 31h28c2.209 0 4-1.791 4-4v-4H0v4c0 2.209 1.791 4 4 4z"/></svg></g>

<g class="stack" id="1f1e7-1f1ea"><svg viewBox="0 0 36 36"><path fill="#141414" d="M4 5C1.791 5 0 6.791 0 9v18c0 2.209 1.791 4 4 4h8V5H4z"/><path fill="#FEE833" d="M12 5h12v26H12z"/><path fill="#EE232C" d="M32 5h-8v26h8c2.209 0 4-1.791 4-4V9c0-2.209-1.791-4-4-4z"/></svg></g>

<g class="stack" id="1f1e7-1f1ec"><svg viewBox="0 0 36 36"><path fill="#EEE" d="M32 5H4C1.791 5 0 6.791 0 9v5h36V9c0-2.209-1.791-4-4-4z"/><path fill="#D62612" d="M0 27c0 2.209 1.791 4 4 4h28c2.209 0 4-1.791 4-4v-5H0v5z"/><path fill="#00966E" d="M0 14h36v8H0z"/></svg></g>

<g class="stack" id="1f1e8-1f1e6"><svg viewBox="0 0 36 36"><path fill="#D52B1E" d="M4 5C1.791 5 0 6.791 0 9v18c0 2.209 1.791 4 4 4h6V5H4zm28 0h-6v26h6c2.209 0 4-1.791 4-4V9c0-2.209-1.791-4-4-4z"/><path fill="#EEE" d="M10 5h16v26H10z"/><path fill="#D52B1E" d="M18.615 22.113c1.198.139 2.272.264 3.469.401l-.305-1.002c-.049-.176.021-.368.159-.476l3.479-2.834-.72-.339c-.317-.113-.23-.292-.115-.722l.531-1.936-2.021.427c-.197.03-.328-.095-.358-.215l-.261-.911-1.598 1.794c-.227.288-.687.288-.544-.376l.683-3.634-.917.475c-.257.144-.514.168-.657-.089l-1.265-2.366v.059-.059l-1.265 2.366c-.144.257-.401.233-.658.089l-.916-.475.683 3.634c.144.664-.317.664-.544.376l-1.598-1.793-.26.911c-.03.12-.162.245-.359.215l-2.021-.427.531 1.936c.113.43.201.609-.116.722l-.72.339 3.479 2.834c.138.107.208.3.158.476l-.305 1.002 3.47-.401c.106 0 .176.059.175.181l-.214 3.704h.956l-.213-3.704c.002-.123.071-.182.177-.182z"/></svg></g>

<g class="stack" id="1f1e8-1f1ed"><svg viewBox="0 0 36 36"><path fill="#D32D27" d="M31 27c0 2.209-1.791 4-4 4H9c-2.209 0-4-1.791-4-4V9c0-2.209 1.791-4 4-4h18c2.209 0 4 1.791 4 4v18z"/><path fill="#FFF" d="M25 16.063h-5v-5h-4v5h-5V20h5v5.063h4V20h5z"/></svg></g>

<g class="stack" id="1f1e8-1f1f3"><svg viewBox="0 0 36 36"><path fill="#DE2910" d="M36 27c0 2.209-1.791 4-4 4H4c-2.209 0-4-1.791-4-4V9c0-2.209 1.791-4 4-4h28c2.209 0 4 1.791 4 4v18z"/><path fill="#FFDE02" d="M11.136 8.977l.736.356.589-.566-.111.81.72.386-.804.144-.144.804-.386-.72-.81.111.566-.589zm4.665 2.941l-.356.735.566.59-.809-.112-.386.721-.144-.805-.805-.144.721-.386-.112-.809.59.566zm-.957 3.779l.268.772.817.017-.651.493.237.783-.671-.467-.671.467.236-.783-.651-.493.817-.017zm-3.708 3.28l.736.356.589-.566-.111.81.72.386-.804.144-.144.804-.386-.72-.81.111.566-.589zM7 10.951l.929 2.671 2.826.058-2.253 1.708.819 2.706L7 16.479l-2.321 1.615.819-2.706-2.253-1.708 2.826-.058z"/></svg></g>

<g class="stack" id="1f1e8-1f1fe"><svg viewBox="0 0 36 36"><path fill="#EEE" d="M36 27c0 2.209-1.791 4-4 4H4c-2.209 0-4-1.791-4-4V9c0-2.209 1.791-4 4-4h28c2.209 0 4 1.791 4 4v18z"/><g fill-rule="evenodd" clip-rule="evenodd" fill="#5C913B"><path d="M12.974 22.148c.013.061-.008.072-.073.053-.355-.1-.67-.26-.891-.568-.073-.1-.12-.213-.148-.334-.013-.059-.002-.09.068-.072.411.101.739.324.97.682.045.07.072.15.074.239zm8.469.069c-.021-.111.008-.213.064-.303.23-.363.562-.584.977-.69.073-.018.075.021.063.074-.052.236-.184.422-.366.572-.215.177-.464.284-.738.347zm.95.23c-.007.039-.031.068-.059.092-.294.269-.632.418-1.038.379-.102-.01-.193-.053-.278-.113-.045-.031-.042-.053-.001-.088.148-.127.319-.207.505-.256.255-.066.514-.084.776-.041.033.004.065.01.095.027zm-9.954-.049c.276.004.584.061.858.244.05.033.133.07.128.119-.006.057-.09.084-.149.109-.168.074-.341.072-.515.031-.262-.062-.499-.174-.689-.369-.023-.023-.059-.051-.046-.084.01-.025.053-.023.083-.029.094-.019.189-.021.33-.021zm1.091-.384c0 .094-.012.184-.044.271-.019.051-.042.059-.087.025-.142-.105-.227-.25-.285-.412-.096-.267-.141-.541-.072-.822.024-.098.035-.1.104-.027.256.271.36.601.384.965zm7.35-.03c.028-.338.13-.666.383-.932.073-.078.087-.076.106.027.079.412.004.793-.25 1.131-.039.053-.099.131-.154.115-.066-.018-.062-.115-.074-.184-.01-.043-.007-.09-.011-.157zm-2.228.62c.032.551-.229.947-.604 1.303-.119-.432.093-1.097.604-1.303zm-2.282 1.314c-.362-.352-.628-.723-.614-1.236.002-.076.026-.078.085-.043.35.209.508.529.546.92.012.111.011.224-.017.359zm3.627-1.908c.067.193.059.387.02.582-.048.24-.143.457-.325.629-.09.084-.104.082-.151-.035-.059-.146-.053-.297-.016-.445.066-.266.2-.494.399-.682.014-.014.027-.025.042-.037l.031-.012zm-5.59-.008c.333.223.567.764.488 1.1-.015.066-.028.156-.085.174-.053.016-.105-.062-.145-.111-.28-.341-.351-.725-.258-1.163zm5.622 1.43c.326.02.607.137.824.391.07.082.065.09-.041.119-.271.074-.522.006-.766-.107-.135-.064-.258-.144-.366-.246-.045-.041-.044-.066.016-.09.107-.042.216-.069.333-.067zm-5.644.002c.106-.002.208.018.306.057.093.037.097.049.023.111-.208.182-.446.303-.718.353-.135.025-.269.023-.401-.016-.103-.029-.107-.035-.036-.119.163-.197.38-.307.625-.365.066-.015.134-.021.201-.021zm5.786.826c-.384.185-.944.174-1.219-.254-.038-.062-.028-.082.038-.098.456-.105.84.03 1.181.352zm-5.928.004c.209-.223.46-.342.752-.383.139-.02.276-.012.412.023.096.023.098.029.043.109-.189.277-.46.377-.782.357-.144-.007-.285-.034-.425-.106zm1.399-.922c-.004.088-.019.158-.045.228-.021.057-.045.062-.091.024-.167-.139-.278-.316-.358-.516-.082-.203-.147-.41-.11-.635.005-.027.005-.066.028-.074.032-.014.051.025.071.045.22.217.406.453.483.76.009.035.013.07.018.108l.004.06zm3.128.004c-.001-.146.043-.283.11-.414.102-.201.245-.373.407-.531.048-.045.069-.049.084.023.033.156.005.307-.037.455-.076.266-.195.508-.407.697-.078.068-.085.064-.122-.031-.025-.065-.034-.131-.035-.199zm.662 1.398c-.199.014-.401.021-.6-.035-.272-.078-.442-.269-.564-.514-.018-.035-.02-.057.031-.057.471.002.845.195 1.127.566.006.006.008.016.012.025 0 .003-.003.007-.006.015zm-4.471.008c.061-.125.141-.201.227-.272.259-.213.55-.344.893-.342.058 0 .087.004.051.072-.174.344-.445.533-.834.539-.107.005-.214.003-.337.003zm5.395-1.932c-.132-.195-.142-.402-.091-.615.053-.228.169-.426.323-.602.042-.049.063-.041.091.01.072.133.082.273.06.42-.046.301-.177.557-.383.787zm-6.583-1.255c.311.269.553.887.286 1.244-.348-.266-.511-.977-.286-1.244zm-.502 1.863c-.141-.004-.306-.02-.451-.113-.092-.059-.09-.067-.011-.135.18-.158.393-.178.616-.145.17.025.335.074.501.117.057.016.056.035.023.074-.075.084-.175.121-.279.152-.121.036-.246.05-.399.05zm7.841 0c-.179-.004-.345-.023-.501-.098l-.05-.025c-.05-.029-.12-.062-.117-.119.003-.051.083-.043.13-.055.217-.057.432-.123.66-.105.14.012.261.064.367.154.08.068.081.076-.011.135-.148.095-.316.109-.478.113z"/><path d="M18.027 24.555c-.25-.061-.502-.121-.752-.184-.049-.012-.095-.012-.144 0-.25.064-.502.123-.755.18.158-.125.338-.205.551-.27l-.815-.283c.1-.016.165.016.231.033.262.068.526.125.792.176.114.021.22-.016.328-.037.319-.062.635-.145.952-.225-.299.125-.608.223-.936.334.208.067.389.143.548.276z"/></g><path fill-rule="evenodd" clip-rule="evenodd" fill="#F4900C" d="M25.774 11.114l-.149.073c-.268.126-.521.299-.838.278-.03-.002-.065.014-.071.048-.021.1-.097.112-.176.113-.153.003-.267.067-.356.193-.099.138-.224.244-.398.281-.056.012-.108.044-.157.074-.145.088-.299.129-.467.112-.055-.006-.091.011-.124.056-.077.103-.162.202-.244.301-.045.053-.094.106-.161.119-.224.044-.402.181-.596.286-.362.196-.726.39-1.132.485-.168.039-.346.087-.51.043-.135-.036-.218.009-.309.075-.056.039-.11.08-.158.127-.189.184-.409.266-.673.232-.049-.007-.098-.006-.143.019-.22.12-.468.123-.706.169-.108.022-.219-.017-.322.008-.246.057-.487-.01-.726-.032-.177-.017-.351-.058-.53-.029-.109.018-.202-.009-.282-.081-.078-.07-.157-.075-.245-.024-.075.044-.155.047-.23.007-.088-.046-.174-.048-.267-.022-.113.031-.229.052-.345.014-.271-.087-.551-.151-.811-.271-.125-.058-.125-.054-.113.088.014.165.071.323.065.492-.008.231-.018.461-.036.692-.026.343-.204.574-.498.735-.111.061-.21.061-.322.007-.204-.1-.405-.206-.619-.286-.273-.102-.541-.127-.816-.008-.094.041-.175.129-.294.099-.007-.002-.02.013-.028.021-.096.1-.196.197-.233.337-.054.201-.142.373-.344.475-.111.056-.202.15-.317.204-.158.074-.351.086-.465-.018-.135-.124-.333-.198-.396-.397-.012-.037-.055-.065-.08-.009-.054.124-.106.252-.042.39.047.101.097.2.175.28.024.025.039.055.046.089.023.116.031.233.002.348-.017.068-.006.126.03.184.026.042.074.102.051.132-.092.118-.006.192.048.277.004.008.01.017.01.026-.004.138.095.187.199.233.062.028.125.059.147.131.059.192.085.393.153.585.023.065.038.11.1.145.141.078.291.143.378.297.041.072.135.094.223.084.034-.004.076-.018.094.014.042.068.109.068.17.062.143-.016.244.045.325.154.042.057.096.092.163.113.146.049.292.098.431.162.083.039.164.053.243-.01.021-.016.045-.018.07-.014.134.025.248-.014.349-.104.041-.037.091-.062.144-.037.089.041.173.021.261 0 .097-.025.199-.033.288.018.166.094.27.248.372.404.066.1.065.209.046.32-.007.039.007.045.042.047.191.014.383.031.579.049-.017-.065-.064-.107-.098-.156-.075-.113-.123-.236-.079-.367.076-.227.24-.391.449-.49.088-.043.183-.08.272-.123.25-.123.507-.108.766-.033.136.039.297-.012.382-.119.017-.022.041-.029.064-.031.07-.01.143-.021.211 0 .073.025.132.025.186-.043.024-.029.069-.037.11-.035.027 0 .051 0 .074-.025.063-.074.151-.102.243-.123.021-.004.043-.002.059-.021.135-.169.331-.215.529-.255.071-.015.12-.044.161-.104.145-.21.289-.263.536-.198.062.017.078-.005.093-.057.026-.094.068-.182.155-.232.049-.028.061-.062.061-.111.001-.142.003-.284.006-.425.007-.328.248-.499.498-.539.153-.024.308-.007.461-.004.106.003.2.031.287.088.079.053.151.115.231.168.078.054.158.049.242.003.072-.04.105-.092.083-.174-.013-.051.013-.066.06-.063.071.005.153.023.209-.016.13-.088.262-.044.393-.035.05.003.102.002.144.028.108.07.249.063.351.149.007.006.021.001.056.001-.053-.028-.048-.058-.04-.093.018-.082 0-.161-.048-.229-.079-.113-.221-.179-.243-.336-.005-.03-.056-.056-.087-.08-.061-.047-.124-.091-.186-.137-.037-.028-.075-.06-.085-.106-.037-.181-.162-.298-.286-.418-.242-.235-.345-.517-.288-.855.018-.11.029-.224.104-.31.066-.076.145-.137.138-.25-.001-.013.011-.031.021-.039.131-.108.259-.219.45-.18.082.017.167.017.248.003.109-.017.194-.073.225-.191.016-.062.028-.129.062-.183.177-.289.435-.501.713-.683.114-.075.253-.125.38-.186.081-.038.16-.083.249-.095.057-.008.092-.034.126-.077.158-.207.328-.401.597-.471.074-.019.109-.084.136-.153.033-.09.065-.188.148-.24.259-.163.482-.398.815-.416.072-.003.111-.044.129-.112l.07-.277c.003-.004.011-.01.01-.012-.011-.007-.02-.002-.028.003z"/></svg></g>

<g class="stack" id="1f1e8-1f1ff"><svg viewBox="0 0 36 36"><path fill="#D7141A" d="M1.383 29.973C2.084 30.628 2.998 31 4 31h28c2.209 0 4-1.791 4-4.5V18H17.5L1.383 29.973z"/><path fill="#EEE" d="M32 5H4c-1.016 0-1.94.382-2.646 1.006L17.5 18H36V9c0-2.209-1.791-4-4-4z"/><path fill="#11457E" d="M1.383 29.973L17.5 18 1.354 6.006C.525 6.739 0 7.807 0 9v17.5c0 1.48.537 2.683 1.383 3.473z"/></svg></g>

<g class="stack" id="1f1e9-1f1ea"><svg viewBox="0 0 36 36"><path fill="#FFCD05" d="M0 27c0 2.209 1.791 4 4 4h28c2.209 0 4-1.791 4-4v-4H0v4z"/><path fill="#ED1F24" d="M0 14h36v9H0z"/><path fill="#141414" d="M32 5H4C1.791 5 0 6.791 0 9v5h36V9c0-2.209-1.791-4-4-4z"/></svg></g>

<g class="stack" id="1f1e9-1f1f0"><svg viewBox="0 0 36 36"><path fill="#C60C30" d="M32 5H15v11h21V9c0-2.209-1.791-4-4-4zM15 31h17c2.209 0 4-1.791 4-4.5V20H15v11zM0 20v6.5C0 29.209 1.791 31 4 31h7V20H0zM11 5H4C1.791 5 0 6.791 0 9v7h11V5z"/><path fill="#EEE" d="M15 5h-4v11H0v4h11v11h4V20h21v-4H15z"/></svg></g>

<g class="stack" id="1f1ea-1f1ea"><svg viewBox="0 0 36 36"><path fill="#141414" d="M0 14h36v9H0z"/><path fill="#4891D9" d="M32 5H4C1.791 5 0 6.791 0 9v5h36V9c0-2.209-1.791-4-4-4z"/><path fill="#EEE" d="M32 31H4c-2.209 0-4-1.791-4-4v-4h36v4c0 2.209-1.791 4-4 4z"/></svg></g>

<g class="stack" id="1f1ea-1f1f8"><svg viewBox="0 0 36 36"><path fill="#C60A1D" d="M36 27c0 2.209-1.791 4-4 4H4c-2.209 0-4-1.791-4-4V9c0-2.209 1.791-4 4-4h28c2.209 0 4 1.791 4 4v18z"/><path fill="#FFC400" d="M0 12h36v12H0z"/><path fill="#EA596E" d="M9 17v3c0 1.657 1.343 3 3 3s3-1.343 3-3v-3H9z"/><path fill="#F4A2B2" d="M12 16h3v3h-3z"/><path fill="#DD2E44" d="M9 16h3v3H9z"/><ellipse fill="#EA596E" cx="12" cy="14.5" rx="3" ry="1.5"/><ellipse fill="#FFAC33" cx="12" cy="13.75" rx="3" ry=".75"/><path fill="#99AAB5" d="M7 16h1v7H7zm9 0h1v7h-1z"/><path fill="#66757F" d="M6 22h3v1H6zm9 0h3v1h-3zm-8-7h1v1H7zm9 0h1v1h-1z"/></svg></g>

<g class="stack" id="1f1ea-1f1fa"><svg viewBox="0 0 36 36"><path fill="#039" d="M32 5H4C1.791 5 0 6.791 0 9v18c0 2.209 1.791 4 4 4h28c2.209 0 4-1.791 4-4V9c0-2.209-1.791-4-4-4z"/><path d="M18.539 9.705l.849-.617h-1.049l-.325-.998-.324.998h-1.049l.849.617-.325.998.849-.617.849.617zm0 17.333l.849-.617h-1.049l-.325-.998-.324.998h-1.049l.849.617-.325.998.849-.617.849.617zm-8.666-8.667l.849-.617h-1.05l-.324-.998-.325.998H7.974l.849.617-.324.998.849-.617.849.617zm1.107-4.285l.849-.617h-1.05l-.324-.998-.324.998h-1.05l.849.617-.324.998.849-.617.849.617zm0 8.619l.849-.617h-1.05l-.324-.998-.324.998h-1.05l.849.617-.324.998.849-.617.849.617zm3.226-11.839l.849-.617h-1.05l-.324-.998-.324.998h-1.05l.849.617-.324.998.849-.617.849.617zm0 15.067l.849-.617h-1.05l-.324-.998-.324.998h-1.05l.849.617-.324.998.849-.616.849.616zm11.921-7.562l-.849-.617h1.05l.324-.998.325.998h1.049l-.849.617.324.998-.849-.617-.849.617zm-1.107-4.285l-.849-.617h1.05l.324-.998.324.998h1.05l-.849.617.324.998-.849-.617-.849.617zm0 8.619l-.849-.617h1.05l.324-.998.324.998h1.05l-.849.617.324.998-.849-.617-.849.617zm-3.226-11.839l-.849-.617h1.05l.324-.998.324.998h1.05l-.849.617.324.998-.849-.617-.849.617zm0 15.067l-.849-.617h1.05l.324-.998.324.998h1.05l-.849.617.324.998-.849-.616-.849.616z" fill="#FC0"/></svg></g>

<g class="stack" id="1f1eb-1f1ee"><svg viewBox="0 0 36 36"><path fill="#EDECEC" d="M32 5H18v10h18V9c0-2.209-1.791-4-4-4z"/><path fill="#EEE" d="M11 5H4C1.791 5 0 6.791 0 9v6h11V5z"/><path fill="#EDECEC" d="M32 31H18V21h18v6c0 2.209-1.791 4-4 4zm-21 0H4c-2.209 0-4-1.791-4-4v-6h11v10z"/><path fill="#003580" d="M18 5h-7v10H0v6h11v10h7V21h18v-6H18z"/></svg></g>

<g class="stack" id="1f1eb-1f1f7"><svg viewBox="0 0 36 36"><path fill="#ED2939" d="M36 27c0 2.209-1.791 4-4 4h-8V5h8c2.209 0 4 1.791 4 4v18z"/><path fill="#002495" d="M4 5C1.791 5 0 6.791 0 9v18c0 2.209 1.791 4 4 4h8V5H4z"/><path fill="#EEE" d="M12 5h12v26H12z"/></svg></g>

<g class="stack" id="1f1ec-1f1e7"><svg viewBox="0 0 36 36"><path fill="#00247D" d="M0 9.059V13h5.628zM4.664 31H13v-5.837zM23 25.164V31h8.335zM0 23v3.941L5.63 23zM31.337 5H23v5.837zM36 26.942V23h-5.631zM36 13V9.059L30.371 13zM13 5H4.664L13 10.837z"/><path fill="#CF1B2B" d="M25.14 23l9.712 6.801c.471-.479.808-1.082.99-1.749L28.627 23H25.14zM13 23h-2.141l-9.711 6.8c.521.53 1.189.909 1.938 1.085L13 23.943V23zm10-10h2.141l9.711-6.8c-.521-.53-1.188-.909-1.937-1.085L23 12.057V13zm-12.141 0L1.148 6.2C.677 6.68.34 7.282.157 7.949L7.372 13h3.487z"/><path fill="#EEE" d="M36 21H21v10h2v-5.836L31.335 31H32c1.117 0 2.126-.461 2.852-1.199L25.14 23h3.487l7.215 5.052c.093-.337.158-.686.158-1.052v-.058L30.369 23H36v-2zM0 21v2h5.63L0 26.941V27c0 1.091.439 2.078 1.148 2.8l9.711-6.8H13v.943l-9.914 6.941c.294.07.598.116.914.116h.664L13 25.163V31h2V21H0zM36 9c0-1.091-.439-2.078-1.148-2.8L25.141 13H23v-.943l9.915-6.942C32.62 5.046 32.316 5 32 5h-.663L23 10.837V5h-2v10h15v-2h-5.629L36 9.059V9zM13 5v5.837L4.664 5H4c-1.118 0-2.126.461-2.852 1.2l9.711 6.8H7.372L.157 7.949C.065 8.286 0 8.634 0 9v.059L5.628 13H0v2h15V5h-2z"/><path fill="#CF1B2B" d="M21 15V5h-6v10H0v6h15v10h6V21h15v-6z"/></svg></g>

<g class="stack" id="1f1ec-1f1f7"><svg viewBox="0 0 36 36"><path fill="#0D5EB0" d="M4 31h28c.702 0 1.361-.182 1.935-.5H2.065c.574.318 1.233.5 1.935.5z"/><path fill="#EEE" d="M8.5 19.5H0V22h36v-2.5H14zM0 27c0 .17.014.336.035.5h35.931c.02-.164.034-.33.034-.5v-2H0v2zm14-13h22v2.5H14zm0-5.5V11h22V9c0-.17-.014-.336-.035-.5H14z"/><path fill="#0D5EB0" d="M14 11h22v3H14zM0 22h36v3H0zm2.065 8.5h31.87c1.092-.605 1.869-1.707 2.031-3H.035c.161 1.293.938 2.395 2.03 3zM0 14h5.5v5.5H0zm14 2.5V14H8.5v5.5H36v-3zm19.935-11C33.361 5.182 32.702 5 32 5H4c-.702 0-1.361.182-1.935.5C.973 6.105.196 7.207.034 8.5.014 8.664 0 8.83 0 9v2h5.5V5.5h3V11H14V8.5h21.965c-.161-1.293-.938-2.395-2.03-3z"/><path fill="#EEE" d="M8.5 11V5h-3v6H0v3h5.5v5.5h3V14H14v-3z"/></svg></g>

<g class="stack" id="1f1ed-1f1f7"><svg viewBox="0 0 36 36"><path fill="#EEE" d="M0 12.9h36v10.2H0z"/><path fill="#171796" d="M36 27c0 2.209-1.791 4-4 4H4c-2.209 0-4-1.791-4-4v-4h36v4z"/><path fill="#D52B1E" d="M32 5H4C1.791 5 0 6.791 0 9v4h36V9c0-2.209-1.791-4-4-4z"/><path fill="#D52B1E" d="M11.409 7.436V18.97c0 3.64 2.951 6.591 6.591 6.591s6.591-2.951 6.591-6.591V7.436H11.409z"/><path d="M14.25 18h2.5v2.5h-2.5zm2.5 2.5h2.5V23h-2.5zm0-5h2.5V18h-2.5zm2.5 2.5h2.5v2.5h-2.5zm0-5h2.5v2.5h-2.5zm2.5 2.5h2.341V18H21.75zm-7.5-2.5h2.5v2.5h-2.5zm7.5 10h.805c.626-.707 1.089-1.559 1.334-2.5H21.75V23zm-2.5 0v1.931c.929-.195 1.778-.605 2.5-1.171V23h-2.5zm-5 0v-2.5h-2.139c.245.941.707 1.793 1.334 2.5h.805zm-2.341-7.5h2.341V18h-2.341zM14.25 23v.76c.722.566 1.571.976 2.5 1.171V23h-2.5z" fill="#FFF"/><path fill="#171796" d="M24.757 8.141l-1.998.791-1.328-1.682-1.829 1.126L18 6.949l-1.603 1.428-1.826-1.128-1.331 1.684-1.995-.793-1.122 2.08 1.331 2.862.176-.082c.78-.363 1.603-.662 2.443-.888l.04-.011c.854-.227 1.702-.378 2.523-.451l.064-.006c.705-.06 1.896-.06 2.601 0l.058.005c.824.074 1.678.226 2.536.453l.033.009c.836.225 1.658.524 2.441.889l.175.082 1.331-2.861-1.118-2.08z"/><path fill="#0193DD" d="M16.638 8.681l.221 2.563c.33-.026.729-.051 1.141-.051.412 0 .811.025 1.141.051l.221-2.563L18 7.468l-1.362 1.213zm7.941-.053l-1.698.673-.668 2.489c.731.206 1.45.468 2.144.779l1.086-2.336-.864-1.605zm-13.157-.002l-.866 1.606 1.087 2.336c.69-.31 1.409-.572 2.144-.779l-.67-2.49-1.695-.673z"/></svg></g>

<g class="stack" id="1f1ed-1f1fa"><svg viewBox="0 0 36 36"><path fill="#EEE" d="M0 14h36v8H0z"/><path fill="#CD2A3E" d="M32 5H4C1.791 5 0 6.791 0 9v5h36V9c0-2.209-1.791-4-4-4z"/><path fill="#436F4D" d="M4 31h28c2.209 0 4-1.791 4-4v-5H0v5c0 2.209 1.791 4 4 4z"/></svg></g>

<g class="stack" id="1f1ee-1f1ea"><svg viewBox="0 0 36 36"><path fill="#169B62" d="M4 5C1.791 5 0 6.791 0 9v18c0 2.209 1.791 4 4 4h8V5H4z"/><path fill="#EEE" d="M12 5h12v26H12z"/><path fill="#FF883E" d="M32 5h-8v26h8c2.209 0 4-1.791 4-4V9c0-2.209-1.791-4-4-4z"/></svg></g>

<g class="stack" id="1f1ee-1f1f8"><svg viewBox="0 0 36 36"><path fill="#003897" d="M10 5H4C1.791 5 0 6.791 0 9v6h10V5zm22 0H16v10h20V9c0-2.209-1.791-4-4-4zM10 31H4c-2.209 0-4-1.791-4-4v-6h10v10zm22 0H16V21h20v6c0 2.209-1.791 4-4 4z"/><path fill="#D72828" d="M14.5 5h-2.944l-.025 11.5H0v3h11.525L11.5 31h3V19.5H36v-3H14.5z"/><path fill="#EEE" d="M14.5 31H16V21h20v-1.5H14.5zM16 5h-1.5v11.5H36V15H16zm-4.5 0H10v10H0v1.5h11.5zM0 19.5V21h10v10h1.5V19.5z"/></svg></g>

<g class="stack" id="1f1ee-1f1f9"><svg viewBox="0 0 36 36"><path fill="#CE2B37" d="M36 27c0 2.209-1.791 4-4 4h-8V5h8c2.209 0 4 1.791 4 4v18z"/><path fill="#009246" d="M4 5C1.791 5 0 6.791 0 9v18c0 2.209 1.791 4 4 4h8V5H4z"/><path fill="#EEE" d="M12 5h12v26H12z"/></svg></g>

<g class="stack" id="1f1ef-1f1f5"><svg viewBox="0 0 36 36"><path fill="#EEE" d="M36 27c0 2.209-1.791 4-4 4H4c-2.209 0-4-1.791-4-4V9c0-2.209 1.791-4 4-4h28c2.209 0 4 1.791 4 4v18z"/><circle fill="#ED1B2F" cx="18" cy="18" r="7"/></svg></g>

<g class="stack" id="1f1f0-1f1f7"><svg viewBox="0 0 36 36"><path fill="#EEE" d="M36 27c0 2.209-1.791 4-4 4H4c-2.209 0-4-1.791-4-4V9c0-2.209 1.791-4 4-4h28c2.209 0 4 1.791 4 4v18z"/><path fill="#C60C30" d="M21.441 13.085c-2.714-1.9-6.455-1.24-8.356 1.474-.95 1.356-.621 3.227.737 4.179 1.357.949 3.228.618 4.178-.738s2.822-1.687 4.178-.736c1.358.95 1.688 2.821.737 4.178 1.901-2.714 1.241-6.455-1.474-8.357z"/><path fill="#003478" d="M22.178 17.264c-1.356-.951-3.228-.62-4.178.736s-2.821 1.687-4.178.737c-1.358-.951-1.687-2.822-.737-4.179-1.901 2.716-1.241 6.456 1.473 8.356 2.715 1.901 6.455 1.242 8.356-1.474.951-1.355.621-3.226-.736-4.176z"/><path d="M24.334 25.572l1.928-2.298.766.643-1.928 2.298zm2.57-3.063l1.928-2.297.766.643-1.928 2.297zm-1.038 4.351l1.928-2.297.766.643-1.928 2.297zm2.572-3.066l1.93-2.297.766.644-1.93 2.296zm-1.041 4.352l1.93-2.297.765.643-1.929 2.297zm2.571-3.065l1.927-2.3.767.643-1.927 2.3zm.004-14.162l.766-.643 1.93 2.299-.767.643zM27.4 7.853l.766-.643 1.928 2.299-.767.642zm-1.533 1.288l.766-.643 4.5 5.362-.766.643zm-1.532 1.284l.767-.643 1.927 2.298-.766.642zm2.57 3.065l.766-.643 1.93 2.297-.765.643zM6.4 20.854l.766-.643 4.499 5.363-.767.643zM4.87 22.14l.765-.642 1.929 2.298-.767.643zm2.567 3.066l.766-.643 1.93 2.297-.766.643zm-4.101-1.781l.766-.643 4.5 5.362-.767.643zm-.001-10.852l4.498-5.362.767.642-4.5 5.363zm1.532 1.287l4.5-5.363.766.643-4.5 5.362zM6.4 15.145l4.5-5.363.766.643-4.5 5.363z" fill="#292F33"/></svg></g>

<g class="stack" id="1f1f1-1f1f9"><svg viewBox="0 0 36 36"><path fill="#006A44" d="M0 14h36v8H0z"/><path fill="#FDB913" d="M32 5H4C1.791 5 0 6.791 0 9v5h36V9c0-2.209-1.791-4-4-4z"/><path fill="#C1272D" d="M4 31h28c2.209 0 4-1.791 4-4v-5H0v5c0 2.209 1.791 4 4 4z"/></svg></g>

<g class="stack" id="1f1f1-1f1fa"><svg viewBox="0 0 36 36"><path fill="#EEE" d="M0 14h36v8H0z"/><path fill="#ED2939" d="M32 5H4C1.791 5 0 6.791 0 9v5h36V9c0-2.209-1.791-4-4-4z"/><path fill="#00A1DE" d="M4 31h28c2.209 0 4-1.791 4-4v-5H0v5c0 2.209 1.791 4 4 4z"/></svg></g>

<g class="stack" id="1f1f1-1f1fb"><svg viewBox="0 0 36 36"><path fill="#9E3039" d="M32 5H4C1.791 5 0 6.791 0 9v6h36V9c0-2.209-1.791-4-4-4zm0 26H4c-2.209 0-4-1.791-4-4v-6h36v6c0 2.209-1.791 4-4 4z"/><path fill="#EEE" d="M0 15h36v6H0z"/></svg></g>

<g class="stack" id="1f1f2-1f1f9"><svg viewBox="0 0 36 36"><path fill="#CF142B" d="M32 5H18v26h14c2.209 0 4-1.791 4-4V9c0-2.209-1.791-4-4-4z"/><path fill="#EEE" d="M4 5C1.791 5 0 6.791 0 9v18c0 2.209 1.791 4 4 4h14V5H4z"/><path fill="#CF142B" d="M1.654 9.656h8.691v2.688H1.654z"/><path fill="#CF142B" d="M4.656 6.654h2.688v8.691H4.656z"/><g fill="#CF142B"><circle cx="4.71" cy="12.271" r=".921"/><circle cx="7.355" cy="12.271" r=".921"/><circle cx="4.71" cy="9.824" r=".921"/><circle cx="7.355" cy="9.824" r=".921"/></g><g fill="#99AAB5"><circle cx="4.708" cy="12.271" r=".708"/><circle cx="7.355" cy="12.271" r=".708"/><circle cx="4.708" cy="9.824" r=".708"/><circle cx="7.355" cy="9.824" r=".708"/></g><circle fill="#CCD6DD" cx="6.032" cy="11.032" r="1.817"/><path fill="#CCD6DD" d="M5 7h2v8H5z"/><path fill="#CCD6DD" d="M2 10h8v2H2z"/><circle fill="#B2C0C9" cx="6.032" cy="11.083" r="1.204"/><path fill="#99AAB5" d="M6.647 11.023c.015-.017.032-.032.048-.047l.009-.007c.042.021.083.047.123.072.08.049.334-.066.219-.137-.099-.061-.198-.132-.32-.111-.091.016-.169.063-.238.122-.008-.062-.015-.123-.029-.184.019-.02.03-.042.025-.069-.011-.058.021-.122.041-.175.01-.026-.004-.044-.025-.055.009-.012.016-.024.024-.037.035.012.071.023.108.031.063.013.146-.013.195-.052.046-.036.031-.073-.022-.083-.094-.019-.181-.067-.269-.105-.058-.025-.143.001-.194.029-.033.018-.084.066-.031.092-.006.006-.013.22-.016.227-.044.095-.118-.534-.169.466h-.018c-.017 0-.141-.345-.134-.414.074-.015.026-.264.026-.315v-.029c0-.015.113-.025.105-.033.03-.019.117-.045.09-.067-.042-.035-.1-.011-.146.007-.014-.007-.014-.012-.028-.014-.01-.002-.013 0-.023 0 .054-.022.1-.058.086-.099-.008-.025-.014-.045 0-.07.067-.116-.21-.09-.257-.009-.029.051-.035.097-.017.153.012.038.061.051.113.046-.028.015-.053.037-.068.065l-.003.009c-.042 0-.09.013-.119.025-.161.069-.331.119-.482.209-.025.015-.094.063-.031.083.038.012.087.006.131-.007.002.007.002.013.006.019.039.051.096.098.154.126.061.03.142.013.196-.023.036-.023.075-.081.03-.112.017-.025.043-.043.068-.061.003.064.011.127.027.184.004.016.013.028.023.038-.033.006-.065.019-.09.034-.033.02-.072.065-.042.096-.07.013-.139.031-.205.062-.025.011-.08.043-.085.078l-.096.012c-.051.008-.135.032-.153.09-.024.001-.052.006-.072.011-.059.008-.17.034-.175.086-.008.092.038.167.078.245-.037.036-.063.078-.074.132-.024.119.256.077.277-.029.003-.016.005-.032.019-.042.035-.025.07-.074.039-.108.012-.01.02-.018.016-.025-.035-.068-.072-.134-.077-.21.015.006.031.009.047.01.019.102.097.192.171.26.018.016.051.018.087.013-.015.012-.028.025-.034.042-.034.085-.048.173-.059.263-.004.037.024.073.06.082.116.027.209.082.303.154.097.074.339-.062.213-.159-.088-.067-.183-.123-.288-.159.007-.051.016-.102.035-.15.007-.018.009-.034.007-.047.023-.009.045-.019.065-.031.178-.108.396-.131.587-.218-.008.028.009.055.049.064.082.019.231.018.258.112.027.095-.005.209.056.293.056.078.323-.016.256-.109-.023-.032-.019-.095-.021-.133-.003-.059-.006-.121-.034-.175-.057-.108-.242-.116-.346-.141-.036-.008-.076-.055-.114-.043.003-.007-.003-.071-.021-.071h-.006c.001 0 .001.048.002.047.061-.004.12.023.159-.024z"/></svg></g>

<g class="stack" id="1f1f3-1f1f1"><svg viewBox="0 0 36 36"><path fill="#EEE" d="M0 14h36v8H0z"/><path fill="#AE1F28" d="M32 5H4C1.791 5 0 6.791 0 9v5h36V9c0-2.209-1.791-4-4-4z"/><path fill="#20478B" d="M4 31h28c2.209 0 4-1.791 4-4v-5H0v5c0 2.209 1.791 4 4 4z"/></svg></g>

<g class="stack" id="1f1f3-1f1f4"><svg viewBox="0 0 36 36"><path fill="#EF2B2D" d="M10 5H4C1.791 5 0 6.791 0 9v6h10V5zm22 0H16v10h20V9c0-2.209-1.791-4-4-4zM10 31H4c-2.209 0-4-1.791-4-4v-6h10v10zm22 0H16V21h20v6c0 2.209-1.791 4-4 4z"/><path fill="#002868" d="M14.5 5h-2.944l-.025 11.5H0v3h11.525L11.5 31h3V19.5H36v-3H14.5z"/><path fill="#EEE" d="M14.5 31H16V21h20v-1.5H14.5zM16 5h-1.5v11.5H36V15H16zm-4.5 0H10v10H0v1.5h11.5zM0 19.5V21h10v10h1.5V19.5z"/></svg></g>

<g class="stack" id="1f1f5-1f1f1"><svg viewBox="0 0 36 36"><path fill="#EEE" d="M32 5H4C1.791 5 0 6.791 0 9v9h36V9c0-2.209-1.791-4-4-4z"/><path fill="#DC143C" d="M0 27c0 2.209 1.791 4 4 4h28c2.209 0 4-1.791 4-4v-9H0v9z"/></svg></g>

<g class="stack" id="1f1f5-1f1f9"><svg viewBox="0 0 36 36"><path fill="#060" d="M36 27c0 2.209-1.791 4-4 4H4c-2.209 0-4-1.791-4-4V9c0-2.209 1.791-4 4-4h28c2.209 0 4 1.791 4 4v18z"/><path fill="#D52B1E" d="M32 5H15v26h17c2.209 0 4-1.791 4-4V9c0-2.209-1.791-4-4-4z"/><path fill="#FFCC4D" d="M15 10c-4.419 0-8 3.581-8 8 0 4.418 3.581 8 8 8 4.418 0 8-3.582 8-8 0-4.419-3.582-8-8-8zm-6.113 4.594l1.602 1.602-2.46 1.23c.083-1.022.383-1.981.858-2.832zm-.858 3.979l4.4 2.207-2.706 1.804.014.021c-.96-1.097-1.583-2.492-1.708-4.032zM14 24.92c-.937-.134-1.813-.453-2.592-.92H14v.92zM14 23h-3.099L14 20.934V23zm0-3.268l-.607.405L9.118 18l2.116-1.058L14 19.707v.025zm0-1.439l-3.543-3.543 3.543.59v2.953zm0-3.992l-4.432-.713c1.084-1.333 2.65-2.253 4.432-2.508v3.221zm7.113.293c.475.851.775 1.81.858 2.833l-2.46-1.23 1.602-1.603zM16 11.08c1.782.256 3.348 1.175 4.432 2.508L16 14.301V11.08zm0 4.26l3.543-.591L16 18.293V15.34zm0 4.367l2.765-2.765L20.882 18l-4.274 2.137-.608-.405v-.025zm0 5.213V24h2.592c-.779.467-1.655.786-2.592.92zM16 23v-2.066L19.099 23H16zm4.264-.395l.014-.021-2.706-1.804 4.4-2.207c-.126 1.54-.749 2.935-1.708 4.032z"/><path fill="#D52B1E" d="M11 13v7c0 2.209 1.791 4 4 4s4-1.791 4-4v-7h-8z"/><path fill="#FFF" d="M12 14v6c0 1.656 1.343 3 3 3s3-1.344 3-3v-6h-6z"/><path fill="#829ACD" d="M13 17h4v2h-4z"/><path fill="#829ACD" d="M14 16h2v4h-2z"/><path fill="#039" d="M12 17h1v2h-1zm2 0h2v2h-2zm3 0h1v2h-1zm-3 3h2v2h-2zm0-6h2v2h-2z"/></svg></g>

<g class="stack" id="1f1f7-1f1f4"><svg viewBox="0 0 36 36"><path fill="#002B7F" d="M4 5C1.791 5 0 6.791 0 9v18c0 2.209 1.791 4 4 4h8V5H4z"/><path fill="#FCD116" d="M12 5h12v26H12z"/><path fill="#CE1126" d="M32 5h-8v26h8c2.209 0 4-1.791 4-4V9c0-2.209-1.791-4-4-4z"/></svg></g>

<g class="stack" id="1f1f7-1f1fa"><svg viewBox="0 0 36 36"><path fill="#CE2028" d="M36 27c0 2.209-1.791 4-4 4H4c-2.209 0-4-1.791-4-4v-4h36v4z"/><path fill="#22408C" d="M0 13h36v10H0z"/><path fill="#EEE" d="M32 5H4C1.791 5 0 6.791 0 9v4h36V9c0-2.209-1.791-4-4-4z"/></svg></g>

<g class="stack" id="1f1f8-1f1ea"><svg viewBox="0 0 36 36"><path fill="#006AA7" d="M15.5 31H32c2.209 0 4-1.791 4-4.5v-6H15.5V31zM32 5H15.5v10.5H36V9c0-2.209-1.791-4-4-4zM10.5 5H4C1.792 5 .002 6.789 0 8.997V15.5h10.5V5zM0 20.5v6.004C.002 29.211 1.792 31 4 31h6.5V20.5H0z"/><path fill="#FECC00" d="M15.5 5h-5v10.5H0v5h10.5V31h5V20.5H36v-5H15.5z"/></svg></g>

<g class="stack" id="1f1f8-1f1ee"><svg viewBox="0 0 36 36"><path fill="#ED1C23" d="M36 27v-4H0v4c0 2.209 1.791 4 4 4h28c2.209 0 4-1.791 4-4z"/><path fill="#EEE" d="M36 23H0V9c0-2.209 1.791-4 4-4h28c2.209 0 4 1.791 4 4v14z"/><path fill="#005DA4" d="M0 13h36v10H0z"/><path fill="#ED1C23" d="M11.125 7.917c-2.25 0-3.833.833-3.833.833s.146 2 .333 5.083 3.5 4.167 3.5 4.167 3.312-1.083 3.5-4.167.333-5.083.333-5.083-1.583-.833-3.833-.833z"/><path fill="#004A77" d="M14.592 8.586c-.588-.242-1.849-.67-3.467-.67s-2.879.428-3.467.67c.011.21.137 2.503.299 5.164.17 2.791 3.167 3.771 3.167 3.771s2.998-.98 3.167-3.771c.164-2.66.29-4.954.301-5.164z"/><path fill="#FFF" d="M12.104 15.92c-.354 0-.521.211-1.042.211s-.604-.211-.958-.211c-.268 0-.434.12-.639.179.812.61 1.66.86 1.66.86.711-.118 1.27-.466 1.693-.859-.269-.059-.445-.18-.714-.18zm-1.958-1.383c.333 0 .625.26.979.26s.604-.26.979-.26c.321 0 .743.419 1.36.179.278-.469.411-.841.411-.841l-1.25-1.792-.625.759-.875-1.675-.833 1.675-.604-.799s-.542.643-1.438 1.851c.107.286.251.534.407.766.709.35 1.187-.123 1.489-.123zm2.958.755c-.458 0-.646-.26-1-.26s-.521.26-1.042.26-.604-.26-.958-.26-.53.26-.854.26c-.117 0-.248-.036-.373-.085.127.168.252.341.39.484.386-.035.673-.273.879-.273.333 0 .625.278.979.278s.604-.278.979-.278c.231 0 .516.235.887.271.109-.142.205-.283.293-.423-.058.009-.113.026-.18.026z"/><path fill="#FD0" d="M10.318 8.807l.217.233-.309-.072-.094.304-.092-.304-.311.072.218-.233-.218-.233.311.072.092-.304.094.304.309-.072zm2.094 0l.217.233-.31-.072-.093.304-.093-.304-.31.072.217-.233-.217-.233.31.072.093-.304.093.304.31-.072zm-1.084 1.396l.216.233-.309-.072-.093.303-.093-.303-.31.072.217-.233-.217-.233.31.072.093-.304.093.304.309-.072z"/></svg></g>

<g class="stack" id="1f1f8-1f1f0"><svg viewBox="0 0 36 36"><path fill="#EE2024" d="M36 27v-4H0v4c0 2.209 1.791 4 4 4h28c2.209 0 4-1.791 4-4z"/><path fill="#EEE" d="M36 23H0V9c0-2.209 1.791-4 4-4h28c2.209 0 4 1.791 4 4v14z"/><path fill="#0A4EA2" d="M0 13h36v10H0z"/><path fill="#FFF" d="M11.837 25.09c-1.129-.646-3.638-2.278-4.555-4.488-.925-2.227-.719-5.423-.481-9.124l.06-.936h11.963l.061.936c.238 3.7.444 6.895-.481 9.123-.918 2.211-3.426 3.844-4.556 4.489l-1.004.572-1.007-.572z"/><path fill="#EE2024" d="M17.886 11.542H7.798c-.238 3.707-.422 6.68.407 8.676 1.021 2.46 4.516 4.22 4.631 4.276v.006l.005-.003.005.003v-.006c.115-.057 3.61-1.816 4.632-4.276.83-1.996.647-4.97.408-8.676z"/><path fill="#FFF" d="M15.865 16.109s-1.401.133-2.632.165c-.009-.269-.014-.506-.014-.681 0-.188.007-.394.017-.605.973.06 1.645.246 1.645.246.247 0 .447-.2.447-.447v-.606c0-.247-.2-.447-.447-.447 0 0-.739.126-1.568.179.071-.782.156-1.435.156-1.435 0-.247-.2-.447-.447-.447h-.605c-.247 0-.447.2-.447.447 0 0 .092.666.17 1.443-.852-.047-1.583-.187-1.583-.187-.247 0-.447.2-.447.447v.606c0 .247.2.447.447.447 0 0 .639-.206 1.67-.255.014.23.024.453.024.646 0 .161-.006.388-.016.649-1.242-.033-2.693-.164-2.693-.164-.247 0-.447.2-.447.447v.606c0 .247.2.447.447.447 0 0 1.319-.108 2.635-.128-.083 1.531-.207 3.322-.207 3.322 0 .247.2.447.447.447h.605c.247 0 .447-.2.447-.447 0 0-.111-1.773-.185-3.317 1.272.03 2.581.123 2.581.123.247 0 .447-.2.447-.447v-.606c0-.247-.2-.448-.447-.448z"/><path fill="#0A4EA2" d="M17.079 20.965c-.508-1.086-1.905-1.393-2.568-.066-.438-1.594-1.681-1.594-1.681-1.594s-1.244 0-1.681 1.594c-.658-1.316-2.04-1.024-2.558.041 1.314 2.074 4.143 3.504 4.247 3.555v.005l.005-.003.005.003v-.006c.103-.051 2.91-1.469 4.231-3.529z"/></svg></g>

<g class="stack" id="1f1f9-1f1f7"><svg viewBox="0 0 36 36"><path fill="#E30917" d="M36 27c0 2.209-1.791 4-4 4H4c-2.209 0-4-1.791-4-4V9c0-2.209 1.791-4 4-4h28c2.209 0 4 1.791 4 4v18z"/><path fill="#EEE" d="M16 24c-3.314 0-6-2.685-6-6 0-3.314 2.686-6 6-6 1.31 0 2.52.425 3.507 1.138-1.348-1.524-3.312-2.491-5.507-2.491-4.061 0-7.353 3.292-7.353 7.353 0 4.062 3.292 7.354 7.353 7.354 2.195 0 4.16-.967 5.507-2.492C18.521 23.575 17.312 24 16 24zm3.913-5.77l2.44.562.22 2.493 1.288-2.146 2.44.561-1.644-1.888 1.287-2.147-2.303.98-1.644-1.889.22 2.494z"/></svg></g>

<g class="stack" id="1f1fa-1f1e6"><svg viewBox="0 0 36 36"><path fill="#005BBB" d="M32 5H4C1.791 5 0 6.791 0 9v9h36V9c0-2.209-1.791-4-4-4z"/><path fill="#FFD500" d="M36 27c0 2.209-1.791 4-4 4H4c-2.209 0-4-1.791-4-4v-9h36v9z"/></svg></g>

<g class="stack" id="1f1fa-1f1f8"><svg viewBox="0 0 36 36"><path fill="#B22334" d="M35.445 7C34.752 5.809 33.477 5 32 5H18v2h17.445zM0 25h36v2H0zm18-8h18v2H18zm0-4h18v2H18zM0 21h36v2H0zm4 10h28c1.477 0 2.752-.809 3.445-2H.555c.693 1.191 1.968 2 3.445 2zM18 9h18v2H18z"/><path fill="#EEE" d="M.068 27.679c.017.093.036.186.059.277.026.101.058.198.092.296.089.259.197.509.333.743L.555 29h34.89l.002-.004c.135-.233.243-.483.332-.741.034-.099.067-.198.093-.301.023-.09.042-.182.059-.275.041-.22.069-.446.069-.679H0c0 .233.028.458.068.679zM0 23h36v2H0zm0-4v2h36v-2H18zm18-4h18v2H18zm0-4h18v2H18zM0 9c0-.233.03-.457.068-.679C.028 8.542 0 8.767 0 9zm.555-2l-.003.005L.555 7zM.128 8.044c.025-.102.06-.199.092-.297-.034.098-.066.196-.092.297zM18 9h18c0-.233-.028-.459-.069-.68-.017-.092-.035-.184-.059-.274-.027-.103-.059-.203-.094-.302-.089-.258-.197-.507-.332-.74.001-.001 0-.003-.001-.004H18v2z"/><path fill="#3C3B6E" d="M18 5H4C1.791 5 0 6.791 0 9v10h18V5z"/><path fill="#FFF" d="M2.001 7.726l.618.449-.236.725L3 8.452l.618.448-.236-.725L4 7.726h-.764L3 7l-.235.726zm2 2l.618.449-.236.725.617-.448.618.448-.236-.725L6 9.726h-.764L5 9l-.235.726zm4 0l.618.449-.236.725.617-.448.618.448-.236-.725.618-.449h-.764L9 9l-.235.726zm4 0l.618.449-.236.725.617-.448.618.448-.236-.725.618-.449h-.764L13 9l-.235.726zm-8 4l.618.449-.236.725.617-.448.618.448-.236-.725.618-.449h-.764L5 13l-.235.726zm4 0l.618.449-.236.725.617-.448.618.448-.236-.725.618-.449h-.764L9 13l-.235.726zm4 0l.618.449-.236.725.617-.448.618.448-.236-.725.618-.449h-.764L13 13l-.235.726zm-6-6l.618.449-.236.725L7 8.452l.618.448-.236-.725L8 7.726h-.764L7 7l-.235.726zm4 0l.618.449-.236.725.617-.448.618.448-.236-.725.618-.449h-.764L11 7l-.235.726zm4 0l.618.449-.236.725.617-.448.618.448-.236-.725.618-.449h-.764L15 7l-.235.726zm-12 4l.618.449-.236.725.617-.448.618.448-.236-.725.618-.449h-.764L3 11l-.235.726zM6.383 12.9L7 12.452l.618.448-.236-.725.618-.449h-.764L7 11l-.235.726h-.764l.618.449zm3.618-1.174l.618.449-.236.725.617-.448.618.448-.236-.725.618-.449h-.764L11 11l-.235.726zm4 0l.618.449-.236.725.617-.448.618.448-.236-.725.618-.449h-.764L15 11l-.235.726zm-12 4l.618.449-.236.725.617-.448.618.448-.236-.725.618-.449h-.764L3 15l-.235.726zM6.383 16.9L7 16.452l.618.448-.236-.725.618-.449h-.764L7 15l-.235.726h-.764l.618.449zm3.618-1.174l.618.449-.236.725.617-.448.618.448-.236-.725.618-.449h-.764L11 15l-.235.726zm4 0l.618.449-.236.725.617-.448.618.448-.236-.725.618-.449h-.764L15 15l-.235.726z"/></svg></g>

<g class="stack" id="1f3c1"><svg viewBox="0 0 36 36"><path fill="#8899A6" d="M5 36c-1.104 0-2-.896-2-2V3c0-1.104.896-2 2-2s2 .896 2 2v31c0 1.104-.896 2-2 2z"/><path fill="#AAB8C2" d="M5 1c-1.105 0-2 .895-2 2v31c0 .276.224.5.5.5s.5-.224.5-.5V4.414C4 3.633 4.633 3 5.414 3H7c0-1.105-.895-2-2-2z"/><path fill="#8899A6" d="M5 36c-1.104 0-2-.896-2-2V3c0-1.104.896-2 2-2s2 .896 2 2v31c0 1.104-.896 2-2 2z"/><path fill="#AAB8C2" d="M5 1c-1.105 0-2 .895-2 2v31c0 .276.224.5.5.5s.5-.224.5-.5V4.414C4 3.633 4.633 3 5.414 3H7c0-1.105-.895-2-2-2z"/><path fill="#31373D" d="M32.396 3.082C30.732 2.363 28.959 2.006 27 1.974l-1.375.38L21 3l-1-.128c-.237.051-.476.099-.711.15-2.169.469-4.23.894-6.289.982L12 5 6 4v19h6l1 2h.077c2.244-.096 4.472-.556 6.633-1.022l.29-.061.646-.645 5.438-.708.916.41c1.68.032 3.193.335 4.604.944.309.133.665.103.945-.082.282-.186.451-.499.451-.836V4c0-.399-.237-.76-.604-.918z"/><path fill="#E1E8ED" d="M13 4.004c-.239.01-.478.035-.717.035-1.797 0-3.396-.313-4.887-.957-.308-.135-.665-.103-.945.083C6.169 3.349 6 3.664 6 4v6s3.292 1 7 1V4.004zM20 10s-3.75 1-7 1v7c3 0 7-1 7-1v-7zm7-1V1.974c-.096-.002-.186-.013-.283-.013-2.267 0-4.521.442-6.717.911V10s2.167-1 7-1zM6.604 23.918c1.5.648 3.09.993 4.82 1.082H13v-7c-4.167 0-7-1-7-1v6c0 .399.237.76.604.918zM20 17v6.916c2.313-.499 4.511-.955 6.717-.955.097 0 .187.011.283.013V16c-4.5 0-7 1-7 1zm7-1c2.676 0 4.82.56 6 .954V9.908C31.853 9.527 29.769 9 27 9v7z"/></svg></g>

<g class="stack" id="1f3f3-fe0f-200d-1f308"><svg viewBox="0 0 36 36"><path fill="#880082" d="M0 27c0 2.209 1.791 4 4 4h28c2.209 0 4-1.791 4-4v-.5H0v.5z"/><path fill="#3558A0" d="M0 22.07h36v4.6H0z"/><path fill="#138F3E" d="M0 17.83h36v4.5H0z"/><path fill="#FAD220" d="M0 13.5h36V18H0z"/><path fill="#FF5000" d="M0 9.17h36v4.5H0z"/><path fill="#FF000E" d="M32 5H4C1.791 5 0 6.791 0 9v.33h36V9c0-2.209-1.791-4-4-4z"/></svg></g>

<g class="stack" id="1f3f4-200d-2620-fe0f"><svg viewBox="0 0 36 36"><path fill="#31373D" d="M32 5H4C1.791 5 0 6.791 0 9v18c0 2.209 1.791 4 4 4h28c2.209 0 4-1.791 4-4V9c0-2.209-1.791-4-4-4z"/><circle fill="#31373D" cx="15.5" cy="12.5" r="1.5"/><circle fill="#31373D" cx="20.5" cy="12.5" r="1.5"/><ellipse fill="#292F33" cx="18" cy="15.5" rx="1" ry=".5"/><path fill="#E6E7E8" d="M29.021 24.883c-.52-.189-1.093.078-1.282.598L20.923 23l6.816-2.48c.189.52.762.786 1.281.598.52-.19.787-.762.598-1.281-.188-.519-.762-.787-1.281-.599.519-.189.787-.762.598-1.281-.19-.52-.762-.787-1.281-.598-.519.188-.787.763-.598 1.282L18 21.937l-9.056-3.296c.189-.52-.078-1.094-.598-1.282-.52-.19-1.092.078-1.281.598-.189.519.078 1.093.598 1.281-.52-.189-1.093.079-1.281.599-.189.52.078 1.092.598 1.281.52.188 1.092-.078 1.281-.598L15.077 23l-6.815 2.48c-.189-.52-.763-.787-1.282-.598-.519.189-.786.762-.598 1.281.189.519.763.787 1.282.598-.52.19-.787.763-.598 1.282.188.52.763.786 1.281.598.519-.189.787-.763.598-1.282L18 24.065l9.055 3.295c-.19.52.079 1.093.598 1.282.519.188 1.093-.078 1.281-.598.189-.519-.078-1.093-.598-1.282.52.19 1.093-.078 1.282-.598.189-.519-.079-1.093-.597-1.281z"/><path fill="#E6E7E8" d="M18 7c-4 0-6 3.239-6 6 0 1.394.827 2.399 2 3.054V18c0 .553.448 1 1 1s1-.447 1-1v-1.216c.33.072.665.127 1 .162V18c0 .553.448 1 1 1s1-.447 1-1v-1.054c.335-.036.67-.09 1-.162V18c0 .553.447 1 1 1s1-.447 1-1v-1.946c1.173-.654 2-1.659 2-3.054 0-2.761-2-6-6-6zm-2.5 7c-.829 0-1.5 0-1.5-1.5 0-.829.671-1.5 1.5-1.5 1.5 0 1.5.671 1.5 1.5s-.671 1.5-1.5 1.5zm2.5 2c-.552 0-1-.224-1-.5s.448-.5 1-.5 1 .224 1 .5-.448.5-1 .5zm2.5-2c-.828 0-1.5-.671-1.5-1.5s0-1.5 1.5-1.5c.828 0 1.5.671 1.5 1.5 0 1.5-.672 1.5-1.5 1.5z"/></svg></g>

<g class="stack" id="1f6a9"><svg viewBox="0 0 36 36"><path fill="#66757F" d="M13 34s0 2-2 2-2-2-2-2V2s0-2 2-2 2 2 2 2v32z"/><path fill="#DD2E44" d="M11 4c0-2.2 1.636-3.25 3.636-2.333l16.727 7.667c2 .917 2 2.417 0 3.333l-16.727 7.667C12.636 21.25 11 20.2 11 18V4z"/></svg></g>

<g class="stack" id="1f38c"><svg viewBox="0 0 36 36"><path fill="#E8EAEB" d="M33.73 18.187c-.491 1.981-1.376 2.514-3.356 2.022L18.72 17.322l3.332-13.448 11.655 2.888c1.979.491 2.515 1.376 2.023 3.356l-2 8.069z"/><path fill="#66757F" d="M14.1 34.383c-.073 0-.147-.009-.221-.027-.495-.121-.798-.622-.676-1.117L20.811 2.32c.122-.496.622-.798 1.117-.676s.798.623.676 1.118L14.996 33.68c-.103.421-.481.703-.896.703z"/><path fill="#BE1931" d="M30.248 13.042c-.43 1.733-2.183 2.79-3.915 2.36-1.733-.429-2.791-2.182-2.361-3.916.43-1.733 2.184-2.79 3.916-2.36 1.732.43 2.788 2.183 2.36 3.916z"/><path fill="#E8EAEB" d="M2.27 18.187c.491 1.981 1.375 2.514 3.356 2.022l11.655-2.887-3.333-13.448L2.293 6.762C.313 7.253-.221 8.138.27 10.118l2 8.069z"/><path fill="#66757F" d="M21.9 34.383c-.415 0-.792-.282-.896-.703L13.396 2.762c-.122-.495.181-.996.676-1.118.499-.121.996.181 1.118.676l7.607 30.918c.122.495-.181.996-.676 1.117-.074.019-.148.028-.221.028z"/><path fill="#BE1931" d="M5.752 13.042c.43 1.733 2.183 2.79 3.916 2.36 1.733-.429 2.79-2.182 2.361-3.916-.429-1.733-2.183-2.79-3.915-2.36-1.734.43-2.791 2.183-2.362 3.916z"/></svg></g>
</svg>