<svg xmlns="http://www.w3.org/2000/svg"><defs><style>.stack{display:none;}.stack:target{display:inline;}</style></defs>

<g class="stack" id="1f3b5"><svg viewBox="0 0 36 36"><path fill="#5DADEC" d="M34.209.206L11.791 2.793C10.806 2.907 10 3.811 10 4.803v18.782C9.09 23.214 8.075 23 7 23c-3.865 0-7 2.685-7 6 0 3.314 3.135 6 7 6s7-2.686 7-6V10.539l18-2.077v13.124c-.91-.372-1.925-.586-3-.586-3.865 0-7 2.685-7 6 0 3.314 3.135 6 7 6s7-2.686 7-6V1.803c0-.992-.806-1.71-1.791-1.597z"/></svg></g>

<g class="stack" id="1f3b6"><svg viewBox="0 0 36 36"><path fill="#5DADEC" d="M14.182.168L7.818 1.469C7.368 1.561 7 2.012 7 2.471v15.857C6.387 18.12 5.712 18 5 18c-2.762 0-5 1.741-5 3.889 0 2.147 2.238 3.889 5 3.889 2.713 0 4.908-1.683 4.985-3.777H10V6.477l4.182-.855c.45-.092.818-.543.818-1.002V.835c0-.459-.368-.76-.818-.667zm21 4l-6.363 1.301c-.451.092-.819.543-.819 1.002v15.857c-.613-.209-1.288-.328-2-.328-2.762 0-5 1.741-5 3.889 0 2.147 2.238 3.889 5 3.889 2.713 0 4.908-1.683 4.985-3.777H31V10.477l4.182-.855c.45-.092.818-.543.818-1.002V4.835c0-.459-.368-.76-.818-.667z"/><path fill="#5DADEC" d="M23.182 10.167l-6.363 1.301c-.451.093-.819.544-.819 1.003v15.857c-.613-.209-1.288-.328-2-.328-2.762 0-5 1.741-5 3.889s2.238 3.889 5 3.889c2.713 0 4.908-1.683 4.985-3.777H19V16.477l4.182-.855c.45-.092.818-.543.818-1.002v-3.785c0-.459-.368-.76-.818-.668z"/></svg></g>

<g class="stack" id="1f4a2"><svg viewBox="0 0 36 36"><path fill="#BE1931" d="M2.638 23.821l-1.625-3.1 1.55-.812c2.393-1.255 4.982-2.778 5.413-4.982.335-1.714-.611-3.903-2.812-6.506l-1.13-1.336 2.672-2.26 1.13 1.336c2.961 3.502 4.131 6.589 3.574 9.437-.788 4.037-4.975 6.231-7.223 7.41l-1.549.813zM20.93 34.947l-.812-1.55c-1.255-2.394-2.778-4.982-4.982-5.413-1.713-.336-3.903.611-6.506 2.812l-1.336 1.13-2.26-2.672 1.336-1.13c3.501-2.962 6.585-4.134 9.437-3.574 4.037.788 6.231 4.974 7.41 7.223l.812 1.55-3.099 1.624zm8.531-4.022l-1.13-1.336C25.369 26.087 24.2 23 24.757 20.151c.788-4.036 4.974-6.23 7.223-7.409l1.55-.812 1.625 3.1-1.55.812c-2.394 1.255-4.982 2.778-5.413 4.981-.335 1.715.611 3.903 2.811 6.506l1.13 1.336-2.672 2.26zm-7.708-19.588c-.471 0-.934-.045-1.392-.134-4.037-.788-6.231-4.975-7.41-7.223l-.812-1.55 3.1-1.625.813 1.55c1.255 2.393 2.778 4.982 4.981 5.413 1.711.334 3.902-.61 6.506-2.812l1.336-1.13 2.26 2.672-1.336 1.13c-2.941 2.486-5.588 3.709-8.046 3.709z"/></svg></g>

<g class="stack" id="1f4a4"><svg viewBox="0 0 36 36"><path fill="#4289C1" d="M33 19c1.187 0 2 .786 2 2 0 1.073-.983 2-2 2H22c-1.496 0-2-.813-2-2 0-.565.632-1.492 1-2l8-12h-7c-1.128 0-2-.843-2-2 0-1.073.929-2 2-2h11c1.639 0 2 1.012 2 2 0 .621-.635 1.519-1 2l-8 12h7zm-16 5c.633 0 1 .353 1 1 0 .573-.458 1-1 1h-6c-.798 0-1-.367-1-1 0-.301.337-.729.533-1L15 18h-4c-.602 0-1-.384-1-1 0-.573.428-1 1-1h6c.874 0 1 .473 1 1 0 .331-.338.877-.533 1.133L13 24h4zm-9 7c.633 0 1 .353 1 1 0 .573-.458 1-1 1H2c-.798 0-1-.367-1-1 0-.301.337-.729.533-1L6 25H2c-.602 0-1-.384-1-1 0-.572.428-1 1-1h6c.874 0 1 .473 1 1 0 .331-.338.877-.533 1.133L4 31h4z"/></svg></g>

<g class="stack" id="1f4a5"><svg viewBox="0 0 36 36"><path fill="#BB1A34" d="M22 0l-4 8.028-5-5.018v7.024L3 8.028l8 8.028-11 6.02h12L6 34.118l12-8.028 11 10.035-3-14.049h10l-8-6.021 8-9.031-12 3.01L22 0z"/><path fill="#FCAB40" d="M22.914 12.924l1.86-.467L30 11.146l-3.381 3.816-1.319 1.49 1.59 1.195 2.925 2.202h-5.918l.473 2.218 1.551 7.26-5.845-5.332-1.056-.964-1.188.795-5.24 3.506 2.406-4.828 1.322-2.655H9.564l3.759-2.059 2.145-1.172-1.727-1.735-3.044-3.053 3.221.646 2.186.439V8.686l1.45 1.455 1.794 1.799 1.133-2.276 1.273-2.556"/><path fill="#F5F8FA" d="M21.512 14.301l.767-.193 2.158-.541-1.396 1.576-.545.615.656.493 1.208.909h-2.443l.195.916.641 2.997-2.413-2.201-.437-.398-.49.328-2.163 1.448.993-1.994.546-1.096H16l1.553-.85.885-.484-.713-.716-1.257-1.261 1.329.267.903.181v-1.745l.599.6.74.743.468-.939.525-1.056"/></svg></g>

<g class="stack" id="1f4a6"><svg viewBox="0 0 36 36"><path fill="#5DADEC" d="M22.855.758L7.875 7.024l12.537 9.733c2.633 2.224 6.377 2.937 9.77 1.518 4.826-2.018 7.096-7.576 5.072-12.413C33.232 1.024 27.68-1.261 22.855.758zm-9.962 17.924L2.05 10.284.137 23.529c-.534 2.855.502 5.902 2.958 7.803 3.494 2.705 8.518 2.066 11.224-1.426 2.705-3.492 2.067-8.517-1.426-11.224zm15.339 7.015l-8.156-4.69-.033 9.223c-.088 2 .904 3.98 2.75 5.041 2.631 1.512 5.977.594 7.479-2.051 1.499-2.644.589-6.013-2.04-7.523z"/></svg></g>

<g class="stack" id="1f4a8"><svg viewBox="0 0 36 36"><path fill="#BDDDF4" d="M36 15c0-4.155-3.169-7.568-7.221-7.96C27.884 3.013 24.297 0 20 0c-4.971 0-9 3.56-9 8.531 0 1.156.25 2.906 1.121 3.785C8.859 12.5 4.094 12.6 0 12.015c0 0 4.816 3.831 15.357 3.985-.151.313-.254 1.43-.306 1.786-.249.003-.595.009-1.051.009C6 17.795 0 17 0 17s3 3.234 15.406 4.106C15 21.234 15 23 15 23c-8 0-15-1-15-1 3.362 2.802 6.724 4.033 9.03 4.574-.011.142-.03.281-.03.426 0 3.313 2.686 5 6 5 .487 0 .958-.064 1.412-.174C18.009 34.333 20.807 36 24 36c4.971 0 9-4.029 9-9 0-1.788-.527-3.449-1.427-4.851C34.195 20.837 36 18.132 36 15z"/></svg></g>

<g class="stack" id="1f4a9"><svg viewBox="0 0 36 36"><path fill="#BF6952" d="M33.541 23.198c.364-1.578.243-3.266-.458-4.946-.678-1.625-1.847-2.91-3.271-3.773.318-1.192.234-2.475-.324-3.75-.841-1.92-2.66-3.201-4.712-3.562.249-.572.329-1.289.036-2.167-1-3-5-1-8-4.999-2.44 1.464-2.97 3.64-2.878 5.487-2.421.412-3.8.936-3.8.936v.002c-1.36.55-2.322 1.883-2.322 3.442 0 .879.318 1.676.828 2.312l-.692.258.001.003c-2.33.871-3.975 2.976-3.975 5.439 0 1.047.3 2.027.82 2.878C1.971 22.027 0 24.781 0 28c0 4.418 3.691 8 8.244 8 3.269 0 6.559-.703 9.531-1.665C20.018 35.375 23.47 36 28.667 36 32.717 36 36 32.717 36 28.667c0-2.176-.953-4.125-2.459-5.469z"/><ellipse fill="#F5F8FA" cx="13.5" cy="15.5" rx="3.5" ry="4.5"/><ellipse fill="#F5F8FA" cx="23.5" cy="15.5" rx="3.5" ry="4.5"/><ellipse fill="#292F33" cx="14" cy="15.5" rx="2" ry="2.5"/><ellipse fill="#292F33" cx="23" cy="15.5" rx="2" ry="2.5"/><path fill="#292F33" d="M9.447 24.895C9.201 24.402 9.45 24 10 24h18c.55 0 .799.402.553.895C28.553 24.895 26 30 19 30s-9.553-5.105-9.553-5.105z"/><path fill="#F2ABBA" d="M19 26c-2.771 0-5.157.922-6.292 2.256C14.2 29.211 16.253 30 19 30s4.801-.789 6.292-1.744C24.157 26.922 21.771 26 19 26z"/></svg></g>

<g class="stack" id="1f4ab"><svg viewBox="0 0 36 36"><path fill="#FDD888" d="M28.865 7.134c7.361 7.359 9.35 17.304 4.443 22.209-4.907 4.907-14.85 2.918-22.21-4.441-.25-.25-.478-.51-.716-.766l4.417-4.417c5.724 5.724 13.016 7.714 16.286 4.442 3.271-3.271 1.282-10.563-4.441-16.287l.022.021-.021-.022C20.104 1.331 11.154-.326 6.657 4.171 4.482 6.346 3.76 9.564 4.319 13.044c-.858-4.083-.15-7.866 2.338-10.353 4.906-4.906 14.849-2.917 22.208 4.443z"/><path fill="#FFAC33" d="M19.403 34c-.252 0-.503-.077-.719-.231l-5.076-3.641-5.076 3.641c-.433.31-1.013.31-1.443-.005-.43-.312-.611-.864-.45-1.369l1.894-6.11-5.031-3.545c-.428-.315-.605-.869-.442-1.375.165-.504.634-.847 1.165-.851l6.147-.012 2.067-5.957c.168-.504.639-.844 1.17-.844.531 0 1.002.34 1.17.844l1.866 5.957 6.347.012c.532.004 1.002.347 1.165.851.164.506-.014 1.06-.442 1.375l-5.031 3.545 1.893 6.11c.162.505-.021 1.058-.449 1.369-.217.158-.471.236-.725.236z"/></svg></g>

<g class="stack" id="1f31f"><svg viewBox="0 0 36 36"><path fill="#FFAC33" d="M28.84 17.638c-.987 1.044-1.633 3.067-1.438 4.493l.892 6.441c.197 1.427-.701 2.087-1.996 1.469l-5.851-2.796c-1.295-.62-3.408-.611-4.7.018l-5.826 2.842c-1.291.629-2.193-.026-2.007-1.452l.843-6.449c.186-1.427-.475-3.444-1.47-4.481l-4.494-4.688c-.996-1.037-.655-2.102.755-2.365l6.37-1.188c1.41-.263 3.116-1.518 3.793-2.789L16.762.956c.675-1.271 1.789-1.274 2.473-.009L22.33 6.66c.686 1.265 2.4 2.507 3.814 2.758l6.378 1.141c1.412.252 1.761 1.314.774 2.359l-4.456 4.72z"/><path fill="#FFD983" d="M9.783 2.181c1.023 1.413 2.446 4.917 1.717 5.447-.728.531-3.607-1.91-4.63-3.323-1.022-1.413-.935-2.668-.131-3.254.804-.587 2.02-.282 3.044 1.13zm19.348 2.124C28.109 5.718 25.23 8.16 24.5 7.627c-.729-.53.695-4.033 1.719-5.445C27.242.768 28.457.463 29.262 1.051c.803.586.89 1.841-.131 3.254zM16.625 33.291c-.001-1.746.898-5.421 1.801-5.421.897 0 1.798 3.675 1.797 5.42 0 1.747-.804 2.712-1.8 2.71-.994.002-1.798-.962-1.798-2.709zm16.179-9.262c-1.655-.539-4.858-2.533-4.579-3.395.277-.858 4.037-.581 5.69-.041 1.655.54 2.321 1.605 2.013 2.556-.308.95-1.469 1.42-3.124.88zM2.083 20.594c1.655-.54 5.414-.817 5.694.044.276.857-2.928 2.854-4.581 3.392-1.654.54-2.818.07-3.123-.88-.308-.95.354-2.015 2.01-2.556z"/></svg></g>

<g class="stack" id="1f44d"><svg viewBox="0 0 36 36"><path fill="#FFDB5E" d="M34.956 17.916c0-.503-.12-.975-.321-1.404-1.341-4.326-7.619-4.01-16.549-4.221-1.493-.035-.639-1.798-.115-5.668.341-2.517-1.282-6.382-4.01-6.382-4.498 0-.171 3.548-4.148 12.322-2.125 4.688-6.875 2.062-6.875 6.771v10.719c0 1.833.18 3.595 2.758 3.885C8.195 34.219 7.633 36 11.238 36h18.044c1.838 0 3.333-1.496 3.333-3.334 0-.762-.267-1.456-.698-2.018 1.02-.571 1.72-1.649 1.72-2.899 0-.76-.266-1.454-.696-2.015 1.023-.57 1.725-1.649 1.725-2.901 0-.909-.368-1.733-.961-2.336.757-.611 1.251-1.535 1.251-2.581z"/><path fill="#EE9547" d="M23.02 21.249h8.604c1.17 0 2.268-.626 2.866-1.633.246-.415.109-.952-.307-1.199-.415-.247-.952-.108-1.199.307-.283.479-.806.775-1.361.775h-8.81c-.873 0-1.583-.71-1.583-1.583s.71-1.583 1.583-1.583H28.7c.483 0 .875-.392.875-.875s-.392-.875-.875-.875h-5.888c-1.838 0-3.333 1.495-3.333 3.333 0 1.025.475 1.932 1.205 2.544-.615.605-.998 1.445-.998 2.373 0 1.028.478 1.938 1.212 2.549-.611.604-.99 1.441-.99 2.367 0 1.12.559 2.108 1.409 2.713-.524.589-.852 1.356-.852 2.204 0 1.838 1.495 3.333 3.333 3.333h5.484c1.17 0 2.269-.625 2.867-1.632.247-.415.11-.952-.305-1.199-.416-.245-.953-.11-1.199.305-.285.479-.808.776-1.363.776h-5.484c-.873 0-1.583-.71-1.583-1.583s.71-1.583 1.583-1.583h6.506c1.17 0 2.27-.626 2.867-1.633.247-.416.11-.953-.305-1.199-.419-.251-.954-.11-1.199.305-.289.487-.799.777-1.363.777h-7.063c-.873 0-1.583-.711-1.583-1.584s.71-1.583 1.583-1.583h8.091c1.17 0 2.269-.625 2.867-1.632.247-.415.11-.952-.305-1.199-.417-.246-.953-.11-1.199.305-.289.486-.799.776-1.363.776H23.02c-.873 0-1.583-.71-1.583-1.583s.709-1.584 1.583-1.584z"/></svg></g>

<g class="stack" id="1f44e"><svg viewBox="0 0 36 36"><path fill="#FFDB5E" d="M34.956 18.084c0 .503-.12.975-.321 1.404-1.341 4.326-7.619 4.01-16.549 4.221-1.493.035-.639 1.798-.115 5.668.341 2.517-1.282 6.382-4.01 6.382-4.498 0-.171-3.548-4.148-12.322-2.125-4.688-6.875-2.062-6.875-6.771V5.948c0-1.833.18-3.595 2.758-3.885C8.195 1.781 7.633 0 11.238 0h18.044c1.838 0 3.333 1.496 3.333 3.334 0 .762-.267 1.456-.698 2.018 1.02.571 1.72 1.649 1.72 2.899 0 .76-.266 1.454-.696 2.015 1.023.57 1.725 1.649 1.725 2.901 0 .909-.368 1.733-.961 2.336.757.611 1.251 1.535 1.251 2.581z"/><path fill="#EE9547" d="M23.02 14.751h8.604c1.17 0 2.268.626 2.866 1.633.246.415.109.952-.307 1.199-.415.247-.952.108-1.199-.307-.283-.479-.806-.775-1.361-.775h-8.81c-.873 0-1.583.71-1.583 1.583s.71 1.583 1.583 1.583H28.7c.483 0 .875.392.875.875s-.392.875-.875.875h-5.888c-1.838 0-3.333-1.495-3.333-3.333 0-1.025.475-1.932 1.205-2.544-.615-.605-.998-1.445-.998-2.373 0-1.028.478-1.938 1.212-2.549-.611-.604-.99-1.441-.99-2.367 0-1.12.559-2.108 1.409-2.713-.524-.589-.852-1.356-.852-2.204 0-1.838 1.495-3.333 3.333-3.333h5.484c1.17 0 2.269.625 2.867 1.632.247.415.11.952-.305 1.199-.416.245-.953.11-1.199-.305-.285-.479-.808-.776-1.363-.776h-5.484c-.873 0-1.583.71-1.583 1.583s.71 1.583 1.583 1.583h6.506c1.17 0 2.27.626 2.867 1.633.247.416.11.953-.305 1.199-.419.251-.954.11-1.199-.305-.289-.487-.799-.777-1.363-.777h-7.063c-.873 0-1.583.711-1.583 1.584s.71 1.583 1.583 1.583h8.091c1.17 0 2.269.625 2.867 1.632.247.415.11.952-.305 1.199-.417.246-.953.11-1.199-.305-.289-.486-.799-.776-1.363-.776H23.02c-.873 0-1.583.71-1.583 1.583s.709 1.584 1.583 1.584z"/></svg></g>

<g class="stack" id="1f47d"><svg viewBox="0 0 36 36"><path fill="#CCD6DD" d="M35 17c0 9.389-13.223 19-17 19-3.778 0-17-9.611-17-19S8.611 0 18 0s17 7.611 17 17z"/><path fill="#292F33" d="M13.503 14.845c3.124 3.124 4.39 6.923 2.828 8.485-1.562 1.562-5.361.297-8.485-2.828-3.125-3.124-4.391-6.923-2.828-8.485s5.361-.296 8.485 2.828zm8.994 0c-3.124 3.124-4.39 6.923-2.828 8.485 1.562 1.562 5.361.297 8.485-2.828 3.125-3.125 4.391-6.923 2.828-8.485-1.562-1.562-5.361-.297-8.485 2.828zM18 31c-2.347 0-3.575-1.16-3.707-1.293-.391-.391-.391-1.023 0-1.414.387-.387 1.013-.391 1.404-.01.051.047.806.717 2.303.717 1.519 0 2.273-.689 2.305-.719.398-.374 1.027-.363 1.408.029.379.393.38 1.011-.006 1.396C21.575 29.84 20.347 31 18 31z"/></svg></g>

<g class="stack" id="1f47f"><svg viewBox="0 0 36 36"><circle fill="#AA8DD8" cx="18" cy="18" r="18"/><path fill="#AA8DD8" d="M10 4C7.42 4 4.369 1.534 3.414.586 2.843.014 1.981-.157 1.235.153.487.462 0 1.191 0 2c0 3.459 1.672 10 8 10 .757 0 1.45-.428 1.789-1.106l2-4c.31-.62.277-1.356-.088-1.946C11.337 4.359 10.693 4 10 4zM34.766.153c-.75-.311-1.607-.139-2.18.434C31.7 1.472 28.589 4 26 4c-.693 0-1.337.359-1.701.949-.364.589-.397 1.326-.088 1.946l2 4C26.55 11.572 27.242 12 28 12c6.328 0 8-6.541 8-10 0-.809-.487-1.538-1.234-1.847z"/><path fill="#553986" d="M15.894 14.211l-6-3c-.988-.494-2.189-.093-2.684.895-.494.988-.093 2.189.895 2.684l4.212 2.106c-.306.533-.317 1.105-.317 1.105v2s0 2 2 2 2-2 2-2v-2s-.003-.109-.025-.263c.338-.189.628-.471.814-.843.494-.988.093-2.189-.895-2.684zm12.895-2.105c-.493-.986-1.694-1.391-2.684-.895l-6 3c-.988.494-1.389 1.695-.895 2.684.186.372.476.654.814.843-.021.154-.024.263-.024.263v2s0 2 2 2 2-2 2-2v-2s-.011-.572-.318-1.105l4.212-2.106c.989-.495 1.389-1.696.895-2.684zm-4.507 17.489c-.039-.165-.985-3.848-6.282-3.848-5.291 0-6.245 3.69-6.282 3.848-.063.26.047.525.274.661.227.135.515.098.703-.092.015-.016 1.583-1.522 5.306-1.522s5.291 1.507 5.305 1.521c.108.112.259.176.412.176.1 0 .199-.026.289-.079.224-.134.338-.407.275-.665z"/></svg></g>

<g class="stack" id="1f49a"><svg viewBox="0 0 36 36"><path fill="#78B159" d="M35.885 11.833c0-5.45-4.418-9.868-9.867-9.868-3.308 0-6.227 1.633-8.018 4.129-1.791-2.496-4.71-4.129-8.017-4.129-5.45 0-9.868 4.417-9.868 9.868 0 .772.098 1.52.266 2.241C1.751 22.587 11.216 31.568 18 34.034c6.783-2.466 16.249-11.447 17.617-19.959.17-.721.268-1.469.268-2.242z"/></svg></g>

<g class="stack" id="1f49b"><svg viewBox="0 0 36 36"><path fill="#FDCB58" d="M35.885 11.833c0-5.45-4.418-9.868-9.867-9.868-3.308 0-6.227 1.633-8.018 4.129-1.791-2.496-4.71-4.129-8.017-4.129-5.45 0-9.868 4.417-9.868 9.868 0 .772.098 1.52.266 2.241C1.751 22.587 11.216 31.568 18 34.034c6.783-2.466 16.249-11.447 17.617-19.959.17-.721.268-1.469.268-2.242z"/></svg></g>

<g class="stack" id="1f49c"><svg viewBox="0 0 36 36"><path fill="#AA8ED6" d="M35.885 11.833c0-5.45-4.418-9.868-9.867-9.868-3.308 0-6.227 1.633-8.018 4.129-1.791-2.496-4.71-4.129-8.017-4.129-5.45 0-9.868 4.417-9.868 9.868 0 .772.098 1.52.266 2.241C1.751 22.587 11.216 31.568 18 34.034c6.783-2.466 16.249-11.447 17.617-19.959.17-.721.268-1.469.268-2.242z"/></svg></g>

<g class="stack" id="1f49e"><svg viewBox="0 0 36 36"><path fill="#F4ABBA" d="M35.977 16.672c-.25 4.574-8.194 8.248-17.977 8.248-3.285 0-6.352-.422-9-1.145v3.588c2.65 1.023 5.718 1.619 9 1.619 9.941 0 18-5.373 18-12 0-.104-.02-.207-.023-.31zM27 6.6c-2.646-1.024-5.717-1.617-9-1.617-9.018 0-16.465 4.426-17.774 10.194C1.535 11.106 8.982 7.982 18 7.982c3.283 0 6.354.418 9 1.142V6.6z"/><path fill="#DD2E44" d="M24.77 19.715c0-3.757-3.045-6.801-6.801-6.801-2.28 0-4.292 1.125-5.526 2.845-1.234-1.72-3.247-2.845-5.526-2.845-3.756 0-6.801 3.044-6.801 6.801 0 .531.067 1.049.183 1.545.945 5.867 7.468 12.059 12.144 13.758 4.675-1.699 11.2-7.891 12.142-13.756.117-.498.185-1.016.185-1.547zM35.885 5.693c0-2.602-2.109-4.711-4.711-4.711-1.579 0-2.973.78-3.828 1.972-.855-1.191-2.249-1.972-3.827-1.972-2.602 0-4.711 2.109-4.711 4.711 0 .369.047.727.127 1.07.654 4.064 5.173 8.353 8.411 9.529 3.238-1.177 7.758-5.465 8.412-9.528.08-.344.127-.702.127-1.071z"/></svg></g>

<g class="stack" id="1f60a"><svg viewBox="0 0 36 36"><path fill="#FFCC4D" d="M36 18c0 9.941-8.059 18-18 18S0 27.941 0 18 8.059 0 18 0s18 8.059 18 18"/><circle fill="#FF7892" cx="7" cy="18" r="5"/><circle fill="#FF7892" cx="29" cy="18" r="5"/><path fill="#664500" d="M27.335 21.629c-.178-.161-.444-.171-.635-.029-.039.029-3.922 2.9-8.7 2.9-4.766 0-8.662-2.871-8.7-2.9-.191-.142-.457-.13-.635.029-.177.16-.217.424-.094.628C8.7 22.472 11.788 27.5 18 27.5s9.301-5.028 9.429-5.243c.123-.205.084-.468-.094-.628zM7.999 15c-.15 0-.303-.034-.446-.106-.494-.247-.694-.848-.447-1.342C7.158 13.448 8.424 11 12 11c3.577 0 4.842 2.449 4.894 2.553.247.494.047 1.095-.447 1.342-.492.245-1.085.049-1.336-.436C15.068 14.379 14.281 13 12 13c-2.317 0-3.099 1.433-3.106 1.447-.175.351-.528.553-.895.553zm20.002 0c-.367 0-.72-.202-.896-.553C27.08 14.401 26.299 13 24 13s-3.08 1.401-3.112 1.46c-.26.481-.859.67-1.345.42-.485-.252-.682-.839-.438-1.328C19.157 13.449 20.423 11 24 11s4.843 2.449 4.895 2.553c.247.494.047 1.095-.447 1.342-.144.071-.297.105-.447.105z"/></svg></g>

<g class="stack" id="1f60b"><svg viewBox="0 0 36 36"><circle fill="#FFCC4D" cx="18" cy="18" r="18"/><path fill="#664500" d="M6.999 17c-.15 0-.303-.034-.446-.105-.494-.247-.694-.848-.447-1.342C6.158 15.448 7.424 13 11 13c3.577 0 4.842 2.449 4.894 2.553.247.494.046 1.095-.447 1.342-.491.247-1.085.049-1.336-.436C14.067 16.378 13.28 15 11 15c-2.317 0-3.099 1.433-3.106 1.447-.175.351-.528.553-.895.553zM29 17c.15 0 .303-.034.446-.105.494-.247.694-.848.447-1.342-.052-.105-1.318-2.553-4.894-2.553-3.577 0-4.842 2.449-4.894 2.553-.247.494-.046 1.095.447 1.342.491.247 1.085.049 1.336-.436.044-.081.831-1.459 3.111-1.459 2.317 0 3.099 1.433 3.106 1.447.175.351.528.553.895.553zm.503 6.52c.323-.749.461-1.257.466-1.277.134-.534-.19-1.075-.725-1.21-.536-.136-1.077.188-1.215.723C27.955 22.051 26.081 29 18 29s-9.955-6.949-10.03-7.245c-.138-.534-.679-.858-1.215-.723-.534.135-.858.676-.725 1.21C6.052 22.33 8.331 31 18 31c1.65 0 3.07-.266 4.315-.685 4.33-1.458 6.374-4.91 7.188-6.795z"/><path fill="#E75B70" d="M32.407 26.681l-2.956-3.051s-.68-.438-1.273.568c-.78 1.322-2.075 2.935-3.934 4.171-.781.519-2.139 1.189-2.697 1.318-.735.169-.388.964-.388.964.585-.127 1.051-.301 1.051-.301l.296.296 2.726 2.726c1.728 1.728 5 2 7 0s1.904-4.962.175-6.691z"/><path fill="#DE3146" d="M29.915 31.074c.213-.213.213-.558 0-.771l-3.629-3.629-.796.748 3.653 3.653c.213.212.559.212.772-.001z"/></svg></g>

<g class="stack" id="1f60c"><svg viewBox="0 0 36 36"><path fill="#FFCC4D" d="M36 18c0 9.941-8.059 18-18 18S0 27.941 0 18 8.059 0 18 0s18 8.059 18 18"/><path fill="#664500" d="M28.312 15.612c-.175-.142-.426-.147-.61-.014-.012.009-1.261.902-3.702.902-2.44 0-3.69-.893-3.7-.9-.183-.137-.435-.133-.611.009-.178.142-.238.386-.146.594.06.135 1.5 3.297 4.457 3.297 2.958 0 4.397-3.162 4.457-3.297.092-.207.032-.449-.145-.591zm-12.61-.014c-.012.009-1.26.902-3.702.902-2.441 0-3.69-.893-3.7-.9-.183-.137-.434-.133-.611.009-.178.142-.238.386-.146.594.06.135 1.5 3.297 4.457 3.297 2.958 0 4.397-3.162 4.457-3.297.092-.207.032-.449-.145-.591-.176-.143-.428-.147-.61-.014zM29.001 13c-.305 0-.604-.138-.801-.4-2.592-3.456-6.961-2.628-7.004-2.62-.547.108-1.068-.243-1.177-.784-.108-.541.243-1.068.784-1.177.231-.047 5.657-1.072 8.996 3.38.332.442.242 1.069-.2 1.4-.179.136-.389.201-.598.201zM6.999 13c-.208 0-.419-.065-.599-.2-.442-.331-.531-.958-.2-1.4 3.339-4.454 8.766-3.426 8.996-3.38.542.108.893.635.784 1.177-.108.54-.634.891-1.174.785-.186-.035-4.436-.808-7.006 2.618-.196.262-.497.4-.801.4zm16.255 10.577c-.188-.111-.432-.086-.597.06-.01.008-1.013.863-4.657.863-3.641 0-4.646-.854-4.646-.854-.159-.16-.404-.19-.6-.082-.195.111-.293.339-.238.557.01.044 1.144 4.379 5.484 4.379s5.474-4.335 5.485-4.379c.053-.213-.044-.431-.231-.544z"/></svg></g>

<g class="stack" id="1f60d"><svg viewBox="0 0 36 36"><path fill="#FFCC4D" d="M36 18c0 9.941-8.059 18-18 18S0 27.941 0 18 8.059 0 18 0s18 8.059 18 18"/><path fill="#664500" d="M18 21.849c-2.966 0-4.935-.346-7.369-.819-.557-.106-1.638 0-1.638 1.638 0 3.275 3.763 7.369 9.007 7.369s9.007-4.094 9.007-7.369c0-1.638-1.082-1.745-1.638-1.638-2.434.473-4.402.819-7.369.819"/><path fill="#DD2E44" d="M16.65 3.281C15.791.85 13.126-.426 10.694.431c-1.476.52-2.521 1.711-2.928 3.104-1.191-.829-2.751-1.1-4.225-.58C1.111 3.813-.167 6.48.692 8.911c.122.344.284.663.472.958 1.951 3.582 7.588 6.1 11.001 6.131 2.637-2.167 5.446-7.665 4.718-11.677-.038-.348-.113-.698-.233-1.042zm2.7 0C20.209.85 22.875-.426 25.306.431c1.476.52 2.521 1.711 2.929 3.104 1.191-.829 2.751-1.1 4.225-.58 2.43.858 3.707 3.525 2.85 5.956-.123.344-.284.663-.473.958-1.951 3.582-7.588 6.1-11.002 6.131-2.637-2.167-5.445-7.665-4.717-11.677.037-.348.112-.698.232-1.042z"/></svg></g>

<g class="stack" id="1f60e"><svg viewBox="0 0 36 36"><path fill="#FFCC4D" d="M36 18c0 9.941-8.059 18-18 18S0 27.941 0 18 8.059 0 18 0s18 8.059 18 18"/><path fill-rule="evenodd" clip-rule="evenodd" fill="#292F33" d="M1.24 11.018c.24.239 1.438.957 1.677 1.675.24.717.72 4.784 2.158 5.981 1.483 1.232 7.077.774 8.148.24 2.397-1.195 2.691-4.531 3.115-6.221.239-.957 1.677-.957 1.677-.957s1.438 0 1.678.956c.424 1.691.72 5.027 3.115 6.221 1.072.535 6.666.994 8.151-.238 1.436-1.197 1.915-5.264 2.155-5.982.238-.717 1.438-1.435 1.677-1.674.241-.239.241-1.196 0-1.436-.479-.478-6.134-.904-12.223-.239-1.215.133-1.677.478-4.554.478-2.875 0-3.339-.346-4.553-.478-6.085-.666-11.741-.24-12.221.238-.239.239-.239 1.197 0 1.436z"/><path fill="#664500" d="M27.335 23.629c-.178-.161-.444-.171-.635-.029-.039.029-3.922 2.9-8.7 2.9-4.766 0-8.662-2.871-8.7-2.9-.191-.142-.457-.13-.635.029-.177.16-.217.424-.094.628C8.7 24.472 11.788 29.5 18 29.5s9.301-5.028 9.429-5.243c.123-.205.084-.468-.094-.628z"/></svg></g>

<g class="stack" id="1f60f"><svg viewBox="0 0 36 36"><path fill="#FFCC4D" d="M36 18c0 9.941-8.059 18-18 18S0 27.941 0 18 8.059 0 18 0s18 8.059 18 18"/><path fill="#664500" d="M24.327 23.622c-.153-.132-.368-.159-.551-.069l-4 2c-1.871.935-6.727.947-6.776.947-.276 0-.5.224-.5.5 0 .185.101.347.25.433v.001h.001v.001c.071.04.153.063.24.065h7.008c2.658 0 4.089-2.185 4.475-3.342.064-.192.006-.403-.147-.536zM31.001 16c-.305 0-.604-.138-.801-.4-2.641-3.521-6.061-3.599-6.206-3.6-.55-.006-.994-.456-.991-1.005.003-.551.447-.995.997-.995.184 0 4.537.05 7.8 4.4.332.442.242 1.069-.2 1.4-.18.135-.39.2-.599.2zM4.999 16c-.208 0-.419-.065-.599-.2-.442-.331-.531-.958-.2-1.4C7.462 10.05 11.816 10 12 10c.552 0 1 .448 1 1 0 .551-.445.998-.996 1-.156.002-3.569.086-6.205 3.6-.195.262-.496.4-.8.4zm10.898 1.396c.023-.052.059-.096.073-.154.134-.536-.192-1.079-.727-1.213-.18-.045-4.467-1.08-7.797 1.138-.459.306-.583.927-.277 1.387.192.29.509.446.832.446.19 0 .383-.055.554-.168 1.092-.729 2.362-.995 3.468-1.061-.009.076-.023.151-.023.229 0 1.104.896 2 2 2s2-.896 2-2c0-.212-.042-.412-.103-.604zm11.999-.001c.023-.052.059-.095.073-.152.135-.536-.191-1.079-.727-1.213-.18-.045-4.466-1.08-7.797 1.138-.46.306-.584.927-.277 1.387.192.289.51.445.833.445.19 0 .383-.055.554-.168 1.092-.729 2.361-.994 3.469-1.06-.009.076-.024.15-.024.228 0 1.104.896 2 2 2s2-.896 2-2c0-.212-.042-.413-.104-.605z"/></svg></g>

<g class="stack" id="1f61a"><svg viewBox="0 0 36 36"><path fill="#FFCC4D" d="M36 18c0 9.941-8.059 18-18 18S0 27.941 0 18 8.059 0 18 0s18 8.059 18 18"/><circle fill="#FF7892" cx="7" cy="21" r="5"/><circle fill="#FF7892" cx="29" cy="21" r="5"/><path fill="#664500" d="M28.416 17.723C28.355 17.632 26.901 15.5 24 15.5c-2.9 0-4.355 2.132-4.416 2.223-.135.202-.104.47.071.638.174.167.446.185.643.042.012-.01 1.262-.903 3.702-.903 2.426 0 3.674.881 3.702.901.089.066.194.099.298.099.124 0 .248-.046.344-.137.177-.167.207-.438.072-.64zM12 15.5c-2.9 0-4.355 2.132-4.416 2.223-.134.202-.104.47.071.638.175.167.447.185.642.042.013-.01 1.262-.903 3.703-.903 2.426 0 3.674.881 3.702.901.089.066.194.099.298.099.124 0 .248-.046.344-.137.177-.167.208-.438.072-.641-.061-.09-1.515-2.222-4.416-2.222zM21.871 27c1.335-.412 2.629-1.156 2.629-2.5 0-2.619-4.912-2.968-5.473-2.999-.277-.036-.51.194-.526.468-.017.274.19.511.464.53.035.002 3.535.299 3.535 2.001s-3.5 1.999-3.535 2.001c-.01.001-.017.006-.026.007-.124.008-.23.065-.31.159l-.015.021c-.029.039-.055.078-.073.125-.011.027-.016.057-.021.086-.005.024-.017.046-.019.07-.001.01.004.02.004.031s-.005.021-.004.031c.002.025.013.046.019.07.006.029.011.059.022.087.013.032.032.06.051.088.017.023.03.047.05.067.023.024.052.043.081.062.024.017.045.033.071.046.031.015.065.021.101.027.023.006.044.018.069.02.035.003 3.535.3 3.535 2.002s-3.5 1.999-3.535 2.001c-.273.02-.481.257-.464.53.017.265.236.469.499.469l.027-.001c.561-.031 5.473-.38 5.473-2.999 0-1.344-1.294-2.088-2.629-2.5zm9.13-11c-.305 0-.604-.138-.801-.4-2.641-3.521-6.061-3.599-6.206-3.6-.55-.006-.994-.456-.991-1.005.003-.551.447-.995.997-.995.184 0 4.537.05 7.8 4.4.332.442.242 1.069-.2 1.4-.18.135-.39.2-.599.2zM4.999 16c-.208 0-.419-.065-.599-.2-.442-.331-.531-.958-.2-1.4C7.462 10.05 11.816 10 12 10c.552 0 1 .448 1 1 0 .551-.445.998-.996 1-.156.002-3.569.086-6.205 3.6-.195.262-.496.4-.8.4z"/></svg></g>

<g class="stack" id="1f61b"><svg viewBox="0 0 36 36"><path fill="#FFCC4D" d="M36 18c0 9.941-8.059 18-18 18-9.94 0-18-8.059-18-18C0 8.06 8.06 0 18 0c9.941 0 18 8.06 18 18"/><ellipse fill="#66471B" cx="11.5" cy="14.5" rx="2.5" ry="3.5"/><ellipse fill="#66471B" cx="24.5" cy="14.5" rx="2.5" ry="3.5"/><path fill="#66471B" d="M7 21.262c0 3.964 4.596 9 11 9s11-5 11-9c0 0-10.333 2.756-22 0z"/><path fill="#E8596E" d="M18.545 23.604l-1.091-.005c-3.216-.074-5.454-.596-5.454-.596v6.961c0 3 2 6 6 6s6-3 6-6v-6.92c-1.922.394-3.787.542-5.455.56z"/><path fill="#DD2F45" d="M18 31.843c.301 0 .545-.244.545-.545v-7.694l-1.091-.005v7.699c.001.301.245.545.546.545z"/></svg></g>

<g class="stack" id="1f61c"><svg viewBox="0 0 36 36"><path fill="#FFCC4D" d="M36 18c0 9.941-8.059 18-18 18-9.94 0-18-8.059-18-18C0 8.06 8.06 0 18 0c9.941 0 18 8.06 18 18"/><path fill="#66471B" d="M15.457 15.815c-.06-.135-1.499-3.297-4.457-3.297-2.957 0-4.397 3.162-4.457 3.297-.092.207-.032.449.144.591.177.143.427.147.61.014.013-.009 1.262-.902 3.703-.902 2.426 0 3.674.881 3.702.901.088.066.193.099.298.099.11 0 .221-.037.311-.109.179-.142.238-.386.146-.594z"/><path fill="#F5F8FA" d="M31 13.5c0 3.59-2.91 6.5-6.5 6.5S18 17.09 18 13.5 20.91 7 24.5 7 31 9.91 31 13.5z"/><circle fill="#292F33" cx="24.5" cy="13.5" r="2.5"/><path fill="#66471B" d="M7 21.262c0 3.964 4.596 9 11 9s11-5 11-9c0 0-10.333 2.756-22 0z"/><path fill="#E8596E" d="M18.545 23.604l-1.091-.005c-3.216-.074-5.454-.596-5.454-.596v6.961c0 3 2 6 6 6s6-3 6-6v-6.92c-1.922.394-3.787.542-5.455.56z"/><path fill="#DD2F45" d="M18 31.843c.301 0 .545-.244.545-.545v-7.694l-1.091-.005v7.699c.001.301.245.545.546.545z"/></svg></g>

<g class="stack" id="1f61d"><svg viewBox="0 0 36 36"><path fill="#FFCC4D" d="M36 18c0 9.941-8.059 18-18 18-9.94 0-18-8.059-18-18C0 8.06 8.06 0 18 0c9.941 0 18 8.06 18 18"/><path fill="#66471B" d="M6.001 20c-.304 0-.604-.138-.801-.4-.332-.441-.242-1.068.2-1.399.143-.107 2.951-2.183 6.856-2.933C9.781 14.027 7.034 14 6.999 14c-.552-.002-.999-.45-.998-1.002 0-.551.447-.998.999-.998.221 0 5.452.038 8.707 3.293.286.286.372.716.217 1.09-.155.374-.52.617-.924.617-4.613 0-8.363 2.772-8.4 2.8-.18.135-.391.2-.599.2zm23.998-.001c-.208 0-.418-.064-.598-.198C29.363 19.772 25.59 17 21 17c-.404 0-.77-.243-.924-.617-.155-.374-.069-.804.217-1.09C23.549 12.038 28.779 12 29 12c.552 0 .998.447.999.998.001.552-.446 1-.997 1.002-.036 0-2.783.027-5.258 1.268 3.905.75 6.713 2.825 6.855 2.933.441.331.531.956.201 1.398-.196.261-.496.4-.801.4zM7 21.263c0 3.964 4.596 9 11 9s11-5 11-9c0 0-10.333 2.756-22 0z"/><path fill="#E8596E" d="M18.545 23.604l-1.091-.005c-3.216-.074-5.454-.596-5.454-.596v6.961c0 3 2 6 6 6s6-3 6-6v-6.92c-1.922.395-3.787.543-5.455.56z"/><path fill="#DD2F45" d="M18 31.844c.301 0 .545-.244.545-.545v-7.694l-1.091-.005v7.699c.001.301.245.545.546.545z"/></svg></g>

<g class="stack" id="1f61e"><svg viewBox="0 0 36 36"><circle fill="#FFCC4D" cx="18" cy="18" r="18"/><path fill="#664500" d="M23.485 28.879C23.474 28.835 22.34 24.5 18 24.5s-5.474 4.335-5.485 4.379c-.053.213.044.431.232.544.188.112.433.086.596-.06.009-.008 1.013-.863 4.657-.863 3.59 0 4.617.83 4.656.863.095.09.219.137.344.137.084 0 .169-.021.246-.064.196-.112.294-.339.239-.557zM11.226 15.512c-.317 0-.636.039-.947.116-2.87.707-3.513 4.121-3.539 4.267-.04.223.076.443.281.54.067.031.14.047.211.047.145 0 .287-.063.385-.18.01-.012 1.01-1.178 3.379-1.761.714-.176 1.412-.265 2.073-.265 1.104 0 1.732.253 1.735.254.067.028.131.04.207.04.272.012.509-.221.509-.5 0-.165-.08-.311-.203-.402-.367-.435-1.953-2.156-4.091-2.156zm13.548 0c.317 0 .636.039.947.116 2.87.707 3.513 4.121 3.539 4.267.04.223-.076.443-.281.54-.067.031-.14.047-.211.047-.145 0-.287-.063-.385-.18-.01-.012-1.01-1.178-3.379-1.761-.714-.176-1.412-.265-2.073-.265-1.104 0-1.731.253-1.735.254-.067.028-.131.04-.206.04-.272.012-.509-.221-.509-.5 0-.165.08-.311.203-.402.366-.435 1.952-2.156 4.09-2.156z"/></svg></g>

<g class="stack" id="1f61f"><svg viewBox="0 0 36 36"><path fill="#FFCC4D" d="M36 18c0 9.941-8.059 18-18 18S0 27.941 0 18 8.059 0 18 0s18 8.059 18 18"/><path fill="#664500" d="M23.485 28.879C23.474 28.835 22.34 24.5 18 24.5s-5.474 4.335-5.485 4.379c-.053.213.044.431.232.544.188.112.433.086.596-.06.009-.008 1.013-.863 4.657-.863 3.59 0 4.617.83 4.656.863.095.09.219.137.344.137.084 0 .169-.021.246-.064.196-.112.294-.339.239-.557zM29 12c-5.554 0-7.802-4.367-7.895-4.553-.247-.494-.047-1.095.447-1.342.493-.247 1.092-.048 1.34.443C22.967 6.694 24.713 10 29 10c.553 0 1 .448 1 1s-.447 1-1 1zM7 12c-.552 0-1-.448-1-1s.448-1 1-1c5.083 0 5.996-3.12 6.033-3.253.145-.528.692-.848 1.219-.709.53.139.851.673.718 1.205C14.921 7.437 13.704 12 7 12z"/><ellipse fill="#664500" cx="12" cy="16.5" rx="2.5" ry="3.5"/><ellipse fill="#664500" cx="24" cy="16.5" rx="2.5" ry="3.5"/></svg></g>

<g class="stack" id="1f62a"><svg viewBox="0 0 36 36"><path fill="#FFCC4D" d="M36 18c0 9.941-8.059 18-18 18S0 27.941 0 18 8.059 0 18 0s18 8.059 18 18"/><path fill="#664500" d="M23.485 28.879C23.474 28.835 22.34 24.5 18 24.5s-5.474 4.335-5.485 4.379c-.053.213.044.431.232.544.188.112.433.086.596-.06.009-.008 1.013-.863 4.657-.863 3.59 0 4.617.83 4.656.863.095.09.219.137.344.137.084 0 .169-.021.246-.064.196-.112.294-.339.239-.557zm-7.782-11.281c-.013.009-1.262.902-3.703.902-2.442 0-3.69-.893-3.7-.9-.194-.146-.466-.132-.644.037-.177.167-.208.438-.072.641.061.09 1.515 2.222 4.416 2.222 2.9 0 4.355-2.132 4.416-2.223.134-.202.104-.47-.071-.638-.176-.169-.449-.184-.642-.041zm12.642.042c-.175-.169-.447-.186-.643-.042-.012.009-1.262.902-3.702.902-2.441 0-3.69-.893-3.7-.9-.193-.146-.466-.132-.644.037-.177.167-.207.438-.072.641.061.09 1.515 2.222 4.416 2.222 2.9 0 4.355-2.132 4.416-2.223.135-.201.104-.469-.071-.637zM31.001 16c-.305 0-.604-.138-.801-.4-2.641-3.521-6.061-3.599-6.206-3.6-.55-.006-.994-.456-.991-1.005.003-.551.447-.995.997-.995.184 0 4.537.05 7.8 4.4.332.442.242 1.069-.2 1.4-.18.135-.39.2-.599.2zM4.999 16c-.208 0-.419-.065-.599-.2-.442-.331-.531-.958-.2-1.4C7.462 10.05 11.816 10 12 10c.552 0 1 .448 1 1 0 .551-.445.998-.996 1-.156.002-3.569.086-6.205 3.6-.195.262-.496.4-.8.4z"/><path fill="#5DADEC" d="M23 23c6.211 0 13 4 13 9 0 4-3 4-3 4-8 0-1-9-10-13z"/></svg></g>

<g class="stack" id="1f62b"><svg viewBox="0 0 36 36"><path fill="#FFCC4D" d="M36 18c0 9.941-8.059 18-18 18S0 27.941 0 18 8.059 0 18 0s18 8.059 18 18"/><path fill="#664500" d="M18 21.5c-9.333 0-10.485 8.354-10.496 8.438-.021.171.046.34.179.449.09.074.203.113.317.113.053 0 .106-.009.158-.025.059-.02 5.968-1.975 9.842-1.975 5.595 0 9.745 1.933 9.786 1.952.161.077.358.06.507-.047.147-.107.226-.286.203-.468C28.485 29.854 27.333 21.5 18 21.5zM29 10c-5.554 0-7.802-4.367-7.895-4.553-.247-.494-.047-1.095.447-1.342.493-.246 1.092-.048 1.34.443C22.967 4.694 24.713 8 29 8c.553 0 1 .448 1 1s-.447 1-1 1zM7 10c-.552 0-1-.448-1-1s.448-1 1-1c5.083 0 5.996-3.12 6.033-3.253.145-.528.692-.848 1.219-.709.53.139.851.673.718 1.205C14.921 5.437 13.704 10 7 10z"/><path fill="#CCD6DD" d="M18 23c4 0 6 2 6 2H12s2-2 6-2z"/><path fill="#664500" d="M6.001 19c-.304 0-.604-.138-.801-.4-.332-.441-.242-1.068.2-1.399.143-.107 2.951-2.183 6.856-2.933C9.781 13.027 7.034 13 6.999 13c-.552-.002-.999-.45-.998-1.002 0-.551.447-.998.999-.998.221 0 5.452.038 8.707 3.293.286.286.372.716.217 1.09-.155.373-.52.617-.924.617-4.613 0-8.363 2.772-8.4 2.8-.18.135-.391.2-.599.2zm23.998-.001c-.208 0-.418-.064-.598-.198C29.363 18.772 25.59 16 21 16c-.404 0-.77-.244-.924-.617-.155-.374-.069-.804.217-1.09C23.549 11.038 28.779 11 29 11c.552 0 .998.447.999.998.001.552-.446 1-.997 1.002-.036 0-2.783.027-5.258 1.268 3.905.75 6.713 2.826 6.855 2.933.441.331.531.956.201 1.398-.196.261-.496.4-.801.4z"/></svg></g>

<g class="stack" id="1f62c"><svg viewBox="0 0 36 36"><path fill="#FFCC4D" d="M36 18c0 9.941-8.059 18-18 18-9.94 0-18-8.059-18-18C0 8.06 8.06 0 18 0c9.941 0 18 8.06 18 18"/><ellipse fill="#664500" cx="12" cy="13.5" rx="2.5" ry="3.5"/><ellipse fill="#664500" cx="24" cy="13.5" rx="2.5" ry="3.5"/><path fill="#FFF" d="M25 21c2.209 0 4 1.791 4 4s-1.791 4-4 4H11c-2.209 0-4-1.791-4-4s1.791-4 4-4h14z"/><path fill="#664500" d="M25 20H11c-2.757 0-5 2.243-5 5s2.243 5 5 5h14c2.757 0 5-2.243 5-5s-2.243-5-5-5zm0 2c1.483 0 2.71 1.084 2.949 2.5H24.5V22h.5zm-1.5 0v2.5h-3V22h3zm-4 0v2.5h-3V22h3zm-4 0v2.5h-3V22h3zM11 22h.5v2.5H8.051C8.29 23.084 9.517 22 11 22zm0 6c-1.483 0-2.71-1.084-2.949-2.5H11.5V28H11zm1.5 0v-2.5h3V28h-3zm4 0v-2.5h3V28h-3zm4 0v-2.5h3V28h-3zm4.5 0h-.5v-2.5h3.449C27.71 26.916 26.483 28 25 28z"/></svg></g>

<g class="stack" id="1f62d"><svg viewBox="0 0 36 36"><path fill="#FFCC4D" d="M36 18c0 9.941-8.059 18-18 18S0 27.941 0 18 8.059 0 18 0s18 8.059 18 18"/><path fill="#664500" d="M22 27c0 2.763-1.791 3-4 3-2.21 0-4-.237-4-3 0-2.761 1.79-6 4-6 2.209 0 4 3.239 4 6zm8-12c-.124 0-.25-.023-.371-.072-5.229-2.091-7.372-5.241-7.461-5.374-.307-.46-.183-1.081.277-1.387.459-.306 1.077-.184 1.385.274.019.027 1.93 2.785 6.541 4.629.513.206.763.787.558 1.3-.157.392-.533.63-.929.63zM6 15c-.397 0-.772-.238-.929-.629-.205-.513.044-1.095.557-1.3 4.612-1.844 6.523-4.602 6.542-4.629.308-.456.929-.577 1.387-.27.457.308.581.925.275 1.383-.089.133-2.232 3.283-7.46 5.374C6.25 14.977 6.124 15 6 15z"/><path fill="#5DADEC" d="M24 16h4v19l-4-.046V16zM8 35l4-.046V16H8v19z"/><path fill="#664500" d="M14.999 18c-.15 0-.303-.034-.446-.105-3.512-1.756-7.07-.018-7.105 0-.495.249-1.095.046-1.342-.447-.247-.494-.047-1.095.447-1.342.182-.09 4.498-2.197 8.895 0 .494.247.694.848.447 1.342-.176.35-.529.552-.896.552zm14 0c-.15 0-.303-.034-.446-.105-3.513-1.756-7.07-.018-7.105 0-.494.248-1.094.047-1.342-.447-.247-.494-.047-1.095.447-1.342.182-.09 4.501-2.196 8.895 0 .494.247.694.848.447 1.342-.176.35-.529.552-.896.552z"/><ellipse fill="#5DADEC" cx="18" cy="34" rx="18" ry="2"/><ellipse fill="#E75A70" cx="18" cy="27" rx="3" ry="2"/></svg></g>

<g class="stack" id="1f62e"><svg viewBox="0 0 36 36"><path fill="#FFCC4D" d="M36 18c0 9.941-8.059 18-18 18S0 27.941 0 18 8.059 0 18 0s18 8.059 18 18"/><ellipse fill="#664500" cx="18" cy="25" rx="4" ry="5"/><ellipse fill="#664500" cx="12" cy="13.5" rx="2.5" ry="3.5"/><ellipse fill="#664500" cx="24" cy="13.5" rx="2.5" ry="3.5"/></svg></g>

<g class="stack" id="1f62f"><svg viewBox="0 0 36 36"><path fill="#FFCC4D" d="M36 18c0 9.941-8.059 18-18 18S0 27.941 0 18 8.059 0 18 0s18 8.059 18 18"/><ellipse fill="#664500" cx="18" cy="25.5" rx="3" ry="3.5"/><path fill="#664500" d="M31.001 11c-.305 0-.604-.138-.801-.4-2.64-3.521-6.061-3.598-6.206-3.6-.55-.006-.994-.456-.991-1.005C23.006 5.444 23.45 5 24 5c.184 0 4.537.05 7.8 4.4.332.442.242 1.069-.2 1.4-.18.135-.39.2-.599.2zM4.999 11c-.208 0-.419-.065-.599-.2-.442-.331-.531-.958-.2-1.4C7.462 5.05 11.816 5 12 5c.552 0 1 .448 1 1 0 .551-.445.998-.996 1-.155.002-3.568.086-6.204 3.6-.196.262-.497.4-.801.4z"/><ellipse fill="#664500" cx="12" cy="14.5" rx="2.5" ry="3.5"/><ellipse fill="#664500" cx="24" cy="14.5" rx="2.5" ry="3.5"/></svg></g>

<g class="stack" id="1f493"><svg viewBox="0 0 36 36"><path fill="#DD2E44" d="M33.885 15.764c0-4.841-3.924-8.764-8.764-8.764-2.938 0-5.53 1.45-7.121 3.667C16.41 8.45 13.816 7 10.879 7c-4.84 0-8.764 3.923-8.764 8.764 0 .685.087 1.35.236 1.99C3.568 25.315 11.975 33.292 18 35.482c6.024-2.19 14.432-10.167 15.647-17.728.151-.64.238-1.304.238-1.99z"/><path fill="#FDCB58" d="M1.499 11.042c-.15 0-.303-.034-.446-.106-.494-.247-.694-.848-.447-1.342 1.016-2.031 3.793-5.195 7.283-5.588.549-.061 1.043.333 1.105.882.062.549-.333 1.044-.882 1.106-2.679.302-4.928 2.917-5.717 4.495-.176.35-.529.553-.896.553zm-.458-5.417c-.193 0-.388-.056-.56-.172-.457-.31-.577-.932-.267-1.389.936-1.381 2.895-2.909 4.682-3.021.552-.043 1.025.385 1.06.936.035.551-.384 1.026-.935 1.061-.961.06-2.404 1.042-3.151 2.146-.194.285-.509.439-.829.439zm33.46 5.417c-.367 0-.72-.202-.896-.553-.789-1.578-3.039-4.193-5.718-4.495-.549-.062-.943-.557-.882-1.106.062-.548.549-.945 1.106-.882 3.489.393 6.267 3.557 7.282 5.588.247.494.047 1.095-.447 1.342-.143.072-.295.106-.445.106zm.458-5.417c-.32 0-.636-.154-.829-.439-.747-1.104-2.19-2.086-3.151-2.146-.551-.035-.97-.509-.935-1.061.034-.552.51-.981 1.06-.936 1.788.112 3.747 1.64 4.683 3.021.31.457.19 1.079-.268 1.389-.172.116-.366.172-.56.172z"/></svg></g>

<g class="stack" id="1f494"><svg viewBox="0 0 36 36"><g fill="#DD2E44"><path d="M13.589 26.521c-.297-.495-.284-1.117.035-1.599l4.395-6.646-5.995-5.139c-.556-.476-.686-1.283-.31-1.911l4.304-7.172c-1.669-1.301-3.755-2.09-6.035-2.09-5.45 0-9.868 4.417-9.868 9.868 0 .772.098 1.52.266 2.241C1.751 22.587 11.216 31.568 18 34.034c.025-.009.052-.022.077-.032l-4.488-7.481z"/><path d="M26.018 1.966c-2.765 0-5.248 1.151-7.037 2.983l-4.042 6.737 6.039 5.176c.574.492.691 1.335.274 1.966l-4.604 6.962 4.161 6.935c6.338-3.529 13.621-11.263 14.809-18.649.17-.721.268-1.469.268-2.241-.001-5.452-4.419-9.869-9.868-9.869z"/></g></svg></g>

<g class="stack" id="1f495"><svg viewBox="0 0 36 36"><path fill="#DD2E44" d="M24.77 19.715c0-3.757-3.045-6.801-6.801-6.801-2.28 0-4.292 1.125-5.526 2.845-1.234-1.72-3.247-2.845-5.526-2.845-3.756 0-6.801 3.044-6.801 6.801 0 .531.067 1.049.183 1.545.945 5.867 7.468 12.059 12.144 13.758 4.675-1.699 11.2-7.891 12.142-13.756.117-.498.185-1.016.185-1.547zM35.885 5.693c0-2.602-2.109-4.711-4.711-4.711-1.579 0-2.973.78-3.828 1.972-.855-1.191-2.249-1.972-3.827-1.972-2.602 0-4.711 2.109-4.711 4.711 0 .369.047.727.127 1.07.654 4.064 5.173 8.353 8.411 9.529 3.238-1.177 7.758-5.465 8.412-9.528.08-.344.127-.702.127-1.071z"/></svg></g>

<g class="stack" id="1f496"><svg viewBox="0 0 36 36"><path fill="#DD2E44" d="M35.885 11.833c0-5.45-4.418-9.868-9.867-9.868-3.308 0-6.227 1.633-8.018 4.129-1.791-2.496-4.71-4.129-8.017-4.129-5.45 0-9.868 4.417-9.868 9.868 0 .772.098 1.52.266 2.241C1.751 22.587 11.216 31.568 18 34.034c6.783-2.466 16.249-11.447 17.617-19.959.17-.721.268-1.469.268-2.242z"/><path fill="#FDCB58" d="M34.347 23.894l-3.824-1.416-1.416-3.824c-.145-.394-.52-.654-.938-.654-.418 0-.793.26-.938.653l-1.416 3.824-3.824 1.416c-.393.144-.653.519-.653.938 0 .418.261.793.653.938l3.824 1.416 1.416 3.824c.145.393.52.653.938.653.418 0 .793-.261.938-.653l1.416-3.824 3.824-1.416c.392-.145.653-.52.653-.938 0-.418-.261-.793-.653-.937zm-23-16.001l-2.365-.875-.875-2.365C7.961 4.26 7.587 4 7.169 4c-.419 0-.793.26-.938.653l-.876 2.365-2.364.875c-.393.146-.653.52-.653.938 0 .418.26.792.653.938l2.365.875.875 2.365c.146.393.52.653.938.653.418 0 .792-.26.938-.653l.875-2.365 2.365-.875c.393-.146.653-.519.653-.938 0-.418-.26-.792-.653-.938z"/></svg></g>

<g class="stack" id="1f497"><svg viewBox="0 0 36 36"><path fill="#F4ABBA" d="M35.885 11.833c0-5.45-4.418-9.868-9.867-9.868-3.308 0-6.227 1.633-8.018 4.129-1.791-2.496-4.71-4.129-8.017-4.129-5.45 0-9.868 4.417-9.868 9.868 0 .772.098 1.52.266 2.241C1.751 22.587 11.216 31.568 18 34.034c6.783-2.466 16.249-11.447 17.617-19.959.17-.721.268-1.469.268-2.242z"/><path fill="#EA596E" d="M31.423 13.372c0-4.091-3.315-7.406-7.405-7.406-2.482 0-4.673 1.225-6.018 3.099-1.344-1.874-3.535-3.099-6.017-3.099-4.09 0-7.406 3.315-7.406 7.406 0 .579.074 1.141.199 1.681C5.805 21.442 12.908 28.184 18 30.034c5.091-1.851 12.195-8.592 13.223-14.98.127-.541.2-1.103.2-1.682z"/><path fill="#DD2E44" d="M27.191 14.831c0-2.801-2.27-5.072-5.07-5.072-1.7 0-3.2.839-4.121 2.123-.92-1.284-2.421-2.123-4.121-2.123-2.801 0-5.072 2.271-5.072 5.072 0 .397.05.781.136 1.151.705 4.376 5.569 8.992 9.056 10.259 3.485-1.268 8.352-5.884 9.055-10.259.088-.37.137-.755.137-1.151z"/></svg></g>

<g class="stack" id="1f498"><svg viewBox="0 0 36 36"><path fill="#FFAC33" d="M16.13 17.444L2.129 3.445c-.391-.39 1.023-1.804 1.414-1.415l14.001 14c.391.391-1.219 1.61-1.414 1.414z"/><path fill="#DD2E44" d="M34.197 14.488c0-4.841-3.924-8.764-8.764-8.764-2.938 0-5.53 1.45-7.121 3.667-1.59-2.217-4.184-3.667-7.121-3.667-4.84 0-8.764 3.923-8.764 8.764 0 .686.087 1.351.236 1.99 1.217 7.562 9.624 15.538 15.649 17.729 6.024-2.19 14.432-10.167 15.647-17.728.151-.64.238-1.305.238-1.991z"/><path fill="#FFCC4D" d="M34.648 25.764s-4.509-4.45-6.41-4.45l-5.657-.009-1.195 1.195.009 5.657c0 1.901 4.45 6.41 4.45 6.41.858.787 1.925 1.204 2.695 1.204.634 0 1.14-.276 1.505-.775.31-.427.426-.992.426-1.682 0-1.254-.556-2.864-1.39-4.313 1.449.833 3.059 1.39 4.313 1.39.689 0 1.255-.116 1.682-.426.499-.365.775-.871.775-1.505.001-.771-.416-1.837-1.203-2.696z"/><path fill="#FFAC33" d="M31.569 32.542c-.256 0-.487-.122-.683-.317L17.497 18.827c-.391-.391 1.023-1.805 1.414-1.415l13.39 13.399c.391.391.378 1.036-.013 1.427-.194.194-.462.304-.719.304z"/><path fill="#FFCC4D" d="M.161 1.123c0-.259.101-.511.286-.701.248-.252.611-.355.955-.27l6.541 1.625c.452.113.73.521.759.989-.009.465-.337.864-.793.961-.144.031-3.636.833-4.005 4.051-.055.477-.44.848-.92.883-.478.036-.915-.274-1.039-.738L.195 1.381C.172 1.296.161 1.21.161 1.123z"/><path fill="#A0041E" d="M22.184 16.015c-.031.487-.415.89-.916.931-3.268.269-3.75 2.12-4.217 3.91l-.108.411c-.147.533-.697.846-1.229.7-.532-.147-.843-.694-.7-1.229l.103-.386c.489-1.875 1.306-5.013 5.988-5.399.551-.045 1.034.364 1.079.914.003.051.003.1 0 .148z"/></svg></g>

<g class="stack" id="1f499"><svg viewBox="0 0 36 36"><path fill="#5DADEC" d="M35.885 11.833c0-5.45-4.418-9.868-9.867-9.868-3.308 0-6.227 1.633-8.018 4.129-1.791-2.496-4.71-4.129-8.017-4.129-5.45 0-9.868 4.417-9.868 9.868 0 .772.098 1.52.266 2.241C1.751 22.587 11.216 31.568 18 34.034c6.783-2.466 16.249-11.447 17.617-19.959.17-.721.268-1.469.268-2.242z"/></svg></g>

<g class="stack" id="1f525"><svg viewBox="0 0 36 36"><path fill="#F4900C" d="M35 19c0-2.062-.367-4.039-1.04-5.868-.46 5.389-3.333 8.157-6.335 6.868-2.812-1.208-.917-5.917-.777-8.164.236-3.809-.012-8.169-6.931-11.794 2.875 5.5.333 8.917-2.333 9.125-2.958.231-5.667-2.542-4.667-7.042-3.238 2.386-3.332 6.402-2.333 9 1.042 2.708-.042 4.958-2.583 5.208-2.84.28-4.418-3.041-2.963-8.333C2.52 10.965 1 14.805 1 19c0 9.389 7.611 17 17 17s17-7.611 17-17z"/><path fill="#FFCC4D" d="M28.394 23.999c.148 3.084-2.561 4.293-4.019 3.709-2.106-.843-1.541-2.291-2.083-5.291s-2.625-5.083-5.708-6c2.25 6.333-1.247 8.667-3.08 9.084-1.872.426-3.753-.001-3.968-4.007C7.352 23.668 6 26.676 6 30c0 .368.023.73.055 1.09C9.125 34.124 13.342 36 18 36s8.875-1.876 11.945-4.91c.032-.36.055-.722.055-1.09 0-2.187-.584-4.236-1.606-6.001z"/></svg></g>

<g class="stack" id="1f600"><svg viewBox="0 0 36 36"><circle fill="#FFCC4D" cx="18" cy="18" r="18"/><path fill="#664500" d="M18 21c-3.623 0-6.027-.422-9-1-.679-.131-2 0-2 2 0 4 4.595 9 11 9 6.404 0 11-5 11-9 0-2-1.321-2.132-2-2-2.973.578-5.377 1-9 1z"/><path fill="#FFF" d="M9 22s3 1 9 1 9-1 9-1-2 4-9 4-9-4-9-4z"/><ellipse fill="#664500" cx="12" cy="13.5" rx="2.5" ry="3.5"/><ellipse fill="#664500" cx="24" cy="13.5" rx="2.5" ry="3.5"/></svg></g>

<g class="stack" id="1f601"><svg viewBox="0 0 36 36"><path fill="#FFCC4D" d="M36 18c0 9.941-8.059 18-18 18-9.94 0-18-8.059-18-18C0 8.06 8.06 0 18 0c9.941 0 18 8.06 18 18"/><path fill="#664500" d="M16 18c-.419 0-.809-.265-.949-.684C14.848 16.717 14.034 15 13 15c-1.062 0-1.888 1.827-2.051 2.316-.175.523-.738.808-1.265.632-.524-.174-.807-.741-.632-1.265C9.177 16.307 10.356 13 13 13s3.823 3.307 3.949 3.684c.175.524-.108 1.091-.632 1.265-.106.034-.213.051-.317.051zm10 0c-.419 0-.809-.265-.948-.684C24.849 16.717 24.033 15 23 15c-1.062 0-1.889 1.827-2.052 2.316-.175.523-.736.808-1.265.632-.523-.174-.807-.741-.632-1.265C19.177 16.307 20.355 13 23 13s3.823 3.307 3.948 3.684c.175.524-.108 1.091-.632 1.265-.105.034-.212.051-.316.051zm-8 4c-3.623 0-6.027-.422-9-1-.679-.131-2 0-2 2 0 4 4.595 9 11 9 6.404 0 11-5 11-9 0-2-1.321-2.132-2-2-2.973.578-5.377 1-9 1z"/><path fill="#FFF" d="M9 23s3 1 9 1 9-1 9-1-1.344 6.75-9 6.75S9 23 9 23z"/><path fill="#664500" d="M18 27.594c-3.596 0-6.272-.372-7.937-.745l-.825-1.871c.823.312 3.889.897 8.763.897 4.954 0 8.037-.616 8.864-.938l-.701 1.842c-1.634.38-4.419.815-8.164.815z"/></svg></g>

<g class="stack" id="1f602"><svg viewBox="0 0 36 36"><path fill="#FFCC4D" d="M36 18c0 9.941-8.059 18-18 18-9.94 0-18-8.059-18-18C0 8.06 8.06 0 18 0c9.941 0 18 8.06 18 18"/><path fill="#664500" d="M28.457 17.797c-.06-.135-1.499-3.297-4.457-3.297-2.957 0-4.397 3.162-4.457 3.297-.092.207-.032.449.145.591.175.142.426.147.61.014.012-.009 1.262-.902 3.702-.902 2.426 0 3.674.881 3.702.901.088.066.194.099.298.099.11 0 .221-.037.312-.109.177-.142.238-.386.145-.594zm-12 0c-.06-.135-1.499-3.297-4.457-3.297-2.957 0-4.397 3.162-4.457 3.297-.092.207-.032.449.144.591.176.142.427.147.61.014.013-.009 1.262-.902 3.703-.902 2.426 0 3.674.881 3.702.901.088.066.194.099.298.099.11 0 .221-.037.312-.109.178-.142.237-.386.145-.594zM31 16c-.396 0-.772-.238-.929-.629-1.778-4.445-6.223-5.381-6.268-5.391-.541-.108-.893-.635-.784-1.177.108-.542.635-.891 1.177-.784.226.045 5.556 1.168 7.732 6.608.205.513-.045 1.095-.558 1.3-.12.05-.246.073-.37.073zM5 16c-.124 0-.249-.023-.371-.072-.513-.205-.762-.787-.557-1.3 2.176-5.44 7.506-6.563 7.732-6.608.543-.106 1.068.243 1.177.784.108.54-.242 1.066-.781 1.176-.185.038-4.506.98-6.271 5.391-.157.391-.533.629-.929.629zm13 6c-3.623 0-6.027-.422-9-1-.679-.131-2 0-2 2 0 4 4.595 9 11 9 6.404 0 11-5 11-9 0-2-1.321-2.132-2-2-2.973.578-5.377 1-9 1z"/><path fill="#FFF" d="M9 23s3 1 9 1 9-1 9-1-2 4-9 4-9-4-9-4z"/><path fill="#5DADEC" d="M10.847 28.229c-.68 2.677-3.4 4.295-6.077 3.615-2.676-.679-4.295-3.399-3.616-6.076.679-2.677 6.337-8.708 7.307-8.462.97.247 3.065 8.247 2.386 10.923zm14.286 0c.68 2.677 3.4 4.295 6.077 3.615 2.677-.679 4.296-3.399 3.616-6.076-.68-2.677-6.338-8.708-7.308-8.462-.968.247-3.064 8.247-2.385 10.923z"/></svg></g>

<g class="stack" id="1f603"><svg viewBox="0 0 36 36"><path fill="#FFCC4D" d="M36 18c0 9.941-8.059 18-18 18-9.94 0-18-8.059-18-18C0 8.06 8.06 0 18 0c9.941 0 18 8.06 18 18"/><ellipse fill="#664500" cx="11.5" cy="12.5" rx="2.5" ry="5.5"/><ellipse fill="#664500" cx="24.5" cy="12.5" rx="2.5" ry="5.5"/><path fill="#664500" d="M18 22c-3.623 0-6.027-.422-9-1-.679-.131-2 0-2 2 0 4 4.595 9 11 9 6.404 0 11-5 11-9 0-2-1.321-2.132-2-2-2.973.578-5.377 1-9 1z"/><path fill="#FFF" d="M9 23s3 1 9 1 9-1 9-1-2 4-9 4-9-4-9-4z"/></svg></g>

<g class="stack" id="1f604"><svg viewBox="0 0 36 36"><path fill="#FFCC4D" d="M36 18c0 9.941-8.059 18-18 18-9.94 0-18-8.059-18-18C0 8.06 8.06 0 18 0c9.941 0 18 8.06 18 18"/><path fill="#664500" d="M28.457 17.797c-.06-.135-1.499-3.297-4.457-3.297-2.957 0-4.397 3.162-4.457 3.297-.092.207-.032.449.145.591.175.142.426.147.61.014.012-.009 1.262-.902 3.702-.902 2.426 0 3.674.881 3.702.901.088.066.194.099.298.099.11 0 .221-.037.312-.109.177-.142.238-.386.145-.594zm-12 0c-.06-.135-1.499-3.297-4.457-3.297-2.957 0-4.397 3.162-4.457 3.297-.092.207-.032.449.144.591.176.142.427.147.61.014.013-.009 1.262-.902 3.703-.902 2.426 0 3.674.881 3.702.901.088.066.194.099.298.099.11 0 .221-.037.312-.109.178-.142.237-.386.145-.594zM18 22c-3.623 0-6.027-.422-9-1-.679-.131-2 0-2 2 0 4 4.595 9 11 9 6.404 0 11-5 11-9 0-2-1.321-2.132-2-2-2.973.578-5.377 1-9 1z"/><path fill="#FFF" d="M9 23s3 1 9 1 9-1 9-1-2 4-9 4-9-4-9-4z"/></svg></g>

<g class="stack" id="1f605"><svg viewBox="0 0 36 36"><path fill="#FFCC4D" d="M36 18c0 9.941-8.059 18-18 18-9.94 0-18-8.059-18-18C0 8.06 8.06 0 18 0c9.941 0 18 8.06 18 18"/><path fill="#664500" d="M28.457 17.797c-.06-.135-1.499-3.297-4.457-3.297-2.957 0-4.397 3.162-4.457 3.297-.092.207-.032.449.145.591.175.142.426.147.61.014.012-.009 1.262-.902 3.702-.902 2.426 0 3.674.881 3.702.901.088.066.194.099.298.099.11 0 .221-.037.312-.109.177-.142.238-.386.145-.594zm-12 0c-.06-.135-1.499-3.297-4.457-3.297-2.957 0-4.397 3.162-4.457 3.297-.092.207-.032.449.144.591.176.142.427.147.61.014.013-.009 1.262-.902 3.703-.902 2.426 0 3.674.881 3.702.901.088.066.194.099.298.099.11 0 .221-.037.312-.109.178-.142.237-.386.145-.594zM18 22c-3.623 0-6.027-.422-9-1-.679-.131-2 0-2 2 0 4 4.595 9 11 9 6.404 0 11-5 11-9 0-2-1.321-2.132-2-2-2.973.578-5.377 1-9 1z"/><path fill="#FFF" d="M9 23s3 1 9 1 9-1 9-1-2 4-9 4-9-4-9-4z"/><path fill="#5DADEC" d="M35 11c0 2.762-2.238 5-5 5s-5-2.238-5-5 4-10 5-10 5 7.238 5 10z"/></svg></g>

<g class="stack" id="1f606"><svg viewBox="0 0 36 36"><path fill="#FFCC4D" d="M36 18c0 9.941-8.059 18-18 18-9.94 0-18-8.059-18-18C0 8.06 8.06 0 18 0c9.941 0 18 8.06 18 18"/><path fill="#664500" d="M18 22c-3.623 0-6.027-.422-9-1-.679-.131-2 0-2 2 0 4 4.595 9 11 9 6.404 0 11-5 11-9 0-2-1.321-2.132-2-2-2.973.578-5.377 1-9 1z"/><path fill="#FFF" d="M9 23s3 1 9 1 9-1 9-1-2 4-9 4-9-4-9-4z"/><path fill="#664500" d="M6.001 20c-.304 0-.604-.138-.801-.4-.332-.441-.242-1.068.2-1.399.143-.107 2.951-2.183 6.856-2.933C9.781 14.027 7.034 14 6.999 14c-.552-.002-.999-.45-.998-1.002 0-.551.447-.998.999-.998.221 0 5.452.038 8.707 3.293.286.286.372.716.217 1.09-.155.374-.52.617-.924.617-4.613 0-8.363 2.772-8.4 2.8-.18.135-.391.2-.599.2zm23.998-.001c-.208 0-.418-.064-.598-.198C29.363 19.772 25.59 17 21 17c-.404 0-.77-.243-.924-.617-.155-.374-.069-.804.217-1.09C23.549 12.038 28.779 12 29 12c.552 0 .998.447.999.998.001.552-.446 1-.997 1.002-.036 0-2.783.027-5.258 1.268 3.905.75 6.713 2.825 6.855 2.933.441.331.531.956.201 1.398-.196.261-.496.4-.801.4z"/></svg></g>

<g class="stack" id="1f607"><svg viewBox="0 0 36 36"><circle fill="#FFCC4D" cx="18" cy="18" r="18"/><path fill="#664500" d="M27.335 22.629c-.178-.161-.444-.171-.635-.029-.039.029-3.922 2.9-8.7 2.9-4.766 0-8.662-2.871-8.7-2.9-.191-.142-.457-.13-.635.029-.177.16-.217.424-.094.628C8.7 23.472 11.788 28.5 18 28.5s9.301-5.028 9.429-5.243c.123-.205.084-.468-.094-.628zM26 19c-.419 0-.809-.265-.948-.684C24.849 17.717 24.033 16 23 16c-1.062 0-1.889 1.827-2.052 2.316-.175.523-.736.808-1.265.632-.523-.174-.807-.74-.632-1.265C19.177 17.307 20.355 14 23 14s3.823 3.307 3.948 3.684c.175.524-.108 1.091-.632 1.265-.105.034-.212.051-.316.051zm-10 0c-.419 0-.809-.265-.949-.684C14.848 17.717 14.034 16 13 16c-1.062 0-1.888 1.827-2.051 2.316-.175.523-.738.808-1.265.632-.524-.174-.807-.74-.632-1.265C9.177 17.307 10.355 14 13 14s3.823 3.307 3.949 3.684c.175.524-.108 1.091-.632 1.265-.106.034-.213.051-.317.051z"/><path fill="#FFAC33" d="M33.175 8.316s-9.042.161-15.175.161c-3.905 0-15.206-.118-15.206-.118l-.521.876c3.043 1.856 9.064 2.917 15.727 2.917 6.596 0 12.576-1.04 15.652-2.86l.078-.047s-.374-.664-.555-.929z"/><path fill="#5DADEC" d="M23.777.345c-1.212-.094-2.473-.159-3.773-.19C19.343.139 18.676.129 18 .129c-.672 0-1.336.01-1.993.025-1.302.031-2.564.096-3.777.19C5.34.88.169 2.451.169 5.287c0 3.588 8.264 5.771 17.831 5.771s17.831-2.183 17.831-5.771c0-2.835-5.168-4.405-12.054-4.942zM18 7.383c-6.861 0-12.91-.833-12.91-2.736 0-.536.494-1.023 1.339-1.449 1.153-.581 2.978-1.044 5.189-1.349 1.911-.262 4.098-.41 6.382-.41 2.291 0 4.485.148 6.4.413 2.242.31 4.086.783 5.232 1.377.807.418 1.278.894 1.278 1.418 0 1.903-6.049 2.736-12.91 2.736z"/><path fill="#3B94D9" d="M24.4 1.853c2.242.31 4.086.783 5.232 1.377l.062.017c-2.285-1.674-4.57-2.56-5.917-2.902-1.212-.094-2.473-.159-3.773-.19l.018.007L24.4 1.853zM6.429 3.199c1.153-.581 2.978-1.044 5.189-1.349L15.984.162l.023-.008c-1.302.031-2.564.096-3.777.19-1.347.342-3.633 1.227-5.919 2.902l.118-.047z"/><path fill="#FFCC4D" d="M28.472 3.375c-.66-.443-1.346-.91-2.001-1.26C23.947.765 21.063 0 18 0c-2.929 0-5.695.7-8.14 1.941-1.089.553-1.881.999-2.17 1.434h20.782z"/></svg></g>

<g class="stack" id="1f608"><svg viewBox="0 0 36 36"><circle fill="#AA8DD8" cx="18" cy="18" r="18"/><path fill="#AA8DD8" d="M10 4C7.42 4 4.369 1.534 3.414.586 2.843.014 1.981-.157 1.235.153.487.462 0 1.191 0 2c0 3.459 1.672 10 8 10 .757 0 1.45-.428 1.789-1.106l2-4c.31-.62.277-1.356-.088-1.946C11.337 4.359 10.693 4 10 4zM34.766.153c-.75-.311-1.607-.139-2.18.434C31.7 1.472 28.589 4 26 4c-.693 0-1.337.359-1.701.949-.364.589-.397 1.326-.088 1.946l2 4C26.55 11.572 27.242 12 28 12c6.328 0 8-6.541 8-10 0-.809-.487-1.538-1.234-1.847z"/><path fill="#553986" d="M27.335 25.629c-.178-.161-.444-.171-.635-.029-.039.029-3.922 2.9-8.7 2.9-4.766 0-8.662-2.871-8.7-2.9-.191-.142-.457-.13-.635.029-.177.16-.217.424-.094.628C8.7 26.472 11.788 31.5 18 31.5s9.301-5.028 9.429-5.243c.123-.205.084-.468-.094-.628zm-11.628-7.336C12.452 15.038 7.221 15 7 15c-.552 0-.999.447-.999.998-.001.552.446 1.001.998 1.002.029 0 1.925.022 3.983.737-.593.64-.982 1.634-.982 2.763 0 1.934 1.119 3.5 2.5 3.5s2.5-1.566 2.5-3.5c0-.174-.019-.34-.037-.507.013 0 .025.007.037.007.256 0 .512-.098.707-.293.391-.391.391-1.023 0-1.414zM29 15c-.221 0-5.451.038-8.707 3.293-.391.391-.391 1.023 0 1.414.195.195.451.293.707.293.013 0 .024-.007.036-.007-.016.167-.036.333-.036.507 0 1.934 1.119 3.5 2.5 3.5s2.5-1.566 2.5-3.5c0-1.129-.389-2.123-.982-2.763 2.058-.715 3.954-.737 3.984-.737.551-.001.998-.45.997-1.002-.001-.551-.447-.998-.999-.998z"/></svg></g>

<g class="stack" id="1f609"><svg viewBox="0 0 36 36"><path fill="#FFCC4D" d="M36 18c0 9.941-8.059 18-18 18-9.94 0-18-8.059-18-18C0 8.06 8.06 0 18 0c9.941 0 18 8.06 18 18"/><ellipse fill="#664500" cx="11.5" cy="16.5" rx="2.5" ry="3.5"/><path fill="#664500" d="M28.457 17.797c-.06-.135-1.499-3.297-4.457-3.297-2.957 0-4.397 3.162-4.457 3.297-.092.207-.032.449.145.591.175.142.426.147.61.014.012-.009 1.262-.902 3.702-.902 2.426 0 3.674.881 3.702.901.088.066.194.099.298.099.11 0 .221-.037.312-.109.177-.142.238-.386.145-.594zM5.999 12.458c-.208 0-.419-.065-.599-.2-.442-.331-.531-.958-.2-1.4 3.262-4.35 7.616-4.4 7.8-4.4.552 0 1 .448 1 1 0 .551-.445.998-.996 1-.156.002-3.569.086-6.205 3.6-.195.262-.496.4-.8.4zm23.002 2.125c-.305 0-.604-.138-.801-.4-2.592-3.457-6.961-2.627-7.004-2.62-.547.108-1.068-.243-1.177-.784-.108-.542.243-1.068.784-1.177.231-.047 5.657-1.072 8.996 3.38.332.442.242 1.069-.2 1.4-.179.137-.389.201-.598.201zm-5.747 8.994c-.188-.11-.432-.087-.597.06-.01.008-1.013.863-4.657.863-3.641 0-4.646-.854-4.646-.854-.159-.16-.404-.19-.6-.082-.195.111-.293.339-.238.557.01.044 1.144 4.379 5.484 4.379s5.474-4.335 5.485-4.379c.053-.213-.044-.431-.231-.544z"/></svg></g>

<g class="stack" id="1f610"><svg viewBox="0 0 36 36"><path fill="#FFCC4D" d="M36 18c0 9.941-8.059 18-18 18-9.94 0-18-8.059-18-18C0 8.06 8.06 0 18 0c9.941 0 18 8.06 18 18"/><ellipse fill="#664500" cx="11.5" cy="16.5" rx="2.5" ry="3.5"/><ellipse fill="#664500" cx="24.5" cy="16.5" rx="2.5" ry="3.5"/><path fill="#664500" d="M25 26H11c-.552 0-1-.447-1-1s.448-1 1-1h14c.553 0 1 .447 1 1s-.447 1-1 1z"/></svg></g>

<g class="stack" id="1f611"><svg viewBox="0 0 36 36"><path fill="#FFCC4D" d="M36 18c0 9.941-8.059 18-18 18-9.94 0-18-8.059-18-18C0 8.06 8.06 0 18 0c9.941 0 18 8.06 18 18"/><path fill="#664500" d="M25 26H11c-.552 0-1-.447-1-1s.448-1 1-1h14c.553 0 1 .447 1 1s-.447 1-1 1zm-10-8H8c-.552 0-1-.448-1-1s.448-1 1-1h7c.552 0 1 .448 1 1s-.448 1-1 1zm13 0h-7c-.553 0-1-.448-1-1s.447-1 1-1h7c.553 0 1 .448 1 1s-.447 1-1 1z"/></svg></g>

<g class="stack" id="1f612"><svg viewBox="0 0 36 36"><path fill="#FFCC4D" d="M36 18c0 9.941-8.059 18-18 18-9.94 0-18-8.059-18-18C0 8.06 8.06 0 18 0c9.941 0 18 8.06 18 18"/><path fill="#664500" d="M25.485 27.879C25.44 27.7 24.317 23.5 18 23.5c-6.318 0-7.44 4.2-7.485 4.379-.055.217.043.442.237.554.195.111.439.078.6-.077.019-.019 1.954-1.856 6.648-1.856s6.63 1.837 6.648 1.855c.096.095.224.145.352.145.084 0 .169-.021.246-.064.196-.112.294-.339.239-.557zM29.001 14c-.305 0-.604-.138-.801-.4-2.432-3.244-6.514-.846-6.686-.743-.475.285-1.089.13-1.372-.343-.284-.474-.131-1.088.343-1.372 1.998-1.199 6.514-2.477 9.314 1.257.332.442.242 1.069-.2 1.4-.179.136-.389.201-.598.201zM6.999 14c-.208 0-.419-.065-.599-.2-.442-.331-.531-.958-.2-1.4 2.801-3.734 7.317-2.456 9.314-1.257.474.284.627.898.343 1.372-.284.473-.896.628-1.37.344-.179-.106-4.274-2.475-6.688.742-.195.261-.496.399-.8.399zM29 16c0-.552-.447-1-1-1h-7c-.553 0-1 .448-1 1s.447 1 1 1h5.092c.207.581.756 1 1.408 1 .828 0 1.5-.671 1.5-1.5 0-.11-.014-.217-.036-.321.012-.06.036-.116.036-.179zm-13 0c0-.552-.448-1-1-1H8c-.552 0-1 .448-1 1s.448 1 1 1h5.092c.207.581.756 1 1.408 1 .828 0 1.5-.671 1.5-1.5 0-.11-.014-.217-.036-.321.011-.06.036-.116.036-.179z"/></svg></g>

<g class="stack" id="1f613"><svg viewBox="0 0 36 36"><path fill="#FFCC4D" d="M36 18c0 9.941-8.059 18-18 18-9.94 0-18-8.059-18-18C0 8.06 8.06 0 18 0c9.941 0 18 8.06 18 18"/><path fill="#664500" d="M28.457 17.797c-.06-.135-1.499-3.297-4.457-3.297-2.957 0-4.397 3.162-4.457 3.297-.092.207-.032.449.145.591.175.142.426.147.61.014.012-.009 1.262-.902 3.702-.902 2.426 0 3.674.881 3.702.901.088.066.194.099.298.099.11 0 .221-.037.312-.109.177-.142.238-.386.145-.594zm-11 0c-.06-.135-1.499-3.297-4.457-3.297-2.957 0-4.397 3.162-4.457 3.297-.092.207-.032.449.144.591.176.142.427.147.61.014.013-.009 1.262-.902 3.703-.902 2.426 0 3.674.881 3.702.901.089.066.194.099.298.099.11 0 .221-.037.312-.109.178-.142.237-.386.145-.594zM13 28s1-4 5-4 5 4 5 4-1-1-5-1-5 1-5 1z"/><path fill="#5DADEC" d="M11 11c0 2.762-2.238 5-5 5-2.761 0-5-2.238-5-5S5 1 6 1s5 7.238 5 10z"/></svg></g>

<g class="stack" id="1f614"><svg viewBox="0 0 36 36"><path fill="#FFCC4D" d="M36 18c0 9.941-8.059 18-18 18-9.94 0-18-8.059-18-18C0 8.06 8.06 0 18 0c9.941 0 18 8.06 18 18"/><path fill="#664500" d="M17.312 17.612c-.176-.143-.427-.147-.61-.014-.012.009-1.26.902-3.702.902-2.441 0-3.69-.893-3.7-.9-.183-.137-.435-.133-.611.009-.178.142-.238.386-.146.594.06.135 1.5 3.297 4.457 3.297 2.958 0 4.397-3.162 4.457-3.297.092-.207.032-.449-.145-.591zm10 0c-.176-.143-.426-.148-.61-.014-.012.009-1.261.902-3.702.902-2.44 0-3.69-.893-3.7-.9-.183-.137-.434-.133-.611.009-.178.142-.238.386-.146.594.06.135 1.5 3.297 4.457 3.297 2.958 0 4.397-3.162 4.457-3.297.092-.207.032-.449-.145-.591zM22 28h-8c-.552 0-1-.447-1-1s.448-1 1-1h8c.553 0 1 .447 1 1s-.447 1-1 1zM6 14c-.552 0-1-.448-1-1 0-.551.445-.998.996-1 .156-.002 3.569-.086 6.205-3.6.331-.44.957-.532 1.4-.2.442.331.531.958.2 1.4C10.538 13.95 6.184 14 6 14zm24 0c-.184 0-4.537-.05-7.8-4.4-.332-.442-.242-1.069.2-1.4.441-.333 1.067-.242 1.399.2 2.641 3.521 6.061 3.599 6.206 3.6.55.006.994.456.991 1.005-.002.551-.446.995-.996.995z"/></svg></g>

<g class="stack" id="1f615"><svg viewBox="0 0 36 36"><path fill="#FFCC4D" d="M36 18c0 9.941-8.059 18-18 18-9.94 0-18-8.059-18-18C0 8.06 8.06 0 18 0c9.941 0 18 8.06 18 18"/><ellipse fill="#664500" cx="11.5" cy="16.5" rx="2.5" ry="3.5"/><ellipse fill="#664500" cx="24.5" cy="16.5" rx="2.5" ry="3.5"/><path fill="#664500" d="M12 28c2-5 13-5 13-3 0 1-8-1-13 3z"/></svg></g>

<g class="stack" id="1f616"><svg viewBox="0 0 36 36"><path fill="#FFCC4D" d="M36 18c0 9.941-8.059 18-18 18-9.94 0-18-8.059-18-18C0 8.06 8.06 0 18 0c9.941 0 18 8.06 18 18"/><path fill="#664500" d="M6 13c-.552 0-1-.448-1-1 0-.551.445-.998.996-1 .156-.002 3.569-.086 6.205-3.6.331-.44.957-.532 1.4-.2.442.331.531.958.2 1.4C10.538 12.95 6.184 13 6 13zm24 0c-.184 0-4.537-.05-7.8-4.4-.332-.442-.242-1.069.2-1.4.441-.333 1.067-.242 1.399.2 2.641 3.521 6.061 3.599 6.206 3.6.55.006.994.456.991 1.005-.002.551-.446.995-.996.995zM6.001 22c-.304 0-.604-.138-.801-.4-.332-.441-.242-1.068.2-1.399.143-.107 2.951-2.183 6.856-2.933C9.781 16.027 7.034 16 6.999 16c-.552-.002-.999-.45-.998-1.002 0-.551.447-.998.999-.998.221 0 5.452.038 8.707 3.293.286.286.372.716.217 1.09-.155.374-.52.617-.924.617-4.613 0-8.363 2.772-8.4 2.8-.18.135-.391.2-.599.2zm23.998-.001c-.208 0-.418-.064-.598-.198C29.363 21.772 25.59 19 21 19c-.404 0-.77-.243-.924-.617-.155-.374-.069-.804.217-1.09C23.549 14.038 28.779 14 29 14c.552 0 .998.447.999.998.001.552-.446 1-.997 1.002-.036 0-2.783.027-5.258 1.268 3.905.75 6.713 2.825 6.855 2.933.441.331.531.956.201 1.398-.196.261-.496.4-.801.4zM18 30c-.304 0-.591-.138-.781-.375l-3.194-3.992L11.8 28.6c-.174.232-.44.377-.729.397-.29.021-.574-.085-.778-.29l-1-1c-.391-.391-.391-1.023 0-1.414s1.023-.391 1.414 0l.185.185L13.2 23.4c.186-.248.475-.396.784-.4.295-.01.603.133.796.375L18 27.399l3.219-4.024c.193-.241.484-.375.797-.375.31.005.599.152.784.4l2.309 3.077.185-.185c.391-.391 1.023-.391 1.414 0s.391 1.023 0 1.414l-1 1c-.205.205-.479.314-.778.29-.289-.021-.555-.165-.729-.397l-2.226-2.967-3.193 3.992c-.191.238-.478.376-.782.376z"/></svg></g>

<g class="stack" id="1f617"><svg viewBox="0 0 36 36"><path fill="#FFCC4D" d="M36 18c0 9.941-8.059 18-18 18-9.94 0-18-8.059-18-18C0 8.06 8.06 0 18 0c9.941 0 18 8.06 18 18"/><ellipse fill="#664500" cx="12.5" cy="15.5" rx="2.5" ry="3.5"/><ellipse fill="#664500" cx="23.5" cy="15.5" rx="2.5" ry="3.5"/><path fill="#664500" d="M20.871 28c1.335-.412 2.629-1.156 2.629-2.5 0-2.619-4.912-2.968-5.472-2.999-.274-.027-.509.193-.527.468-.017.274.19.511.464.53.035.002 3.535.299 3.535 2.001s-3.5 1.999-3.535 2.001c-.013.001-.023.008-.036.01-.053.006-.102.018-.149.041l-.015.009c-.048.027-.091.059-.127.1-.014.015-.023.031-.035.047-.023.032-.044.064-.06.103-.012.029-.018.061-.024.092-.004.023-.016.044-.018.067 0 .011.004.021.004.031s-.005.021-.004.031c.001.024.013.045.018.068.006.031.011.061.023.09.013.03.031.057.049.084.017.024.032.05.052.071.023.023.05.041.078.061.024.017.046.034.074.047.032.015.066.021.101.027.024.006.044.018.069.02.035.001 3.535.298 3.535 2s-3.5 1.999-3.535 2.001c-.274.02-.481.257-.464.53.017.265.237.469.499.469l.028-.001c.56-.031 5.472-.38 5.472-2.999 0-1.344-1.294-2.088-2.629-2.5z"/></svg></g>

<g class="stack" id="1f618"><svg viewBox="0 0 36 36"><circle fill="#FFCC4D" cx="18" cy="18" r="18"/><ellipse fill="#664500" cx="11.5" cy="15.5" rx="2.5" ry="3.5"/><path fill="#664500" d="M28.457 17.797c-.06-.135-1.499-3.297-4.457-3.297-2.957 0-4.397 3.162-4.457 3.297-.092.207-.032.449.145.591.175.142.426.147.61.014.012-.009 1.262-.902 3.702-.902 2.426 0 3.674.881 3.702.901.088.066.194.099.298.099.11 0 .221-.037.312-.109.177-.142.238-.386.145-.594zM5.999 11c-.208 0-.419-.065-.599-.2-.442-.331-.531-.958-.2-1.4C8.462 5.05 12.816 5 13 5c.552 0 1 .448 1 1 0 .551-.445.998-.996 1-.155.002-3.568.086-6.204 3.6-.196.262-.497.4-.801.4zm23.002 3c-.305 0-.604-.138-.801-.4-2.592-3.456-6.961-2.628-7.004-2.62-.547.11-1.068-.244-1.177-.784-.108-.541.243-1.068.784-1.177.231-.047 5.657-1.072 8.996 3.38.332.442.242 1.069-.2 1.4-.179.136-.389.201-.598.201zm-8.922 13.042c1.335-.412 2.629-1.156 2.629-2.5 0-2.619-4.912-2.968-5.472-2.999-.274-.026-.509.193-.527.468-.017.274.19.511.464.53.035.002 3.535.299 3.535 2.001s-3.5 1.999-3.535 2.001c-.014.001-.024.009-.037.011-.052.006-.101.018-.146.04l-.019.011c-.047.026-.088.057-.125.098-.014.015-.024.031-.036.048-.023.032-.044.063-.059.102-.012.029-.018.061-.024.092-.004.023-.016.044-.018.067 0 .011.004.021.004.031s-.005.021-.004.031c.001.024.013.045.018.068.006.031.011.061.023.09.013.03.031.057.049.084.017.024.032.05.052.071.023.023.05.041.078.061.024.017.046.034.074.047.032.015.066.021.101.027.024.006.044.018.069.02.035.002 3.535.299 3.535 2.001s-3.5 1.999-3.535 2.001c-.274.02-.481.257-.464.53.017.265.237.469.499.469l.028-.001c.56-.031 5.472-.38 5.472-2.999 0-1.345-1.294-2.089-2.629-2.501z"/><path fill="#FFAC33" d="M34.202 25.803c-.236-.79-.779-1.486-1.578-1.875-.922-.449-1.956-.391-2.793.06-.16-.936-.75-1.789-1.67-2.237-1.517-.74-3.348-.11-4.087 1.406-.105.215-.18.437-.23.659-.775 2.556.64 6.341 2.192 7.948 1.23.13 2.953-.198 4.513-.873 1.5-1.46 2.733-3.183 3.653-5.088z"/><path fill="#DD2E44" d="M35.654 27.222c.739-1.516.11-3.347-1.405-4.086-.922-.449-1.956-.391-2.793.06-.16-.936-.75-1.789-1.67-2.237-1.517-.74-3.348-.109-4.087 1.406-.105.215-.18.437-.23.659-.774 2.556.64 6.341 2.192 7.948 2.223.234 6.077-.979 7.615-3.161.145-.179.273-.374.378-.589z"/></svg></g>

<g class="stack" id="1f619"><svg viewBox="0 0 36 36"><path fill="#FFCC4D" d="M36 18c0 9.941-8.059 18-18 18-9.94 0-18-8.059-18-18C0 8.06 8.06 0 18 0c9.941 0 18 8.06 18 18"/><path fill="#664500" d="M20.871 28c1.335-.412 2.629-1.156 2.629-2.5 0-2.619-4.912-2.968-5.472-2.999-.274-.027-.509.193-.527.468-.017.274.19.511.464.53.035.002 3.535.299 3.535 2.001s-3.5 1.999-3.535 2.001c-.013.001-.023.008-.036.01-.053.006-.102.018-.149.041l-.015.009c-.048.027-.091.059-.127.1-.014.015-.023.031-.035.047-.023.032-.044.064-.06.103-.012.029-.018.061-.024.092-.004.023-.016.044-.018.067 0 .011.004.021.004.031s-.005.021-.004.031c.001.024.013.045.018.068.006.031.011.061.023.09.013.03.031.057.049.084.017.024.032.05.052.071.023.023.05.041.078.061.024.017.046.034.074.047.032.015.066.021.101.027.024.006.044.018.069.02.035.001 3.535.298 3.535 2s-3.5 1.999-3.535 2.001c-.274.02-.481.257-.464.53.017.265.237.469.499.469l.028-.001c.56-.031 5.472-.38 5.472-2.999 0-1.344-1.294-2.088-2.629-2.5zM16 19c-.419 0-.809-.265-.949-.684C14.848 17.717 14.034 16 13 16c-1.062 0-1.888 1.827-2.051 2.316-.175.523-.738.808-1.265.632-.524-.174-.807-.74-.632-1.265C9.177 17.307 10.356 14 13 14s3.823 3.307 3.949 3.684c.175.524-.108 1.091-.632 1.265-.106.034-.213.051-.317.051zm10 0c-.419 0-.809-.265-.948-.684C24.849 17.717 24.033 16 23 16c-1.062 0-1.889 1.827-2.052 2.316-.175.523-.736.808-1.265.632-.523-.174-.807-.74-.632-1.265C19.177 17.307 20.355 14 23 14s3.823 3.307 3.948 3.684c.175.524-.108 1.091-.632 1.265-.105.034-.212.051-.316.051z"/></svg></g>

<g class="stack" id="1f620"><svg viewBox="0 0 36 36"><path fill="#FFCC4D" d="M36 18c0 9.941-8.059 18-18 18-9.94 0-18-8.059-18-18C0 8.06 8.06 0 18 0c9.941 0 18 8.06 18 18"/><path fill="#664500" d="M25.485 29.879C25.44 29.7 24.317 25.5 18 25.5c-6.318 0-7.44 4.2-7.485 4.379-.055.217.043.442.237.554.195.109.439.079.6-.077.019-.019 1.954-1.856 6.648-1.856s6.63 1.837 6.648 1.855c.096.095.224.145.352.145.084 0 .169-.021.246-.064.196-.112.294-.339.239-.557zm-9.778-12.586C12.452 14.038 7.221 14 7 14c-.552 0-.999.447-.999.998-.001.552.446 1 .998 1.002.029 0 1.925.022 3.983.737-.593.64-.982 1.634-.982 2.763 0 1.934 1.119 3.5 2.5 3.5s2.5-1.566 2.5-3.5c0-.174-.019-.34-.037-.507.013 0 .025.007.037.007.256 0 .512-.098.707-.293.391-.391.391-1.023 0-1.414zM29 14c-.221 0-5.451.038-8.707 3.293-.391.391-.391 1.023 0 1.414.195.195.451.293.707.293.013 0 .024-.007.036-.007-.016.167-.036.333-.036.507 0 1.934 1.119 3.5 2.5 3.5s2.5-1.566 2.5-3.5c0-1.129-.389-2.123-.982-2.763 2.058-.715 3.954-.737 3.984-.737.551-.002.998-.45.997-1.002-.001-.551-.447-.998-.999-.998z"/></svg></g>

<g class="stack" id="1f621"><svg viewBox="0 0 36 36"><path fill="#DA2F47" d="M36 18c0 9.941-8.059 18-18 18-9.94 0-18-8.059-18-18C0 8.06 8.06 0 18 0c9.941 0 18 8.06 18 18"/><path fill="#292F33" d="M25.485 29.879C25.44 29.7 24.317 25.5 18 25.5c-6.318 0-7.44 4.2-7.485 4.379-.055.217.043.442.237.554.195.109.439.079.6-.077.019-.019 1.954-1.856 6.648-1.856s6.63 1.837 6.648 1.855c.096.095.224.145.352.145.084 0 .169-.021.246-.064.196-.112.294-.339.239-.557zm-9.778-12.586C12.452 14.038 7.221 14 7 14c-.552 0-.999.447-.999.998-.001.552.446 1 .998 1.002.029 0 1.925.022 3.983.737-.593.64-.982 1.634-.982 2.763 0 1.934 1.119 3.5 2.5 3.5s2.5-1.566 2.5-3.5c0-.174-.019-.34-.037-.507.013 0 .025.007.037.007.256 0 .512-.098.707-.293.391-.391.391-1.023 0-1.414zM29 14c-.221 0-5.451.038-8.707 3.293-.391.391-.391 1.023 0 1.414.195.195.451.293.707.293.013 0 .024-.007.036-.007-.016.167-.036.333-.036.507 0 1.934 1.119 3.5 2.5 3.5s2.5-1.566 2.5-3.5c0-1.129-.389-2.123-.982-2.763 2.058-.715 3.954-.737 3.984-.737.551-.002.998-.45.997-1.002-.001-.551-.447-.998-.999-.998z"/></svg></g>

<g class="stack" id="1f622"><svg viewBox="0 0 36 36"><path fill="#FFCC4D" d="M36 18c0 9.941-8.059 18-18 18-9.94 0-18-8.059-18-18C0 8.06 8.06 0 18 0c9.941 0 18 8.06 18 18"/><ellipse fill="#664500" cx="11.5" cy="17" rx="2.5" ry="3.5"/><ellipse fill="#664500" cx="24.5" cy="17" rx="2.5" ry="3.5"/><path fill="#664500" d="M5.999 13.5c-.208 0-.419-.065-.599-.2-.442-.331-.531-.958-.2-1.4 3.262-4.35 7.616-4.4 7.8-4.4.552 0 1 .448 1 1 0 .551-.445.998-.996 1-.155.002-3.568.086-6.204 3.6-.196.262-.497.4-.801.4zm24.002 0c-.305 0-.604-.138-.801-.4-2.641-3.521-6.061-3.599-6.206-3.6-.55-.006-.994-.456-.991-1.005.003-.551.447-.995.997-.995.184 0 4.537.05 7.8 4.4.332.442.242 1.069-.2 1.4-.18.135-.39.2-.599.2zm-6.516 14.879C23.474 28.335 22.34 24 18 24s-5.474 4.335-5.485 4.379c-.053.213.044.431.232.544.188.112.433.086.596-.06C13.352 28.855 14.356 28 18 28c3.59 0 4.617.83 4.656.863.095.09.219.137.344.137.084 0 .169-.021.246-.064.196-.112.294-.339.239-.557z"/><path fill="#5DADEC" d="M16 31c0 2.762-2.238 5-5 5s-5-2.238-5-5 4-10 5-10 5 7.238 5 10z"/></svg></g>

<g class="stack" id="1f623"><svg viewBox="0 0 36 36"><path fill="#FFCC4D" d="M36 18c0 9.941-8.059 18-18 18S0 27.941 0 18 8.059 0 18 0s18 8.059 18 18"/><path fill="#664500" d="M29 10c-5.554 0-7.802-4.367-7.895-4.553-.247-.494-.047-1.095.447-1.342.493-.246 1.092-.048 1.34.443C22.967 4.694 24.713 8 29 8c.553 0 1 .448 1 1s-.447 1-1 1zM7 10c-.552 0-1-.448-1-1s.448-1 1-1c5.083 0 5.996-3.12 6.033-3.253.145-.528.692-.848 1.219-.709.53.139.851.673.718 1.205C14.921 5.437 13.704 10 7 10zm-.999 13c-.304 0-.604-.138-.801-.4-.332-.441-.242-1.068.2-1.399.143-.107 2.951-2.183 6.856-2.933C9.781 17.027 7.034 17 6.999 17c-.552-.001-.999-.45-.998-1.002 0-.551.447-.998.999-.998.221 0 5.452.038 8.707 3.293.286.286.372.716.217 1.09-.155.374-.52.617-.924.617-4.613 0-8.363 2.772-8.4 2.8-.18.135-.391.2-.599.2zm23.998-.001c-.208 0-.418-.064-.598-.198C29.363 22.772 25.59 20 21 20c-.404 0-.77-.243-.924-.617-.155-.374-.069-.804.217-1.09C23.549 15.038 28.779 15 29 15c.552 0 .998.447.999.998.001.552-.446 1-.997 1.002-.036 0-2.783.027-5.258 1.268 3.905.75 6.713 2.825 6.855 2.933.441.331.531.956.201 1.398-.196.261-.496.4-.801.4zm-4.545 7.792c-.118-.257-2.938-6.291-7.21-6.291-4.249 0-7.546 6.007-7.684 6.262-.113.209-.063.469.119.621.093.078.207.117.321.117.11 0 .22-.036.311-.109.031-.024 3.163-2.479 6.933-2.479 3.743 0 6.388 2.43 6.414 2.454.175.162.442.18.634.04.194-.14.262-.397.162-.615z"/></svg></g>

<g class="stack" id="1f624"><svg viewBox="0 0 36 36"><path fill="#FFCC4D" d="M36 18c0 9.941-8.059 18-18 18S0 27.941 0 18 8.059 0 18 0s18 8.059 18 18"/><path fill="#664500" d="M20.001 13c-.055 0-.109-.004-.165-.014-.545-.091-.913-.606-.822-1.151C19.407 9.471 21.584 5 27 5c.553 0 1 .448 1 1s-.447 1-1 1c-5.095 0-5.979 4.954-6.014 5.165-.081.488-.505.835-.985.835zm-4.002 0c-.479 0-.902-.345-.985-.833C14.977 11.957 14.059 7 9 7c-.552 0-1-.448-1-1s.448-1 1-1c5.416 0 7.592 4.471 7.986 6.835.091.545-.277 1.06-.822 1.151-.055.01-.111.014-.165.014zm-4.589 4.892c-2.335 0-3.87-.997-3.964-1.06-.459-.306-.583-.927-.277-1.387.306-.46.926-.585 1.387-.277.099.064 2.602 1.636 5.998-.062.495-.247 1.095-.046 1.342.447.247.494.047 1.095-.447 1.342-1.495.746-2.868.997-4.039.997zm13.181 0c-1.172 0-2.545-.251-4.038-.998-.494-.247-.694-.848-.447-1.342.248-.494.848-.694 1.342-.447 3.4 1.7 5.899.126 6.004.059.46-.298 1.081-.17 1.382.289.302.459.179 1.074-.278 1.379-.096.063-1.631 1.06-3.965 1.06zM26.001 27c-.305 0-.604-.138-.801-.4-.025-.034-2.782-3.6-7.2-3.6-4.417 0-7.174 3.566-7.202 3.603-.333.438-.961.525-1.4.194-.44-.332-.529-.956-.198-1.397.135-.18 3.362-4.4 8.8-4.4s8.665 4.221 8.8 4.4c.332.441.242 1.068-.2 1.399-.18.136-.39.201-.599.201z"/><path fill="#F5F8FA" d="M15.391 20.08c-.453-.195-.979-.027-1.239.39l-5 8c-.192.309-.203.697-.026 1.015.176.318.51.515.874.515h3c.459 0 .859-.312.97-.758l2-8c.119-.476-.126-.97-.579-1.162zm11.457 8.39l-5-8c-.262-.418-.787-.584-1.238-.39-.453.192-.699.686-.579 1.162l2 8c.111.446.51.758.969.758h3c.363 0 .698-.197.875-.516.176-.317.166-.706-.027-1.014z"/><path fill="#E1E8ED" d="M31.982 30.178c.003-.06.018-.117.018-.178 0-1.656-1.344-3-3-3-1.027 0-1.932.518-2.473 1.305C26.057 28.11 25.541 28 25 28c-2.209 0-4 1.791-4 4s1.791 4 4 4c1.365 0 2.568-.687 3.29-1.731C28.77 35.289 29.798 36 31 36c1.657 0 3-1.343 3-3 0-1.312-.846-2.414-2.018-2.822zM11 28c-.542 0-1.056.11-1.527.305C8.932 27.518 8.027 27 7 27c-1.656 0-3 1.344-3 3 0 .061.014.118.018.178C2.846 30.586 2 31.688 2 33c0 1.657 1.343 3 3 3 1.202 0 2.231-.711 2.709-1.731C8.432 35.313 9.634 36 11 36c2.209 0 4-1.791 4-4s-1.791-4-4-4z"/></svg></g>

<g class="stack" id="1f625"><svg viewBox="0 0 36 36"><path fill="#FFCC4D" d="M36 18c0 9.941-8.059 18-18 18-9.94 0-18-8.059-18-18C0 8.06 8.06 0 18 0c9.941 0 18 8.06 18 18"/><ellipse fill="#664500" cx="11.5" cy="16.5" rx="2.5" ry="3.5"/><ellipse fill="#664500" cx="24.5" cy="16.5" rx="2.5" ry="3.5"/><path fill="#664500" d="M23.485 27.879C23.474 27.835 22.34 23.5 18 23.5s-5.474 4.335-5.485 4.379c-.053.213.044.431.232.544.188.112.433.086.596-.06.009-.007 1.013-.863 4.657-.863 3.59 0 4.617.83 4.656.863.095.091.219.137.344.137.084 0 .169-.021.246-.064.196-.111.294-.339.239-.557z"/><path fill="#5DADEC" d="M10 30c0 2.762-2.238 5-5 5s-5-2.238-5-5 4-10 5-10 5 7.238 5 10z"/><path fill="#664500" d="M30 13c-5.554 0-7.802-4.367-7.895-4.553-.247-.494-.047-1.095.447-1.342.492-.247 1.092-.048 1.34.443C23.967 7.694 25.713 11 30 11c.553 0 1 .448 1 1 0 .553-.447 1-1 1zM6 13c-.552 0-1-.448-1-1s.448-1 1-1c5.083 0 5.996-3.12 6.033-3.253.145-.528.69-.848 1.219-.709.53.139.851.673.718 1.205C13.921 8.437 12.704 13 6 13z"/></svg></g>

<g class="stack" id="1f626"><svg viewBox="0 0 36 36"><path fill="#FFCC4D" d="M36 18c0 9.941-8.059 18-18 18-9.94 0-18-8.059-18-18C0 8.06 8.06 0 18 0c9.941 0 18 8.06 18 18"/><ellipse fill="#664500" cx="11.5" cy="16.5" rx="2.5" ry="3.5"/><ellipse fill="#664500" cx="24.5" cy="16.5" rx="2.5" ry="3.5"/><path fill="#664500" d="M23.485 27.879C23.474 27.835 22.34 23.5 18 23.5s-5.474 4.335-5.485 4.379c-.053.213.044.431.232.544.188.112.433.086.596-.06.009-.008 1.013-.863 4.657-.863 3.59 0 4.617.83 4.656.863.095.09.219.137.344.137.084 0 .169-.021.246-.064.196-.112.294-.339.239-.557z"/></svg></g>

<g class="stack" id="1f627"><svg viewBox="0 0 36 36"><path fill="#FFCC4D" d="M36 18c0 9.941-8.059 18-18 18-9.94 0-18-8.059-18-18C0 8.06 8.06 0 18 0c9.941 0 18 8.06 18 18"/><ellipse fill="#664500" cx="11.5" cy="16.5" rx="2.5" ry="3.5"/><ellipse fill="#664500" cx="24.5" cy="16.5" rx="2.5" ry="3.5"/><path fill="#664500" d="M5.999 12c-.208 0-.419-.065-.599-.2-.442-.331-.531-.958-.2-1.4C8.462 6.05 12.816 6 13 6c.552 0 1 .448 1 1 0 .551-.445.998-.996 1-.155.002-3.568.086-6.204 3.6-.196.262-.497.4-.801.4zm24.002 0c-.305 0-.604-.138-.801-.4-2.64-3.521-6.061-3.598-6.206-3.6-.55-.006-.994-.456-.991-1.005C22.006 6.444 22.45 6 23 6c.184 0 4.537.05 7.8 4.4.332.442.242 1.069-.2 1.4-.18.135-.39.2-.599.2zm-6.516 15.879C23.474 27.835 22.34 23.5 18 23.5s-5.474 4.335-5.485 4.379c-.053.213.044.431.232.544.188.112.433.086.596-.06.009-.008 1.013-.863 4.657-.863 3.59 0 4.617.83 4.656.863.095.09.219.137.344.137.084 0 .169-.021.246-.064.196-.112.294-.339.239-.557z"/></svg></g>

<g class="stack" id="1f628"><svg viewBox="0 0 36 36"><path fill="#FFCC4D" d="M36 18c0 9.941-8.059 18-18 18-9.94 0-18-8.059-18-18C0 8.06 8.06 0 18 0c9.941 0 18 8.06 18 18"/><path fill="#BDDDF4" d="M18 11c8.749 0 16.033 4.509 17.656 10.484.222-1.128.344-2.292.344-3.484 0-9.94-8.059-18-18-18C8.06 0 0 8.06 0 18c0 1.192.123 2.356.344 3.484C1.967 15.509 9.252 11 18 11z"/><ellipse fill="#664500" cx="11.5" cy="16.5" rx="2.5" ry="3.5"/><ellipse fill="#664500" cx="24.5" cy="16.5" rx="2.5" ry="3.5"/><path fill="#664500" d="M5.999 12c-.208 0-.419-.065-.599-.2-.442-.331-.531-.958-.2-1.4C8.462 6.05 12.816 6 13 6c.552 0 1 .448 1 1 0 .551-.445.998-.996 1-.155.002-3.568.086-6.204 3.6-.196.262-.497.4-.801.4zm24.002 0c-.305 0-.604-.138-.801-.4-2.64-3.521-6.061-3.598-6.206-3.6-.55-.006-.994-.456-.991-1.005C22.006 6.444 22.45 6 23 6c.184 0 4.537.05 7.8 4.4.332.442.242 1.069-.2 1.4-.18.135-.39.2-.599.2zm-6.516 15.879C23.474 27.835 22.34 23.5 18 23.5s-5.474 4.335-5.485 4.379c-.053.213.043.431.231.544.187.112.433.086.596-.06.011-.008 1.015-.863 4.658-.863 3.589 0 4.617.83 4.656.863.095.09.219.137.344.137.084 0 .169-.021.246-.064.196-.112.294-.339.239-.557z"/></svg></g>

<g class="stack" id="1f629"><svg viewBox="0 0 36 36"><path fill="#FFCC4D" d="M36 18c0 9.941-8.059 18-18 18-9.94 0-18-8.059-18-18C0 8.06 8.06 0 18 0c9.941 0 18 8.06 18 18"/><path fill="#664500" d="M16.664 10.543c-.207-.09-.451-.03-.592.148-.009.012-.979 1.202-3.335 1.844-.775.212-1.531.319-2.245.319-.992 0-1.559-.212-1.562-.213-.21-.085-.453-.014-.587.169-.135.184-.128.435.016.612.071.087 1.78 2.147 4.125 2.147.351 0 .702-.047 1.043-.14 2.854-.778 3.41-4.208 3.432-4.354.034-.223-.087-.441-.295-.532zm10.975 2.155c-.138-.181-.38-.245-.59-.159-.006.003-.633.256-1.737.256-.661 0-1.358-.089-2.073-.265-2.369-.583-3.369-1.749-3.377-1.758-.146-.176-.388-.233-.596-.137-.207.095-.323.318-.283.542.026.145.668 3.56 3.539 4.267.311.077.629.116.946.116 2.396 0 4.099-2.16 4.17-2.252.138-.181.137-.43.001-.61zM9.998 10c-.448 0-.855-.303-.969-.757-.133-.535.191-1.077.724-1.212.036-.009 3.593-.961 5.352-4.478.247-.494.846-.695 1.342-.447.494.247.694.848.447 1.342-2.181 4.361-6.471 5.477-6.652 5.523-.081.02-.163.029-.244.029zM26 10c-.08 0-.161-.01-.242-.03-.182-.045-4.472-1.162-6.652-5.523-.247-.494-.047-1.095.447-1.342.493-.247 1.094-.047 1.342.447 1.758 3.517 5.315 4.469 5.352 4.478.533.137.857.681.722 1.215-.116.453-.522.755-.969.755zm-8 18.965c-3.623 0-6.027.422-9 1-.679.131-2 0-2-2 0-4 4.595-9 11-9 6.404 0 11 5 11 9 0 2-1.321 2.132-2 2-2.973-.578-5.377-1-9-1z"/><path fill="#FFF" d="M10 25s3-1 8-1 8 1 8 1-2-4-8-4-8 4-8 4z"/></svg></g>

<g class="stack" id="1f630"><svg viewBox="0 0 36 36"><path fill="#FFCC4D" d="M36 18c0 9.941-8.059 18-18 18-9.94 0-18-8.059-18-18C0 8.06 8.06 0 18 0c9.941 0 18 8.06 18 18"/><ellipse fill="#664500" cx="11.5" cy="16.5" rx="2.5" ry="3.5"/><ellipse fill="#664500" cx="24.5" cy="16.5" rx="2.5" ry="3.5"/><path fill="#664500" d="M23.485 27.879C23.474 27.835 22.34 23.5 18 23.5s-5.474 4.335-5.484 4.379c-.053.213.043.431.231.544.187.112.433.086.596-.06.01-.008 1.014-.863 4.657-.863 3.59 0 4.617.83 4.656.863.095.09.219.137.344.137.084 0 .169-.021.246-.064.196-.112.294-.339.239-.557z"/><path fill="#5DADEC" d="M10 30c0 2.762-2.238 5-5 5s-5-2.238-5-5 4-10 5-10 5 7.238 5 10z"/><path fill="#BDDDF4" d="M18 11c8.749 0 16.033 4.509 17.656 10.484.222-1.128.344-2.292.344-3.484 0-9.94-8.059-18-18-18C8.06 0 0 8.06 0 18c0 1.192.123 2.356.344 3.484C1.967 15.509 9.252 11 18 11z"/><path fill="#664500" d="M30 12c-5.554 0-7.802-4.367-7.895-4.553-.247-.494-.047-1.095.447-1.342.492-.247 1.092-.048 1.34.443C23.967 6.694 25.713 10 30 10c.553 0 1 .448 1 1s-.447 1-1 1zM6 12c-.552 0-1-.448-1-1s.448-1 1-1c5.083 0 5.996-3.12 6.033-3.253.145-.528.69-.848 1.219-.709.53.139.851.673.718 1.205C13.921 7.437 12.704 12 6 12z"/></svg></g>

<g class="stack" id="1f631"><svg viewBox="0 0 36 36"><path fill="#FFCC4D" d="M18 0C8.06 0 0 8.06 0 18c0 6.051 2.996 11.392 7.574 14.655C7.678 26.217 5.337 19 1.404 19c-.464 0-.84.066-1.153.183C.554 18.426 1.211 18 2.44 18c4.27 0 6.666 8.506 6.092 15.288C11.286 34.997 14.522 36 18 36c3.479 0 6.716-1.004 9.47-2.713C26.893 26.48 29.288 18 33.561 18c1.233 0 1.892.426 2.192 1.183-.314-.117-.691-.183-1.157-.183-3.938 0-6.278 7.199-6.17 13.655C33.005 29.392 36 24.051 36 18c0-9.94-8.059-18-18-18z"/><path fill="#BDDDF4" d="M18 0C8.06 0 0 8.06 0 18c0 1.192.123 2.356.344 3.484.234-.863.6-1.691 1.058-2.484-.463 0-.838.066-1.15.183.264-.659.822-1.048 1.768-1.142C5.012 13.862 11.037 11 18 11c6.964 0 12.988 2.861 15.98 7.04.95.094 1.51.482 1.772 1.143-.312-.117-.689-.183-1.153-.183.458.793.823 1.621 1.058 2.484.221-1.128.343-2.292.343-3.484 0-9.94-8.059-18-18-18z"/><path fill="#F5F8FA" d="M7.347 11.91c-.946 3.176.107 6.293 2.353 6.962 2.246.67 4.834-1.362 5.779-4.538.946-3.175-.106-6.293-2.351-6.962-2.246-.669-4.834 1.363-5.781 4.538zm21.305 0c.946 3.176-.107 6.293-2.352 6.962-2.246.67-4.834-1.362-5.779-4.538-.946-3.175.107-6.293 2.351-6.962 2.245-.669 4.833 1.363 5.78 4.538z"/><path fill="#664500" d="M18 18c-2.757 0-5 2.243-5 5v6c0 2.757 2.243 5 5 5s5-2.243 5-5v-6c0-2.757-2.243-5-5-5z"/><path fill="#FCAB40" d="M1.404 19c-.464 0-.84.066-1.153.183.072-.179.167-.336.281-.476C-1.33 20.998 2.849 28.54.818 36h6.46c1.19-6.96-1.235-17-5.874-17zm34.349.183c-.314-.117-.691-.183-1.157-.183-4.641 0-7.065 10.002-5.873 17h6.46c-1.906-7.045 1.656-14.089.57-16.817z"/></svg></g>

<g class="stack" id="1f632"><svg viewBox="0 0 36 36"><path fill="#FFCC4D" d="M36 18c0 9.941-8.059 18-18 18-9.94 0-18-8.059-18-18C0 8.06 8.06 0 18 0c9.941 0 18 8.06 18 18"/><ellipse fill="#664500" cx="18" cy="27" rx="5" ry="6"/><path fill="#664500" d="M5.999 11c-.208 0-.419-.065-.599-.2-.442-.331-.531-.958-.2-1.4C8.462 5.05 12.816 5 13 5c.552 0 1 .448 1 1 0 .551-.445.998-.996 1-.155.002-3.568.086-6.204 3.6-.196.262-.497.4-.801.4zm24.002 0c-.305 0-.604-.138-.801-.4-2.64-3.521-6.061-3.598-6.206-3.6-.55-.006-.994-.456-.991-1.005C22.006 5.444 22.45 5 23 5c.184 0 4.537.05 7.8 4.4.332.442.242 1.069-.2 1.4-.18.135-.39.2-.599.2z"/><path fill="#F5F8FA" d="M18 23c-1.657 0-3 1.79-3 4h6c0-2.21-1.343-4-3-4z"/><ellipse fill="#664500" cx="12" cy="14.5" rx="2.5" ry="3.5"/><ellipse fill="#664500" cx="24" cy="14.5" rx="2.5" ry="3.5"/></svg></g>

<g class="stack" id="1f633"><svg viewBox="0 0 36 36"><path fill="#FFCC4D" d="M36 18c0 9.941-8.059 18-18 18-9.94 0-18-8.059-18-18C0 8.06 8.06 0 18 0c9.941 0 18 8.06 18 18"/><circle fill="#FF7892" cx="29" cy="23" r="5"/><circle fill="#FF7892" cx="7" cy="23" r="5"/><circle fill="#F5F8FA" cx="24.5" cy="16.5" r="5.5"/><circle fill="#F5F8FA" cx="11.5" cy="16.5" r="5.5"/><circle fill="#292F33" cx="11.5" cy="16.5" r="2.5"/><circle fill="#292F33" cx="24.5" cy="16.5" r="2.5"/><path fill="#664500" d="M22 30h-8c-.552 0-1-.447-1-1s.448-1 1-1h8c.553 0 1 .447 1 1s-.447 1-1 1zm8.001-19c-.305 0-.604-.138-.801-.4-2.64-3.521-6.061-3.598-6.206-3.6-.55-.006-.994-.456-.991-1.005C22.006 5.444 22.45 5 23 5c.184 0 4.537.05 7.8 4.4.332.442.242 1.069-.2 1.4-.18.135-.39.2-.599.2zM5.999 11c-.208 0-.419-.065-.599-.2-.442-.331-.531-.958-.2-1.4C8.462 5.05 12.816 5 13 5c.552 0 1 .448 1 1 0 .551-.445.998-.996 1-.155.002-3.568.086-6.204 3.6-.196.262-.497.4-.801.4z"/></svg></g>

<g class="stack" id="1f634"><svg viewBox="0 0 36 36"><circle fill="#FFCC4D" cx="18" cy="18" r="18"/><circle fill="#664500" cx="18" cy="26" r="3"/><path fill="#664500" d="M17.312 16.612c-.176-.143-.427-.147-.61-.014-.012.009-1.26.902-3.702.902-2.441 0-3.69-.893-3.7-.9-.183-.137-.435-.133-.611.009-.178.142-.238.386-.146.594.06.135 1.5 3.297 4.457 3.297 2.958 0 4.397-3.162 4.457-3.297.092-.207.032-.449-.145-.591zm10 0c-.176-.143-.426-.148-.61-.014-.012.009-1.261.902-3.702.902-2.44 0-3.69-.893-3.7-.9-.183-.137-.434-.133-.611.009-.178.142-.238.386-.146.594.06.135 1.5 3.297 4.457 3.297 2.958 0 4.397-3.162 4.457-3.297.092-.207.032-.449-.145-.591z"/><path fill="#FFAC33" d="M34.43 12.534c.004-.044.023-.077.023-.123 0-.754-.548-1.188-1.225-1.188h-3.582l4.279-5.993c.206-.283.282-.453.282-.811 0-.735-.64-.849-.885-.849h-5.349l-.032-.688s-1.409.831-1.503.888-.505.372-.505.987c0 .754.546 1.187 1.225 1.187h3.149l-4.261 5.993c-.094.151-.244.433-.244.735 0 .622.508.924 1.111.924h6.315c.258 0 .515-.076.681-.176l1.503-.888h-.982z"/><path fill="#2A6797" d="M31.771 5.084h-3.149c-.679 0-1.225-.433-1.225-1.187s.546-1.188 1.225-1.188h6.164c.245 0 .885.113.885.848 0 .358-.076.528-.282.811l-4.279 5.993h3.582c.677 0 1.225.433 1.225 1.187s-.548 1.187-1.225 1.187h-6.315c-.603 0-1.111-.302-1.111-.924 0-.302.15-.584.244-.735l4.261-5.992z"/><path fill="#FFAC33" d="M24.886 7.48c.003-.033.018-.058.018-.092 0-.564-.41-.889-.917-.889h-2.682l3.203-4.487c.156-.212.212-.339.212-.606 0-.55-.479-.635-.663-.635h-4.004l-.024-.515s-1.055.622-1.125.665c-.07.043-.378.279-.378.739 0 .564.409.889.917.889H21.8l-3.19 4.487c-.07.113-.183.324-.183.55 0 .466.38.691.832.691h4.728c.193 0 .385-.057.51-.132l1.125-.665h-.736z"/><path fill="#2A6797" d="M22.896 1.903h-2.357c-.508 0-.917-.324-.917-.889 0-.564.409-.889.917-.889h4.615c.184 0 .663.085.663.635 0 .268-.057.395-.211.607l-3.203 4.487h2.682c.505 0 .915.324.915.889s-.41.889-.917.889h-4.728c-.452 0-.832-.226-.832-.691 0-.226.113-.437.183-.55l3.19-4.488z"/><path fill="#FFAC33" d="M17.741 10.425c.003-.028.015-.049.015-.079 0-.483-.351-.761-.785-.761h-2.295l2.742-3.84c.132-.181.181-.29.181-.519 0-.471-.41-.544-.567-.544h-3.427l-.021-.441-.963.569c-.06.037-.324.238-.324.633 0 .483.35.761.785.761h2.017l-2.73 3.84c-.06.097-.157.278-.157.471 0 .399.326.592.712.592h4.047c.165 0 .33-.049.436-.113l.963-.569h-.629z"/><path fill="#2A6797" d="M16.037 5.652H14.02c-.435 0-.785-.278-.785-.761s.35-.761.785-.761h3.95c.157 0 .567.073.567.544 0 .229-.048.338-.181.519l-2.742 3.84h2.295c.434 0 .785.278.785.761s-.351.761-.785.761h-4.047c-.386 0-.712-.193-.712-.592 0-.193.096-.374.157-.471l2.73-3.84z"/></svg></g>

<g class="stack" id="1f635"><svg viewBox="0 0 36 36"><path fill="#FFCC4D" d="M36 18c0 9.941-8.059 18-18 18-9.94 0-18-8.059-18-18C0 8.06 8.06 0 18 0c9.941 0 18 8.06 18 18"/><ellipse fill="#664500" cx="18" cy="27" rx="5" ry="6"/><path fill="#664500" d="M5.999 11c-.208 0-.419-.065-.599-.2-.442-.331-.531-.958-.2-1.4C8.462 5.05 12.816 5 13 5c.552 0 1 .448 1 1 0 .551-.445.998-.996 1-.155.002-3.568.086-6.204 3.6-.196.262-.497.4-.801.4zm24.002 0c-.305 0-.604-.138-.801-.4-2.64-3.521-6.061-3.598-6.206-3.6-.55-.006-.994-.456-.991-1.005C22.006 5.444 22.45 5 23 5c.184 0 4.537.05 7.8 4.4.332.442.242 1.069-.2 1.4-.18.135-.39.2-.599.2zm-16.087 4.5l1.793-1.793c.391-.391.391-1.023 0-1.414s-1.023-.391-1.414 0L12.5 14.086l-1.793-1.793c-.391-.391-1.023-.391-1.414 0s-.391 1.023 0 1.414l1.793 1.793-1.793 1.793c-.391.391-.391 1.023 0 1.414.195.195.451.293.707.293s.512-.098.707-.293l1.793-1.793 1.793 1.793c.195.195.451.293.707.293s.512-.098.707-.293c.391-.391.391-1.023 0-1.414L13.914 15.5zm11 0l1.793-1.793c.391-.391.391-1.023 0-1.414s-1.023-.391-1.414 0L23.5 14.086l-1.793-1.793c-.391-.391-1.023-.391-1.414 0s-.391 1.023 0 1.414l1.793 1.793-1.793 1.793c-.391.391-.391 1.023 0 1.414.195.195.451.293.707.293s.512-.098.707-.293l1.793-1.793 1.793 1.793c.195.195.451.293.707.293s.512-.098.707-.293c.391-.391.391-1.023 0-1.414L24.914 15.5z"/></svg></g>

<g class="stack" id="1f636"><svg viewBox="0 0 36 36"><path fill="#FFCC4D" d="M36 18c0 9.941-8.059 18-18 18-9.94 0-18-8.059-18-18C0 8.06 8.06 0 18 0c9.941 0 18 8.06 18 18"/><ellipse fill="#664500" cx="11.5" cy="16.5" rx="2.5" ry="3.5"/><ellipse fill="#664500" cx="24.5" cy="16.5" rx="2.5" ry="3.5"/></svg></g>

<g class="stack" id="1f637"><svg viewBox="0 0 36 36"><path fill="#FFCC4D" d="M36 18c0 9.941-8.059 18-18 18-9.94 0-18-8.059-18-18C0 8.06 8.06 0 18 0c9.941 0 18 8.06 18 18"/><path fill="#664500" d="M7.001 15c-.323 0-.64-.156-.833-.445-.306-.46-.182-1.081.277-1.387C6.578 13.08 9.746 11 14 11c.552 0 1 .448 1 1s-.448 1-1 1c-3.655 0-6.418 1.814-6.445 1.832-.171.114-.364.168-.554.168zm21.998 0c-.189 0-.382-.054-.552-.167C28.419 14.815 25.628 13 22 13c-.553 0-1-.448-1-1s.447-1 1-1c4.254 0 7.422 2.08 7.555 2.168.46.306.584.927.277 1.387-.192.289-.51.445-.833.445z"/><path fill="#F5F8FA" d="M27 22.091L36 18c0-.66-.041-1.309-.109-1.95L27 20.091V19c0-1.104-.896-2-2-2H11c-1.104 0-2 .896-2 2v1.091L.11 16.05C.041 16.691 0 17.34 0 18l9 4.091v4.546l-7.453-1.355c.341.77.741 1.507 1.183 2.215L9 28.637V30c0 1.104.896 2 2 2h14c1.104 0 2-.896 2-2v-1.363l6.271-1.141c.441-.708.841-1.445 1.182-2.215L27 26.637v-4.546z"/></svg></g>

<g class="stack" id="2b50"><svg viewBox="0 0 36 36"><path fill="#FFAC33" d="M27.287 34.627c-.404 0-.806-.124-1.152-.371L18 28.422l-8.135 5.834c-.693.496-1.623.496-2.312-.008-.689-.499-.979-1.385-.721-2.194l3.034-9.792-8.062-5.681c-.685-.505-.97-1.393-.708-2.203.264-.808 1.016-1.357 1.866-1.363L12.947 13l3.179-9.549c.268-.809 1.023-1.353 1.874-1.353.851 0 1.606.545 1.875 1.353L23 13l10.036.015c.853.006 1.606.556 1.867 1.363.263.81-.022 1.698-.708 2.203l-8.062 5.681 3.034 9.792c.26.809-.033 1.695-.72 2.194-.347.254-.753.379-1.16.379z"/></svg></g>

<g class="stack" id="263a"><svg viewBox="0 0 36 36"><path fill="#FFCC4D" d="M36 18c0 9.941-8.059 18-18 18-9.94 0-18-8.059-18-18C0 8.06 8.06 0 18 0c9.941 0 18 8.06 18 18"/><circle fill="#FF7892" cx="29" cy="22" r="5"/><circle fill="#FF7892" cx="7" cy="22" r="5"/><path fill="#664500" d="M29 14c-.256 0-.512-.098-.707-.293-2.577-2.575-7.055-1.736-7.099-1.726-.548.109-1.067-.247-1.174-.787-.107-.541.242-1.066.783-1.174.227-.046 5.563-1.065 8.903 2.273.391.391.391 1.023 0 1.414-.194.195-.45.293-.706.293zM7 14c-.256 0-.512-.098-.707-.293-.391-.391-.391-1.023 0-1.414 3.34-3.341 8.678-2.318 8.903-2.273.542.108.893.635.784 1.177-.108.54-.633.892-1.175.785-.069-.015-4.529-.843-7.098 1.726-.195.194-.451.292-.707.292zm19 5c-.256 0-.512-.098-.707-.293-1.304-1.305-4.09-.974-5.052-.736-.54.132-1.077-.195-1.211-.73-.133-.536.192-1.077.728-1.211.186-.046 4.575-1.111 6.949 1.263.391.391.391 1.023 0 1.414-.195.195-.451.293-.707.293zm-16 0c-.256 0-.512-.098-.707-.293-.391-.391-.391-1.023 0-1.414 2.373-2.373 6.764-1.309 6.95-1.263.535.134.86.675.727 1.211-.132.536-.673.863-1.21.73-.964-.237-3.749-.567-5.052.736-.196.195-.452.293-.708.293z"/><g fill="#664500"><path d="M13 25s1 4 5 4 5-4 5-4-1 1-5 1-5-1-5-1z"/><path d="M18 29.5c-4.34 0-5.474-4.335-5.485-4.379-.055-.218.043-.445.238-.557.191-.106.43-.079.591.072.039.034 1.066.864 4.656.864 3.644 0 4.647-.855 4.657-.863.165-.146.409-.171.597-.06.188.113.284.331.231.544-.011.044-1.145 4.379-5.485 4.379zm-4.051-3.492C14.526 27.072 15.724 28.5 18 28.5s3.475-1.428 4.051-2.492c-.82.258-2.101.492-4.051.492s-3.231-.234-4.051-.492zM13 25h.01H13z"/></g></svg></g>

<g class="stack" id="2728"><svg viewBox="0 0 36 36"><path fill="#FFAC33" d="M34.347 16.893l-8.899-3.294-3.323-10.891c-.128-.42-.517-.708-.956-.708-.439 0-.828.288-.956.708l-3.322 10.891-8.9 3.294c-.393.146-.653.519-.653.938 0 .418.26.793.653.938l8.895 3.293 3.324 11.223c.126.424.516.715.959.715.442 0 .833-.291.959-.716l3.324-11.223 8.896-3.293c.391-.144.652-.518.652-.937 0-.418-.261-.792-.653-.938z"/><path fill="#FFCC4D" d="M14.347 27.894l-2.314-.856-.9-3.3c-.118-.436-.513-.738-.964-.738-.451 0-.846.302-.965.737l-.9 3.3-2.313.856c-.393.145-.653.52-.653.938 0 .418.26.793.653.938l2.301.853.907 3.622c.112.444.511.756.97.756.459 0 .858-.312.97-.757l.907-3.622 2.301-.853c.393-.144.653-.519.653-.937 0-.418-.26-.793-.653-.937zM10.009 6.231l-2.364-.875-.876-2.365c-.145-.393-.519-.653-.938-.653-.418 0-.792.26-.938.653l-.875 2.365-2.365.875c-.393.146-.653.52-.653.938 0 .418.26.793.653.938l2.365.875.875 2.365c.146.393.52.653.938.653.418 0 .792-.26.938-.653l.875-2.365 2.365-.875c.393-.146.653-.52.653-.938 0-.418-.26-.792-.653-.938z"/></svg></g>

<g class="stack" id="2753"><svg viewBox="0 0 36 36"><path fill="#BE1931" d="M17 27c-1.657 0-3-1.343-3-3v-4c0-1.657 1.343-3 3-3 .603-.006 6-1 6-5 0-2-2-4-5-4-2.441 0-4 2-4 3 0 1.657-1.343 3-3 3s-3-1.343-3-3c0-4.878 4.58-9 10-9 8 0 11 5.982 11 11 0 4.145-2.277 7.313-6.413 8.92-.9.351-1.79.587-2.587.747V24c0 1.657-1.343 3-3 3z"/><circle fill="#BE1931" cx="17" cy="32" r="3"/></svg></g>

<g class="stack" id="2754"><svg viewBox="0 0 36 36"><path fill="#CCD6DD" d="M17 27c-1.657 0-3-1.343-3-3v-4c0-1.657 1.343-3 3-3 .603-.006 6-1 6-5 0-2-2-4-5-4-2.441 0-4 2-4 3 0 1.657-1.343 3-3 3s-3-1.343-3-3c0-4.878 4.58-9 10-9 8 0 11 5.982 11 11 0 4.145-2.277 7.313-6.413 8.92-.9.351-1.79.587-2.587.747V24c0 1.657-1.343 3-3 3z"/><circle fill="#CCD6DD" cx="17" cy="32" r="3"/></svg></g>

<g class="stack" id="2755"><svg viewBox="0 0 36 36"><circle fill="#CCD6DD" cx="18" cy="32" r="3"/><path fill="#CCD6DD" d="M21 24c0 1.657-1.343 3-3 3s-3-1.343-3-3V5c0-1.657 1.343-3 3-3s3 1.343 3 3v19z"/></svg></g>

<g class="stack" id="2757"><svg viewBox="0 0 36 36"><circle fill="#BE1931" cx="18" cy="32" r="3"/><path fill="#BE1931" d="M21 24c0 1.657-1.344 3-3 3-1.657 0-3-1.343-3-3V5c0-1.657 1.343-3 3-3 1.656 0 3 1.343 3 3v19z"/></svg></g>

<g class="stack" id="2764"><svg viewBox="0 0 36 36"><path fill="#DD2E44" d="M35.885 11.833c0-5.45-4.418-9.868-9.867-9.868-3.308 0-6.227 1.633-8.018 4.129-1.791-2.496-4.71-4.129-8.017-4.129-5.45 0-9.868 4.417-9.868 9.868 0 .772.098 1.52.266 2.241C1.751 22.587 11.216 31.568 18 34.034c6.783-2.466 16.249-11.447 17.617-19.959.17-.721.268-1.469.268-2.242z"/></svg></g>
</svg>