<svg xmlns="http://www.w3.org/2000/svg"><defs><style>.stack{display:none;}.stack:target{display:inline;}</style></defs>

<g class="stack" id="1f1e8-1f1f3"><svg viewBox="0 0 36 36"><path fill="#DE2910" d="M36 27c0 2.209-1.791 4-4 4H4c-2.209 0-4-1.791-4-4V9c0-2.209 1.791-4 4-4h28c2.209 0 4 1.791 4 4v18z"/><path fill="#FFDE02" d="M11.136 8.977l.736.356.589-.566-.111.81.72.386-.804.144-.144.804-.386-.72-.81.111.566-.589zm4.665 2.941l-.356.735.566.59-.809-.112-.386.721-.144-.805-.805-.144.721-.386-.112-.809.59.566zm-.957 3.779l.268.772.817.017-.651.493.237.783-.671-.467-.671.467.236-.783-.651-.493.817-.017zm-3.708 3.28l.736.356.589-.566-.111.81.72.386-.804.144-.144.804-.386-.72-.81.111.566-.589zM7 10.951l.929 2.671 2.826.058-2.253 1.708.819 2.706L7 16.479l-2.321 1.615.819-2.706-2.253-1.708 2.826-.058z"/></svg></g>

<g class="stack" id="1f1e9-1f1ea"><svg viewBox="0 0 36 36"><path fill="#FFCD05" d="M0 27c0 2.209 1.791 4 4 4h28c2.209 0 4-1.791 4-4v-4H0v4z"/><path fill="#ED1F24" d="M0 14h36v9H0z"/><path fill="#141414" d="M32 5H4C1.791 5 0 6.791 0 9v5h36V9c0-2.209-1.791-4-4-4z"/></svg></g>

<g class="stack" id="1f1ea-1f1f8"><svg viewBox="0 0 36 36"><path fill="#C60A1D" d="M36 27c0 2.209-1.791 4-4 4H4c-2.209 0-4-1.791-4-4V9c0-2.209 1.791-4 4-4h28c2.209 0 4 1.791 4 4v18z"/><path fill="#FFC400" d="M0 12h36v12H0z"/><path fill="#EA596E" d="M9 17v3c0 1.657 1.343 3 3 3s3-1.343 3-3v-3H9z"/><path fill="#F4A2B2" d="M12 16h3v3h-3z"/><path fill="#DD2E44" d="M9 16h3v3H9z"/><ellipse fill="#EA596E" cx="12" cy="14.5" rx="3" ry="1.5"/><ellipse fill="#FFAC33" cx="12" cy="13.75" rx="3" ry=".75"/><path fill="#99AAB5" d="M7 16h1v7H7zm9 0h1v7h-1z"/><path fill="#66757F" d="M6 22h3v1H6zm9 0h3v1h-3zm-8-7h1v1H7zm9 0h1v1h-1z"/></svg></g>

<g class="stack" id="1f1eb-1f1f7"><svg viewBox="0 0 36 36"><path fill="#ED2939" d="M36 27c0 2.209-1.791 4-4 4h-8V5h8c2.209 0 4 1.791 4 4v18z"/><path fill="#002495" d="M4 5C1.791 5 0 6.791 0 9v18c0 2.209 1.791 4 4 4h8V5H4z"/><path fill="#EEE" d="M12 5h12v26H12z"/></svg></g>

<g class="stack" id="1f1ec-1f1e7"><svg viewBox="0 0 36 36"><path fill="#00247D" d="M0 9.059V13h5.628zM4.664 31H13v-5.837zM23 25.164V31h8.335zM0 23v3.941L5.63 23zM31.337 5H23v5.837zM36 26.942V23h-5.631zM36 13V9.059L30.371 13zM13 5H4.664L13 10.837z"/><path fill="#CF1B2B" d="M25.14 23l9.712 6.801c.471-.479.808-1.082.99-1.749L28.627 23H25.14zM13 23h-2.141l-9.711 6.8c.521.53 1.189.909 1.938 1.085L13 23.943V23zm10-10h2.141l9.711-6.8c-.521-.53-1.188-.909-1.937-1.085L23 12.057V13zm-12.141 0L1.148 6.2C.677 6.68.34 7.282.157 7.949L7.372 13h3.487z"/><path fill="#EEE" d="M36 21H21v10h2v-5.836L31.335 31H32c1.117 0 2.126-.461 2.852-1.199L25.14 23h3.487l7.215 5.052c.093-.337.158-.686.158-1.052v-.058L30.369 23H36v-2zM0 21v2h5.63L0 26.941V27c0 1.091.439 2.078 1.148 2.8l9.711-6.8H13v.943l-9.914 6.941c.294.07.598.116.914.116h.664L13 25.163V31h2V21H0zM36 9c0-1.091-.439-2.078-1.148-2.8L25.141 13H23v-.943l9.915-6.942C32.62 5.046 32.316 5 32 5h-.663L23 10.837V5h-2v10h15v-2h-5.629L36 9.059V9zM13 5v5.837L4.664 5H4c-1.118 0-2.126.461-2.852 1.2l9.711 6.8H7.372L.157 7.949C.065 8.286 0 8.634 0 9v.059L5.628 13H0v2h15V5h-2z"/><path fill="#CF1B2B" d="M21 15V5h-6v10H0v6h15v10h6V21h15v-6z"/></svg></g>

<g class="stack" id="1f1ee-1f1f9"><svg viewBox="0 0 36 36"><path fill="#CE2B37" d="M36 27c0 2.209-1.791 4-4 4h-8V5h8c2.209 0 4 1.791 4 4v18z"/><path fill="#009246" d="M4 5C1.791 5 0 6.791 0 9v18c0 2.209 1.791 4 4 4h8V5H4z"/><path fill="#EEE" d="M12 5h12v26H12z"/></svg></g>

<g class="stack" id="1f1ef-1f1f5"><svg viewBox="0 0 36 36"><path fill="#EEE" d="M36 27c0 2.209-1.791 4-4 4H4c-2.209 0-4-1.791-4-4V9c0-2.209 1.791-4 4-4h28c2.209 0 4 1.791 4 4v18z"/><circle fill="#ED1B2F" cx="18" cy="18" r="7"/></svg></g>

<g class="stack" id="1f1f0-1f1f7"><svg viewBox="0 0 36 36"><path fill="#EEE" d="M36 27c0 2.209-1.791 4-4 4H4c-2.209 0-4-1.791-4-4V9c0-2.209 1.791-4 4-4h28c2.209 0 4 1.791 4 4v18z"/><path fill="#C60C30" d="M21.441 13.085c-2.714-1.9-6.455-1.24-8.356 1.474-.95 1.356-.621 3.227.737 4.179 1.357.949 3.228.618 4.178-.738s2.822-1.687 4.178-.736c1.358.95 1.688 2.821.737 4.178 1.901-2.714 1.241-6.455-1.474-8.357z"/><path fill="#003478" d="M22.178 17.264c-1.356-.951-3.228-.62-4.178.736s-2.821 1.687-4.178.737c-1.358-.951-1.687-2.822-.737-4.179-1.901 2.716-1.241 6.456 1.473 8.356 2.715 1.901 6.455 1.242 8.356-1.474.951-1.355.621-3.226-.736-4.176z"/><path d="M24.334 25.572l1.928-2.298.766.643-1.928 2.298zm2.57-3.063l1.928-2.297.766.643-1.928 2.297zm-1.038 4.351l1.928-2.297.766.643-1.928 2.297zm2.572-3.066l1.93-2.297.766.644-1.93 2.296zm-1.041 4.352l1.93-2.297.765.643-1.929 2.297zm2.571-3.065l1.927-2.3.767.643-1.927 2.3zm.004-14.162l.766-.643 1.93 2.299-.767.643zM27.4 7.853l.766-.643 1.928 2.299-.767.642zm-1.533 1.288l.766-.643 4.5 5.362-.766.643zm-1.532 1.284l.767-.643 1.927 2.298-.766.642zm2.57 3.065l.766-.643 1.93 2.297-.765.643zM6.4 20.854l.766-.643 4.499 5.363-.767.643zM4.87 22.14l.765-.642 1.929 2.298-.767.643zm2.567 3.066l.766-.643 1.93 2.297-.766.643zm-4.101-1.781l.766-.643 4.5 5.362-.767.643zm-.001-10.852l4.498-5.362.767.642-4.5 5.363zm1.532 1.287l4.5-5.363.766.643-4.5 5.362zM6.4 15.145l4.5-5.363.766.643-4.5 5.363z" fill="#292F33"/></svg></g>

<g class="stack" id="1f1f7-1f1fa"><svg viewBox="0 0 36 36"><path fill="#CE2028" d="M36 27c0 2.209-1.791 4-4 4H4c-2.209 0-4-1.791-4-4v-4h36v4z"/><path fill="#22408C" d="M0 13h36v10H0z"/><path fill="#EEE" d="M32 5H4C1.791 5 0 6.791 0 9v4h36V9c0-2.209-1.791-4-4-4z"/></svg></g>

<g class="stack" id="1f1fa-1f1f8"><svg viewBox="0 0 36 36"><path fill="#B22334" d="M35.445 7C34.752 5.809 33.477 5 32 5H18v2h17.445zM0 25h36v2H0zm18-8h18v2H18zm0-4h18v2H18zM0 21h36v2H0zm4 10h28c1.477 0 2.752-.809 3.445-2H.555c.693 1.191 1.968 2 3.445 2zM18 9h18v2H18z"/><path fill="#EEE" d="M.068 27.679c.017.093.036.186.059.277.026.101.058.198.092.296.089.259.197.509.333.743L.555 29h34.89l.002-.004c.135-.233.243-.483.332-.741.034-.099.067-.198.093-.301.023-.09.042-.182.059-.275.041-.22.069-.446.069-.679H0c0 .233.028.458.068.679zM0 23h36v2H0zm0-4v2h36v-2H18zm18-4h18v2H18zm0-4h18v2H18zM0 9c0-.233.03-.457.068-.679C.028 8.542 0 8.767 0 9zm.555-2l-.003.005L.555 7zM.128 8.044c.025-.102.06-.199.092-.297-.034.098-.066.196-.092.297zM18 9h18c0-.233-.028-.459-.069-.68-.017-.092-.035-.184-.059-.274-.027-.103-.059-.203-.094-.302-.089-.258-.197-.507-.332-.74.001-.001 0-.003-.001-.004H18v2z"/><path fill="#3C3B6E" d="M18 5H4C1.791 5 0 6.791 0 9v10h18V5z"/><path fill="#FFF" d="M2.001 7.726l.618.449-.236.725L3 8.452l.618.448-.236-.725L4 7.726h-.764L3 7l-.235.726zm2 2l.618.449-.236.725.617-.448.618.448-.236-.725L6 9.726h-.764L5 9l-.235.726zm4 0l.618.449-.236.725.617-.448.618.448-.236-.725.618-.449h-.764L9 9l-.235.726zm4 0l.618.449-.236.725.617-.448.618.448-.236-.725.618-.449h-.764L13 9l-.235.726zm-8 4l.618.449-.236.725.617-.448.618.448-.236-.725.618-.449h-.764L5 13l-.235.726zm4 0l.618.449-.236.725.617-.448.618.448-.236-.725.618-.449h-.764L9 13l-.235.726zm4 0l.618.449-.236.725.617-.448.618.448-.236-.725.618-.449h-.764L13 13l-.235.726zm-6-6l.618.449-.236.725L7 8.452l.618.448-.236-.725L8 7.726h-.764L7 7l-.235.726zm4 0l.618.449-.236.725.617-.448.618.448-.236-.725.618-.449h-.764L11 7l-.235.726zm4 0l.618.449-.236.725.617-.448.618.448-.236-.725.618-.449h-.764L15 7l-.235.726zm-12 4l.618.449-.236.725.617-.448.618.448-.236-.725.618-.449h-.764L3 11l-.235.726zM6.383 12.9L7 12.452l.618.448-.236-.725.618-.449h-.764L7 11l-.235.726h-.764l.618.449zm3.618-1.174l.618.449-.236.725.617-.448.618.448-.236-.725.618-.449h-.764L11 11l-.235.726zm4 0l.618.449-.236.725.617-.448.618.448-.236-.725.618-.449h-.764L15 11l-.235.726zm-12 4l.618.449-.236.725.617-.448.618.448-.236-.725.618-.449h-.764L3 15l-.235.726zM6.383 16.9L7 16.452l.618.448-.236-.725.618-.449h-.764L7 15l-.235.726h-.764l.618.449zm3.618-1.174l.618.449-.236.725.617-.448.618.448-.236-.725.618-.449h-.764L11 15l-.235.726zm4 0l.618.449-.236.725.617-.448.618.448-.236-.725.618-.449h-.764L15 15l-.235.726z"/></svg></g>
</svg>